<?xml version="1.0" encoding="utf-8" standalone="no"?>
<!DOCTYPE svg PUBLIC "-//W3C//DTD SVG 1.1//EN"
  "http://www.w3.org/Graphics/SVG/1.1/DTD/svg11.dtd">
<svg xmlns:xlink="http://www.w3.org/1999/xlink" width="180pt" height="252pt" viewBox="0 0 180 252" xmlns="http://www.w3.org/2000/svg" version="1.1">
 <metadata>
  <rdf:RDF xmlns:dc="http://purl.org/dc/elements/1.1/" xmlns:cc="http://creativecommons.org/ns#" xmlns:rdf="http://www.w3.org/1999/02/22-rdf-syntax-ns#">
   <cc:Work>
    <dc:type rdf:resource="http://purl.org/dc/dcmitype/StillImage"/>
    <dc:date>2024-11-22T00:56:01.513622</dc:date>
    <dc:format>image/svg+xml</dc:format>
    <dc:creator>
     <cc:Agent>
      <dc:title>Matplotlib v3.9.2, https://matplotlib.org/</dc:title>
     </cc:Agent>
    </dc:creator>
   </cc:Work>
  </rdf:RDF>
 </metadata>
 <defs>
  <style type="text/css">*{stroke-linejoin: round; stroke-linecap: butt}</style>
 </defs>
 <g id="figure_1">
  <g id="patch_1">
   <path d="M 0 252 
L 180 252 
L 180 0 
L 0 0 
z
" style="fill: #ffffff"/>
  </g>
  <g id="axes_1">
   <g id="patch_2">
    <path d="M 136.011042 126 
L 136.001035 125.710674 
L 135.971048 125.421702 
L 135.921191 125.133437 
L 135.85164 124.846226 
L 135.762642 124.560411 
L 135.654511 124.276324 
L 135.527622 123.99429 
L 135.382412 123.714619 
L 135.219372 123.437608 
L 135.039043 123.16354 
L 134.842014 122.892681 
L 134.628914 122.625281 
L 134.400407 122.36157 
L 134.157188 122.101763 
L 133.899976 121.846052 
L 133.62951 121.594612 
L 133.346543 121.347599 
L 133.051837 121.105148 
L 132.746159 120.867378 
L 132.430275 120.634387 
L 132.104945 120.406257 
L 131.770925 120.183051 
L 131.428955 119.964817 
L 131.079761 119.751588 
L 130.724054 119.543379 
L 130.36252 119.340196 
L 129.995827 119.142027 
L 129.624618 118.948851 
L 129.249508 118.760637 
L 128.871089 118.577342 
L 128.489925 118.398913 
L 128.106551 118.225293 
L 127.721476 118.056413 
L 127.335179 117.892201 
L 126.948113 117.732578 
L 126.560703 117.57746 
L 126.173347 117.426759 
L 125.786415 117.280385 
L 125.400254 117.138244 
L 125.015185 117.000238 
L 124.631504 116.866272 
L 124.249484 116.736245 
L 123.869378 116.610058 
L 123.491416 116.487611 
L 123.115807 116.368804 
L 122.742743 116.253538 
L 122.372396 116.141713 
L 122.004923 116.033233 
L 121.640461 115.927999 
L 121.279136 115.825917 
L 120.921056 115.726892 
L 120.56632 115.630832 
L 120.21501 115.537647 
L 119.867199 115.447247 
L 119.522947 115.359547 
L 119.182307 115.274461 
L 118.84532 115.191907 
L 118.512019 115.111805 
L 118.18243 115.034075 
L 117.85657 114.958642 
L 117.53445 114.885431 
L 117.216075 114.814371 
L 116.901443 114.745391 
L 116.590549 114.678425 
L 116.283382 114.613406 
L 115.979925 114.55027 
L 115.68016 114.488956 
L 115.384064 114.429405 
L 115.091611 114.371559 
L 114.802771 114.315361 
L 114.517513 114.260759 
L 114.235803 114.2077 
L 113.957606 114.156133 
L 113.682882 114.10601 
L 113.411594 114.057283 
L 113.143699 114.009909 
L 112.879157 113.963842 
L 112.617923 113.91904 
L 112.359955 113.875463 
L 112.105208 113.833071 
L 111.853636 113.791826 
L 111.605195 113.751692 
L 111.359837 113.712633 
L 111.117517 113.674614 
L 110.878188 113.637604 
L 110.641805 113.601569 
L 110.40832 113.566481 
L 110.177688 113.532308 
L 109.949862 113.499022 
L 109.724796 113.466596 
L 109.502446 113.435003 
L 109.282765 113.404218 
L 109.065708 113.374215 
L 108.851231 113.344972 
L 108.63929 113.316464 
L 108.429841 113.28867 
L 108.222841 113.261568 
L 108.018247 113.235138 
L 107.816017 113.209359 
L 107.616109 113.184212 
L 107.418482 113.159678 
L 107.223096 113.13574 
L 107.02991 113.11238 
L 106.838886 113.089582 
L 106.649984 113.067328 
L 106.463166 113.045604 
L 106.278395 113.024394 
L 106.095633 113.003684 
L 105.914845 112.983459 
L 105.735993 112.963706 
L 105.559044 112.944412 
L 105.383962 112.925564 
L 105.210713 112.907149 
L 105.039264 112.889156 
L 104.869582 112.871573 
L 104.701635 112.854389 
L 104.535391 112.837593 
L 104.370818 112.821175 
L 104.207886 112.805125 
L 104.046565 112.789433 
L 103.886826 112.774089 
L 103.728639 112.759084 
L 103.571976 112.74441 
L 103.416809 112.730057 
L 103.263111 112.716018 
L 103.110854 112.702285 
L 102.960012 112.688849 
L 102.81056 112.675704 
L 102.662471 112.662841 
L 102.515721 112.650255 
L 102.370284 112.637937 
L 102.226138 112.625881 
L 102.083259 112.614082 
L 101.941622 112.602532 
L 101.801206 112.591226 
L 101.661987 112.580157 
L 101.523945 112.56932 
L 101.387057 112.55871 
L 101.251303 112.548322 
L 101.116661 112.538149 
L 100.983111 112.528187 
L 100.850633 112.518431 
L 100.719207 112.508876 
L 100.588815 112.499519 
L 100.459437 112.490353 
L 100.331054 112.481375 
L 100.203649 112.472582 
L 100.077203 112.463967 
L 99.951699 112.455529 
L 99.827119 112.447262 
L 99.703446 112.439164 
L 99.580664 112.431229 
L 99.458756 112.423456 
L 99.337707 112.415841 
L 99.217499 112.408379 
L 99.098118 112.401069 
L 98.979549 112.393906 
L 98.861776 112.386888 
L 98.744784 112.380012 
L 98.628559 112.373275 
L 98.513087 112.366674 
L 98.398354 112.360206 
L 98.284345 112.35387 
L 98.171048 112.347661 
L 98.058448 112.341578 
L 97.946533 112.335618 
L 97.83529 112.329779 
L 97.724706 112.324059 
L 97.614768 112.318455 
L 97.505465 112.312966 
L 97.396783 112.307588 
L 97.288712 112.30232 
L 97.181239 112.297161 
L 97.074352 112.292107 
L 96.968041 112.287158 
L 96.862294 112.282311 
L 96.7571 112.277564 
L 96.652448 112.272917 
L 96.548328 112.268366 
L 96.444729 112.263911 
L 96.34164 112.25955 
L 96.239051 112.255281 
L 96.136952 112.251103 
L 96.035333 112.247014 
L 95.934185 112.243014 
L 95.833497 112.239099 
L 95.73326 112.23527 
L 95.633464 112.231525 
L 95.5341 112.227862 
L 95.43516 112.22428 
L 95.336633 112.220779 
L 95.238511 112.217356 
L 95.140786 112.214011 
L 95.043447 112.210743 
L 94.946487 112.207551 
L 94.849898 112.204433 
L 94.75367 112.201388 
L 94.657796 112.198416 
L 94.562267 112.195515 
L 94.467074 112.192686 
L 94.372211 112.189925 
L 94.277669 112.187234 
L 94.183441 112.184611 
L 94.089517 112.182054 
L 93.995892 112.179564 
L 93.902556 112.17714 
L 93.809503 112.17478 
L 93.716725 112.172485 
L 93.624215 112.170253 
L 93.531966 112.168083 
L 93.439969 112.165975 
L 93.348219 112.163929 
L 93.256707 112.161944 
L 93.165428 112.160018 
L 93.074373 112.158152 
L 92.983536 112.156345 
L 92.89291 112.154597 
L 92.802488 112.152906 
L 92.712264 112.151273 
L 92.62223 112.149697 
L 92.53238 112.148177 
L 92.442708 112.146713 
L 92.353207 112.145305 
L 92.26387 112.143951 
L 92.174691 112.142653 
L 92.085663 112.141409 
L 91.99678 112.140219 
L 91.908036 112.139082 
L 91.819424 112.137999 
L 91.730938 112.136969 
L 91.642571 112.135992 
L 91.554318 112.135067 
L 91.466173 112.134194 
L 91.378128 112.133373 
L 91.290178 112.132604 
L 91.202317 112.131886 
L 91.114539 112.131219 
L 91.026837 112.130604 
L 90.939205 112.130039 
L 90.851638 112.129525 
L 90.76413 112.129062 
L 90.676673 112.128649 
L 90.589263 112.128287 
L 90.501893 112.127974 
L 90.414558 112.127712 
L 90.327251 112.1275 
L 90.239966 112.127337 
L 90.152698 112.127225 
L 90.06544 112.127163 
L 89.978187 112.12715 
L 89.890932 112.127188 
L 89.80367 112.127275 
L 89.716394 112.127412 
L 89.629099 112.1276 
L 89.541778 112.127837 
L 89.454426 112.128124 
L 89.367037 112.128462 
L 89.279605 112.128849 
L 89.192123 112.129287 
L 89.104586 112.129776 
L 89.016987 112.130315 
L 88.929321 112.130905 
L 88.841582 112.131546 
L 88.753763 112.132239 
L 88.665858 112.132982 
L 88.577862 112.133777 
L 88.489767 112.134624 
L 88.401569 112.135523 
L 88.31326 112.136474 
L 88.224835 112.137478 
L 88.136286 112.138534 
L 88.047609 112.139644 
L 87.958796 112.140807 
L 87.869842 112.142024 
L 87.780739 112.143295 
L 87.691482 112.144621 
L 87.602063 112.146002 
L 87.512477 112.147438 
L 87.422717 112.14893 
L 87.332777 112.150478 
L 87.242648 112.152082 
L 87.152326 112.153744 
L 87.061803 112.155464 
L 86.971073 112.157241 
L 86.880127 112.159078 
L 86.788961 112.160973 
L 86.697566 112.162929 
L 86.605936 112.164945 
L 86.514064 112.167021 
L 86.421941 112.16916 
L 86.329563 112.171361 
L 86.23692 112.173625 
L 86.144005 112.175952 
L 86.050812 112.178344 
L 85.957332 112.180801 
L 85.863559 112.183324 
L 85.769484 112.185914 
L 85.675099 112.188571 
L 85.580398 112.191297 
L 85.485371 112.194092 
L 85.390011 112.196957 
L 85.294311 112.199893 
L 85.198261 112.202901 
L 85.101853 112.205982 
L 85.005079 112.209138 
L 84.907931 112.212368 
L 84.810401 112.215674 
L 84.712478 112.219058 
L 84.614155 112.222519 
L 84.515422 112.226061 
L 84.416271 112.229683 
L 84.316693 112.233387 
L 84.216678 112.237174 
L 84.116216 112.241046 
L 84.015299 112.245003 
L 83.913917 112.249048 
L 83.812059 112.253181 
L 83.709717 112.257404 
L 83.606879 112.261719 
L 83.503536 112.266127 
L 83.399677 112.27063 
L 83.295293 112.275228 
L 83.190371 112.279925 
L 83.084902 112.284722 
L 82.978875 112.28962 
L 82.872277 112.294621 
L 82.765099 112.299727 
L 82.657328 112.304941 
L 82.548953 112.310263 
L 82.439962 112.315696 
L 82.330343 112.321243 
L 82.220083 112.326905 
L 82.109171 112.332684 
L 81.997594 112.338583 
L 81.885338 112.344604 
L 81.772391 112.350749 
L 81.65874 112.357022 
L 81.544371 112.363424 
L 81.42927 112.369958 
L 81.313423 112.376626 
L 81.196817 112.383433 
L 81.079436 112.390379 
L 80.961267 112.397469 
L 80.842294 112.404705 
L 80.722501 112.412091 
L 80.601875 112.419629 
L 80.480398 112.427323 
L 80.358055 112.435176 
L 80.23483 112.443192 
L 80.110706 112.451374 
L 79.985666 112.459726 
L 79.859693 112.468252 
L 79.732769 112.476956 
L 79.604878 112.485841 
L 79.476 112.494912 
L 79.346117 112.504173 
L 79.21521 112.513629 
L 79.083261 112.523283 
L 78.95025 112.533142 
L 78.816156 112.543208 
L 78.68096 112.553489 
L 78.544642 112.563987 
L 78.407179 112.57471 
L 78.268552 112.585662 
L 78.128737 112.596849 
L 77.987714 112.608276 
L 77.845458 112.61995 
L 77.701948 112.631877 
L 77.55716 112.644062 
L 77.41107 112.656514 
L 77.263654 112.669238 
L 77.114886 112.682241 
L 76.964742 112.69553 
L 76.813196 112.709114 
L 76.660222 112.722999 
L 76.505792 112.737194 
L 76.349881 112.751706 
L 76.19246 112.766544 
L 76.0335 112.781718 
L 75.872974 112.797235 
L 75.710851 112.813105 
L 75.547103 112.829338 
L 75.381698 112.845943 
L 75.214606 112.862932 
L 75.045795 112.880314 
L 74.875234 112.898101 
L 74.70289 112.916303 
L 74.528728 112.934933 
L 74.352717 112.954003 
L 74.174821 112.973524 
L 73.995005 112.993512 
L 73.813235 113.013977 
L 73.629473 113.034936 
L 73.443683 113.056401 
L 73.255828 113.078388 
L 73.065869 113.100912 
L 72.873769 113.123989 
L 72.679488 113.147636 
L 72.482987 113.171869 
L 72.284225 113.196707 
L 72.083161 113.222168 
L 71.879754 113.24827 
L 71.673962 113.275034 
L 71.465743 113.302479 
L 71.255054 113.330628 
L 71.04185 113.3595 
L 70.826089 113.38912 
L 70.607726 113.419511 
L 70.386715 113.450697 
L 70.163013 113.482703 
L 69.936573 113.515556 
L 69.70735 113.549281 
L 69.475297 113.583909 
L 69.240369 113.619466 
L 69.002519 113.655985 
L 68.7617 113.693495 
L 68.517867 113.73203 
L 68.270973 113.771623 
L 68.020972 113.812308 
L 67.767818 113.854121 
L 67.511466 113.897101 
L 67.251871 113.941285 
L 66.988988 113.986714 
L 66.722775 114.03343 
L 66.453189 114.081475 
L 66.180188 114.130894 
L 65.903732 114.181733 
L 65.623783 114.23404 
L 65.340304 114.287864 
L 65.053259 114.343257 
L 64.762616 114.400273 
L 64.468345 114.458964 
L 64.170417 114.519389 
L 63.868809 114.581606 
L 63.563499 114.645676 
L 63.25447 114.711661 
L 62.941709 114.779625 
L 62.625206 114.849637 
L 62.304958 114.921763 
L 61.980967 114.996076 
L 61.65324 115.072648 
L 61.321793 115.151555 
L 60.986645 115.232873 
L 60.647827 115.316683 
L 60.305376 115.403065 
L 59.959337 115.492104 
L 59.609768 115.583886 
L 59.256735 115.678497 
L 58.900316 115.776028 
L 58.540601 115.87657 
L 58.177693 115.980216 
L 57.811709 116.087061 
L 57.44278 116.197202 
L 57.071054 116.310735 
L 56.696695 116.427759 
L 56.319884 116.548373 
L 55.940823 116.672677 
L 55.55973 116.800772 
L 55.176847 116.932756 
L 54.792436 117.06873 
L 54.406782 117.208791 
L 54.020195 117.353037 
L 53.633006 117.501563 
L 53.245574 117.654461 
L 52.858285 117.811821 
L 52.471549 117.973729 
L 52.085805 118.140265 
L 51.701518 118.311506 
L 51.319184 118.487523 
L 50.939324 118.668378 
L 50.562487 118.854126 
L 50.189252 119.044817 
L 49.820222 119.240485 
L 49.456027 119.44116 
L 49.097322 119.646855 
L 48.744784 119.857576 
L 48.399112 120.07331 
L 48.061025 120.294035 
L 47.731257 120.51971 
L 47.410555 120.75028 
L 47.099678 120.985672 
L 46.79939 121.225795 
L 46.510458 121.470543 
L 46.233647 121.719788 
L 45.969715 121.973384 
L 45.719408 122.231166 
L 45.483457 122.492951 
L 45.262568 122.758534 
L 45.057422 123.027693 
L 44.868667 123.300189 
L 44.696912 123.575763 
L 44.542722 123.85414 
L 44.406615 124.135031 
L 44.289054 124.418131 
L 44.190446 124.703123 
L 44.111137 124.989678 
L 44.051406 125.277459 
L 44.011466 125.566122 
L 43.99146 125.855315 
L 43.99146 126.144685 
L 44.011466 126.433878 
L 44.051406 126.722541 
L 44.111137 127.010322 
L 44.190446 127.296877 
L 44.289054 127.581869 
L 44.406615 127.864969 
L 44.542722 128.14586 
L 44.696912 128.424237 
L 44.868667 128.699811 
L 45.057422 128.972307 
L 45.262568 129.241466 
L 45.483457 129.507049 
L 45.719408 129.768834 
L 45.969715 130.026616 
L 46.233647 130.280212 
L 46.510458 130.529457 
L 46.79939 130.774205 
L 47.099678 131.014328 
L 47.410555 131.24972 
L 47.731257 131.48029 
L 48.061025 131.705965 
L 48.399112 131.92669 
L 48.744784 132.142424 
L 49.097322 132.353145 
L 49.456027 132.55884 
L 49.820222 132.759515 
L 50.189252 132.955183 
L 50.562487 133.145874 
L 50.939324 133.331622 
L 51.319184 133.512477 
L 51.701518 133.688494 
L 52.085805 133.859735 
L 52.471549 134.026271 
L 52.858285 134.188179 
L 53.245574 134.345539 
L 53.633006 134.498437 
L 54.020195 134.646963 
L 54.406782 134.791209 
L 54.792436 134.93127 
L 55.176847 135.067244 
L 55.55973 135.199228 
L 55.940823 135.327323 
L 56.319884 135.451627 
L 56.696695 135.572241 
L 57.071054 135.689265 
L 57.44278 135.802798 
L 57.811709 135.912939 
L 58.177693 136.019784 
L 58.540601 136.12343 
L 58.900316 136.223972 
L 59.256735 136.321503 
L 59.609768 136.416114 
L 59.959337 136.507896 
L 60.305376 136.596935 
L 60.647827 136.683317 
L 60.986645 136.767127 
L 61.321793 136.848445 
L 61.65324 136.927352 
L 61.980967 137.003924 
L 62.304958 137.078237 
L 62.625206 137.150363 
L 62.941709 137.220375 
L 63.25447 137.288339 
L 63.563499 137.354324 
L 63.868809 137.418394 
L 64.170417 137.480611 
L 64.468345 137.541036 
L 64.762616 137.599727 
L 65.053259 137.656743 
L 65.340304 137.712136 
L 65.623783 137.76596 
L 65.903732 137.818267 
L 66.180188 137.869106 
L 66.453189 137.918525 
L 66.722775 137.96657 
L 66.988988 138.013286 
L 67.251871 138.058715 
L 67.511466 138.102899 
L 67.767818 138.145879 
L 68.020972 138.187692 
L 68.270973 138.228377 
L 68.517867 138.26797 
L 68.7617 138.306505 
L 69.002519 138.344015 
L 69.240369 138.380534 
L 69.475297 138.416091 
L 69.70735 138.450719 
L 69.936573 138.484444 
L 70.163013 138.517297 
L 70.386715 138.549303 
L 70.607726 138.580489 
L 70.826089 138.61088 
L 71.04185 138.6405 
L 71.255054 138.669372 
L 71.465743 138.697521 
L 71.673962 138.724966 
L 71.879754 138.75173 
L 72.083161 138.777832 
L 72.284225 138.803293 
L 72.482987 138.828131 
L 72.679488 138.852364 
L 72.873769 138.876011 
L 73.065869 138.899088 
L 73.255828 138.921612 
L 73.443683 138.943599 
L 73.629473 138.965064 
L 73.813235 138.986023 
L 73.995005 139.006488 
L 74.174821 139.026476 
L 74.352717 139.045997 
L 74.528728 139.065067 
L 74.70289 139.083697 
L 74.875234 139.101899 
L 75.045795 139.119686 
L 75.214606 139.137068 
L 75.381698 139.154057 
L 75.547103 139.170662 
L 75.710851 139.186895 
L 75.872974 139.202765 
L 76.0335 139.218282 
L 76.19246 139.233456 
L 76.349881 139.248294 
L 76.505792 139.262806 
L 76.660222 139.277001 
L 76.813196 139.290886 
L 76.964742 139.30447 
L 77.114886 139.317759 
L 77.263654 139.330762 
L 77.41107 139.343486 
L 77.55716 139.355938 
L 77.701948 139.368123 
L 77.845458 139.38005 
L 77.987714 139.391724 
L 78.128737 139.403151 
L 78.268552 139.414338 
L 78.407179 139.42529 
L 78.544642 139.436013 
L 78.68096 139.446511 
L 78.816156 139.456792 
L 78.95025 139.466858 
L 79.083261 139.476717 
L 79.21521 139.486371 
L 79.346117 139.495827 
L 79.476 139.505088 
L 79.604878 139.514159 
L 79.732769 139.523044 
L 79.859693 139.531748 
L 79.985666 139.540274 
L 80.110706 139.548626 
L 80.23483 139.556808 
L 80.358055 139.564824 
L 80.480398 139.572677 
L 80.601875 139.580371 
L 80.722501 139.587909 
L 80.842294 139.595295 
L 80.961267 139.602531 
L 81.079436 139.609621 
L 81.196817 139.616567 
L 81.313423 139.623374 
L 81.42927 139.630042 
L 81.544371 139.636576 
L 81.65874 139.642978 
L 81.772391 139.649251 
L 81.885338 139.655396 
L 81.997594 139.661417 
L 82.109171 139.667316 
L 82.220083 139.673095 
L 82.330343 139.678757 
L 82.439962 139.684304 
L 82.548953 139.689737 
L 82.657328 139.695059 
L 82.765099 139.700273 
L 82.872277 139.705379 
L 82.978875 139.71038 
L 83.084902 139.715278 
L 83.190371 139.720075 
L 83.295293 139.724772 
L 83.399677 139.72937 
L 83.503536 139.733873 
L 83.606879 139.738281 
L 83.709717 139.742596 
L 83.812059 139.746819 
L 83.913917 139.750952 
L 84.015299 139.754997 
L 84.116216 139.758954 
L 84.216678 139.762826 
L 84.316693 139.766613 
L 84.416271 139.770317 
L 84.515422 139.773939 
L 84.614155 139.777481 
L 84.712478 139.780942 
L 84.810401 139.784326 
L 84.907931 139.787632 
L 85.005079 139.790862 
L 85.101853 139.794018 
L 85.198261 139.797099 
L 85.294311 139.800107 
L 85.390011 139.803043 
L 85.485371 139.805908 
L 85.580398 139.808703 
L 85.675099 139.811429 
L 85.769484 139.814086 
L 85.863559 139.816676 
L 85.957332 139.819199 
L 86.050812 139.821656 
L 86.144005 139.824048 
L 86.23692 139.826375 
L 86.329563 139.828639 
L 86.421941 139.83084 
L 86.514064 139.832979 
L 86.605936 139.835055 
L 86.697566 139.837071 
L 86.788961 139.839027 
L 86.880127 139.840922 
L 86.971073 139.842759 
L 87.061803 139.844536 
L 87.152326 139.846256 
L 87.242648 139.847918 
L 87.332777 139.849522 
L 87.422717 139.85107 
L 87.512477 139.852562 
L 87.602063 139.853998 
L 87.691482 139.855379 
L 87.780739 139.856705 
L 87.869842 139.857976 
L 87.958796 139.859193 
L 88.047609 139.860356 
L 88.136286 139.861466 
L 88.224835 139.862522 
L 88.31326 139.863526 
L 88.401569 139.864477 
L 88.489767 139.865376 
L 88.577862 139.866223 
L 88.665858 139.867018 
L 88.753763 139.867761 
L 88.841582 139.868454 
L 88.929321 139.869095 
L 89.016987 139.869685 
L 89.104586 139.870224 
L 89.192123 139.870713 
L 89.279605 139.871151 
L 89.367037 139.871538 
L 89.454426 139.871876 
L 89.541778 139.872163 
L 89.629099 139.8724 
L 89.716394 139.872588 
L 89.80367 139.872725 
L 89.890932 139.872812 
L 89.978187 139.87285 
L 90.06544 139.872837 
L 90.152698 139.872775 
L 90.239966 139.872663 
L 90.327251 139.8725 
L 90.414558 139.872288 
L 90.501893 139.872026 
L 90.589263 139.871713 
L 90.676673 139.871351 
L 90.76413 139.870938 
L 90.851638 139.870475 
L 90.939205 139.869961 
L 91.026837 139.869396 
L 91.114539 139.868781 
L 91.202317 139.868114 
L 91.290178 139.867396 
L 91.378128 139.866627 
L 91.466173 139.865806 
L 91.554318 139.864933 
L 91.642571 139.864008 
L 91.730938 139.863031 
L 91.819424 139.862001 
L 91.908036 139.860918 
L 91.99678 139.859781 
L 92.085663 139.858591 
L 92.174691 139.857347 
L 92.26387 139.856049 
L 92.353207 139.854695 
L 92.442708 139.853287 
L 92.53238 139.851823 
L 92.62223 139.850303 
L 92.712264 139.848727 
L 92.802488 139.847094 
L 92.89291 139.845403 
L 92.983536 139.843655 
L 93.074373 139.841848 
L 93.165428 139.839982 
L 93.256707 139.838056 
L 93.348219 139.836071 
L 93.439969 139.834025 
L 93.531966 139.831917 
L 93.624215 139.829747 
L 93.716725 139.827515 
L 93.809503 139.82522 
L 93.902556 139.82286 
L 93.995892 139.820436 
L 94.089517 139.817946 
L 94.183441 139.815389 
L 94.277669 139.812766 
L 94.372211 139.810075 
L 94.467074 139.807314 
L 94.562267 139.804485 
L 94.657796 139.801584 
L 94.75367 139.798612 
L 94.849898 139.795567 
L 94.946487 139.792449 
L 95.043447 139.789257 
L 95.140786 139.785989 
L 95.238511 139.782644 
L 95.336633 139.779221 
L 95.43516 139.77572 
L 95.5341 139.772138 
L 95.633464 139.768475 
L 95.73326 139.76473 
L 95.833497 139.760901 
L 95.934185 139.756986 
L 96.035333 139.752986 
L 96.136952 139.748897 
L 96.239051 139.744719 
L 96.34164 139.74045 
L 96.444729 139.736089 
L 96.548328 139.731634 
L 96.652448 139.727083 
L 96.7571 139.722436 
L 96.862294 139.717689 
L 96.968041 139.712842 
L 97.074352 139.707893 
L 97.181239 139.702839 
L 97.288712 139.69768 
L 97.396783 139.692412 
L 97.505465 139.687034 
L 97.614768 139.681545 
L 97.724706 139.675941 
L 97.83529 139.670221 
L 97.946533 139.664382 
L 98.058448 139.658422 
L 98.171048 139.652339 
L 98.284345 139.64613 
L 98.398354 139.639794 
L 98.513087 139.633326 
L 98.628559 139.626725 
L 98.744784 139.619988 
L 98.861776 139.613112 
L 98.979549 139.606094 
L 99.098118 139.598931 
L 99.217499 139.591621 
L 99.337707 139.584159 
L 99.458756 139.576544 
L 99.580664 139.568771 
L 99.703446 139.560836 
L 99.827119 139.552738 
L 99.951699 139.544471 
L 100.077203 139.536033 
L 100.203649 139.527418 
L 100.331054 139.518625 
L 100.459437 139.509647 
L 100.588815 139.500481 
L 100.719207 139.491124 
L 100.850633 139.481569 
L 100.983111 139.471813 
L 101.116661 139.461851 
L 101.251303 139.451678 
L 101.387057 139.44129 
L 101.523945 139.43068 
L 101.661987 139.419843 
L 101.801206 139.408774 
L 101.941622 139.397468 
L 102.083259 139.385918 
L 102.226138 139.374119 
L 102.370284 139.362063 
L 102.515721 139.349745 
L 102.662471 139.337159 
L 102.81056 139.324296 
L 102.960012 139.311151 
L 103.110854 139.297715 
L 103.263111 139.283982 
L 103.416809 139.269943 
L 103.571976 139.25559 
L 103.728639 139.240916 
L 103.886826 139.225911 
L 104.046565 139.210567 
L 104.207886 139.194875 
L 104.370818 139.178825 
L 104.535391 139.162407 
L 104.701635 139.145611 
L 104.869582 139.128427 
L 105.039264 139.110844 
L 105.210713 139.092851 
L 105.383962 139.074436 
L 105.559044 139.055588 
L 105.735993 139.036294 
L 105.914845 139.016541 
L 106.095633 138.996316 
L 106.278395 138.975606 
L 106.463166 138.954396 
L 106.649984 138.932672 
L 106.838886 138.910418 
L 107.02991 138.88762 
L 107.223096 138.86426 
L 107.418482 138.840322 
L 107.616109 138.815788 
L 107.816017 138.790641 
L 108.018247 138.764862 
L 108.222841 138.738432 
L 108.429841 138.71133 
L 108.63929 138.683536 
L 108.851231 138.655028 
L 109.065708 138.625785 
L 109.282765 138.595782 
L 109.502446 138.564997 
L 109.724796 138.533404 
L 109.949862 138.500978 
L 110.177688 138.467692 
L 110.40832 138.433519 
L 110.641805 138.398431 
L 110.878188 138.362396 
L 111.117517 138.325386 
L 111.359837 138.287367 
L 111.605195 138.248308 
L 111.853636 138.208174 
L 112.105208 138.166929 
L 112.359955 138.124537 
L 112.617923 138.08096 
L 112.879157 138.036158 
L 113.143699 137.990091 
L 113.411594 137.942717 
L 113.682882 137.89399 
L 113.957606 137.843867 
L 114.235803 137.7923 
L 114.517513 137.739241 
L 114.802771 137.684639 
L 115.091611 137.628441 
L 115.384064 137.570595 
L 115.68016 137.511044 
L 115.979925 137.44973 
L 116.283382 137.386594 
L 116.590549 137.321575 
L 116.901443 137.254609 
L 117.216075 137.185629 
L 117.53445 137.114569 
L 117.85657 137.041358 
L 118.18243 136.965925 
L 118.512019 136.888195 
L 118.84532 136.808093 
L 119.182307 136.725539 
L 119.522947 136.640453 
L 119.867199 136.552753 
L 120.21501 136.462353 
L 120.56632 136.369168 
L 120.921056 136.273108 
L 121.279136 136.174083 
L 121.640461 136.072001 
L 122.004923 135.966767 
L 122.372396 135.858287 
L 122.742743 135.746462 
L 123.115807 135.631196 
L 123.491416 135.512389 
L 123.869378 135.389942 
L 124.249484 135.263755 
L 124.631504 135.133728 
L 125.015185 134.999762 
L 125.400254 134.861756 
L 125.786415 134.719615 
L 126.173347 134.573241 
L 126.560703 134.42254 
L 126.948113 134.267422 
L 127.335179 134.107799 
L 127.721476 133.943587 
L 128.106551 133.774707 
L 128.489925 133.601087 
L 128.871089 133.422658 
L 129.249508 133.239363 
L 129.624618 133.051149 
L 129.995827 132.857973 
L 130.36252 132.659804 
L 130.724054 132.456621 
L 131.079761 132.248412 
L 131.428955 132.035183 
L 131.770925 131.816949 
L 132.104945 131.593743 
L 132.430275 131.365613 
L 132.746159 131.132622 
L 133.051837 130.894852 
L 133.346543 130.652401 
L 133.62951 130.405388 
L 133.899976 130.153948 
L 134.157188 129.898237 
L 134.400407 129.63843 
L 134.628914 129.374719 
L 134.842014 129.107319 
L 135.039043 128.83646 
L 135.219372 128.562392 
L 135.382412 128.285381 
L 135.527622 128.00571 
L 135.654511 127.723676 
L 135.762642 127.439589 
L 135.85164 127.153774 
L 135.921191 126.866563 
L 135.971048 126.578298 
L 136.001035 126.289326 
L 136.011042 126 
z
" clip-path="url(#p8f825fdd0b)" style="fill: #8500ff; stroke: #8500ff"/>
   </g>
   <g id="line2d_1">
    <path d="M 136.011042 126 
L 135.921191 125.133437 
L 135.654511 124.276324 
L 135.039043 123.16354 
L 134.157188 122.101763 
L 133.051837 121.105148 
L 131.428955 119.964817 
L 129.249508 118.760637 
L 126.560703 117.57746 
L 123.491416 116.487611 
L 119.867199 115.447247 
L 115.68016 114.488956 
L 111.117517 113.674614 
L 106.095633 113.003684 
L 100.719207 112.508876 
L 95.043447 112.210743 
L 89.279605 112.128849 
L 83.503536 112.266127 
L 77.845458 112.61995 
L 72.482987 113.171869 
L 67.511466 113.897101 
L 62.941709 114.779625 
L 58.900316 115.776028 
L 55.55973 116.800772 
L 52.471549 117.973729 
L 50.189252 119.044817 
L 48.061025 120.294035 
L 46.510458 121.470543 
L 45.483457 122.492951 
L 44.696912 123.575763 
L 44.190446 124.703123 
L 44.011466 125.566122 
L 44.011466 126.433878 
L 44.190446 127.296877 
L 44.696912 128.424237 
L 45.483457 129.507049 
L 46.510458 130.529457 
L 48.061025 131.705965 
L 49.820222 132.759515 
L 52.085805 133.859735 
L 54.792436 134.93127 
L 58.177693 136.019784 
L 61.980967 137.003924 
L 66.453189 137.918525 
L 71.255054 138.669372 
L 76.505792 139.262806 
L 82.109171 139.667316 
L 87.869842 139.857976 
L 93.716725 139.827515 
L 99.458756 139.576544 
L 105.039264 139.110844 
L 110.177688 138.467692 
L 115.091611 137.628441 
L 119.522947 136.640453 
L 123.115807 135.631196 
L 126.173347 134.573241 
L 128.871089 133.422658 
L 131.079761 132.248412 
L 132.746159 131.132622 
L 134.157188 129.898237 
L 135.039043 128.83646 
L 135.654511 127.723676 
L 135.921191 126.866563 
L 136.011042 126 
L 136.011042 126 
" clip-path="url(#p8f825fdd0b)" style="fill: none; stroke: #8500ff; stroke-width: 3; stroke-linecap: round"/>
   </g>
  </g>
 </g>
 <defs>
  <clipPath id="p8f825fdd0b">
   <rect x="0" y="0" width="180" height="252"/>
  </clipPath>
 </defs>
</svg>
