<?xml version="1.0" encoding="utf-8" standalone="no"?>
<!DOCTYPE svg PUBLIC "-//W3C//DTD SVG 1.1//EN"
  "http://www.w3.org/Graphics/SVG/1.1/DTD/svg11.dtd">
<svg xmlns:xlink="http://www.w3.org/1999/xlink" width="180pt" height="252pt" viewBox="0 0 180 252" xmlns="http://www.w3.org/2000/svg" version="1.1">
 <metadata>
  <rdf:RDF xmlns:dc="http://purl.org/dc/elements/1.1/" xmlns:cc="http://creativecommons.org/ns#" xmlns:rdf="http://www.w3.org/1999/02/22-rdf-syntax-ns#">
   <cc:Work>
    <dc:type rdf:resource="http://purl.org/dc/dcmitype/StillImage"/>
    <dc:date>2024-11-22T00:56:02.539582</dc:date>
    <dc:format>image/svg+xml</dc:format>
    <dc:creator>
     <cc:Agent>
      <dc:title>Matplotlib v3.9.2, https://matplotlib.org/</dc:title>
     </cc:Agent>
    </dc:creator>
   </cc:Work>
  </rdf:RDF>
 </metadata>
 <defs>
  <style type="text/css">*{stroke-linejoin: round; stroke-linecap: butt}</style>
 </defs>
 <g id="figure_1">
  <g id="patch_1">
   <path d="M 0 252 
L 180 252 
L 180 0 
L 0 0 
z
" style="fill: #ffffff"/>
  </g>
  <g id="axes_1">
   <g id="patch_2">
    <path d="M 136.011042 180 
L 136.001035 179.710674 
L 135.971048 179.421702 
L 135.921191 179.133437 
L 135.85164 178.846226 
L 135.762642 178.560411 
L 135.654511 178.276324 
L 135.527622 177.99429 
L 135.382412 177.714619 
L 135.219372 177.437608 
L 135.039043 177.16354 
L 134.842014 176.892681 
L 134.628914 176.625281 
L 134.400407 176.36157 
L 134.157188 176.101763 
L 133.899976 175.846052 
L 133.62951 175.594612 
L 133.346543 175.347599 
L 133.051837 175.105148 
L 132.746159 174.867378 
L 132.430275 174.634387 
L 132.104945 174.406257 
L 131.770925 174.183051 
L 131.428955 173.964817 
L 131.079761 173.751588 
L 130.724054 173.543379 
L 130.36252 173.340196 
L 129.995827 173.142027 
L 129.624618 172.948851 
L 129.249508 172.760637 
L 128.871089 172.577342 
L 128.489925 172.398913 
L 128.106551 172.225293 
L 127.721476 172.056413 
L 127.335179 171.892201 
L 126.948113 171.732578 
L 126.560703 171.57746 
L 126.173347 171.426759 
L 125.786415 171.280385 
L 125.400254 171.138244 
L 125.015185 171.000238 
L 124.631504 170.866272 
L 124.249484 170.736245 
L 123.869378 170.610058 
L 123.491416 170.487611 
L 123.115807 170.368804 
L 122.742743 170.253538 
L 122.372396 170.141713 
L 122.004923 170.033233 
L 121.640461 169.927999 
L 121.279136 169.825917 
L 120.921056 169.726892 
L 120.56632 169.630832 
L 120.21501 169.537647 
L 119.867199 169.447247 
L 119.522947 169.359547 
L 119.182307 169.274461 
L 118.84532 169.191907 
L 118.512019 169.111805 
L 118.18243 169.034075 
L 117.85657 168.958642 
L 117.53445 168.885431 
L 117.216075 168.814371 
L 116.901443 168.745391 
L 116.590549 168.678425 
L 116.283382 168.613406 
L 115.979925 168.55027 
L 115.68016 168.488956 
L 115.384064 168.429405 
L 115.091611 168.371559 
L 114.802771 168.315361 
L 114.517513 168.260759 
L 114.235803 168.2077 
L 113.957606 168.156133 
L 113.682882 168.10601 
L 113.411594 168.057283 
L 113.143699 168.009909 
L 112.879157 167.963842 
L 112.617923 167.91904 
L 112.359955 167.875463 
L 112.105208 167.833071 
L 111.853636 167.791826 
L 111.605195 167.751692 
L 111.359837 167.712633 
L 111.117517 167.674614 
L 110.878188 167.637604 
L 110.641805 167.601569 
L 110.40832 167.566481 
L 110.177688 167.532308 
L 109.949862 167.499022 
L 109.724796 167.466596 
L 109.502446 167.435003 
L 109.282765 167.404218 
L 109.065708 167.374215 
L 108.851231 167.344972 
L 108.63929 167.316464 
L 108.429841 167.28867 
L 108.222841 167.261568 
L 108.018247 167.235138 
L 107.816017 167.209359 
L 107.616109 167.184212 
L 107.418482 167.159678 
L 107.223096 167.13574 
L 107.02991 167.11238 
L 106.838886 167.089582 
L 106.649984 167.067328 
L 106.463166 167.045604 
L 106.278395 167.024394 
L 106.095633 167.003684 
L 105.914845 166.983459 
L 105.735993 166.963706 
L 105.559044 166.944412 
L 105.383962 166.925564 
L 105.210713 166.907149 
L 105.039264 166.889156 
L 104.869582 166.871573 
L 104.701635 166.854389 
L 104.535391 166.837593 
L 104.370818 166.821175 
L 104.207886 166.805125 
L 104.046565 166.789433 
L 103.886826 166.774089 
L 103.728639 166.759084 
L 103.571976 166.74441 
L 103.416809 166.730057 
L 103.263111 166.716018 
L 103.110854 166.702285 
L 102.960012 166.688849 
L 102.81056 166.675704 
L 102.662471 166.662841 
L 102.515721 166.650255 
L 102.370284 166.637937 
L 102.226138 166.625881 
L 102.083259 166.614082 
L 101.941622 166.602532 
L 101.801206 166.591226 
L 101.661987 166.580157 
L 101.523945 166.56932 
L 101.387057 166.55871 
L 101.251303 166.548322 
L 101.116661 166.538149 
L 100.983111 166.528187 
L 100.850633 166.518431 
L 100.719207 166.508876 
L 100.588815 166.499519 
L 100.459437 166.490353 
L 100.331054 166.481375 
L 100.203649 166.472582 
L 100.077203 166.463967 
L 99.951699 166.455529 
L 99.827119 166.447262 
L 99.703446 166.439164 
L 99.580664 166.431229 
L 99.458756 166.423456 
L 99.337707 166.415841 
L 99.217499 166.408379 
L 99.098118 166.401069 
L 98.979549 166.393906 
L 98.861776 166.386888 
L 98.744784 166.380012 
L 98.628559 166.373275 
L 98.513087 166.366674 
L 98.398354 166.360206 
L 98.284345 166.35387 
L 98.171048 166.347661 
L 98.058448 166.341578 
L 97.946533 166.335618 
L 97.83529 166.329779 
L 97.724706 166.324059 
L 97.614768 166.318455 
L 97.505465 166.312966 
L 97.396783 166.307588 
L 97.288712 166.30232 
L 97.181239 166.297161 
L 97.074352 166.292107 
L 96.968041 166.287158 
L 96.862294 166.282311 
L 96.7571 166.277564 
L 96.652448 166.272917 
L 96.548328 166.268366 
L 96.444729 166.263911 
L 96.34164 166.25955 
L 96.239051 166.255281 
L 96.136952 166.251103 
L 96.035333 166.247014 
L 95.934185 166.243014 
L 95.833497 166.239099 
L 95.73326 166.23527 
L 95.633464 166.231525 
L 95.5341 166.227862 
L 95.43516 166.22428 
L 95.336633 166.220779 
L 95.238511 166.217356 
L 95.140786 166.214011 
L 95.043447 166.210743 
L 94.946487 166.207551 
L 94.849898 166.204433 
L 94.75367 166.201388 
L 94.657796 166.198416 
L 94.562267 166.195515 
L 94.467074 166.192686 
L 94.372211 166.189925 
L 94.277669 166.187234 
L 94.183441 166.184611 
L 94.089517 166.182054 
L 93.995892 166.179564 
L 93.902556 166.17714 
L 93.809503 166.17478 
L 93.716725 166.172485 
L 93.624215 166.170253 
L 93.531966 166.168083 
L 93.439969 166.165975 
L 93.348219 166.163929 
L 93.256707 166.161944 
L 93.165428 166.160018 
L 93.074373 166.158152 
L 92.983536 166.156345 
L 92.89291 166.154597 
L 92.802488 166.152906 
L 92.712264 166.151273 
L 92.62223 166.149697 
L 92.53238 166.148177 
L 92.442708 166.146713 
L 92.353207 166.145305 
L 92.26387 166.143951 
L 92.174691 166.142653 
L 92.085663 166.141409 
L 91.99678 166.140219 
L 91.908036 166.139082 
L 91.819424 166.137999 
L 91.730938 166.136969 
L 91.642571 166.135992 
L 91.554318 166.135067 
L 91.466173 166.134194 
L 91.378128 166.133373 
L 91.290178 166.132604 
L 91.202317 166.131886 
L 91.114539 166.131219 
L 91.026837 166.130604 
L 90.939205 166.130039 
L 90.851638 166.129525 
L 90.76413 166.129062 
L 90.676673 166.128649 
L 90.589263 166.128287 
L 90.501893 166.127974 
L 90.414558 166.127712 
L 90.327251 166.1275 
L 90.239966 166.127337 
L 90.152698 166.127225 
L 90.06544 166.127163 
L 89.978187 166.12715 
L 89.890932 166.127188 
L 89.80367 166.127275 
L 89.716394 166.127412 
L 89.629099 166.1276 
L 89.541778 166.127837 
L 89.454426 166.128124 
L 89.367037 166.128462 
L 89.279605 166.128849 
L 89.192123 166.129287 
L 89.104586 166.129776 
L 89.016987 166.130315 
L 88.929321 166.130905 
L 88.841582 166.131546 
L 88.753763 166.132239 
L 88.665858 166.132982 
L 88.577862 166.133777 
L 88.489767 166.134624 
L 88.401569 166.135523 
L 88.31326 166.136474 
L 88.224835 166.137478 
L 88.136286 166.138534 
L 88.047609 166.139644 
L 87.958796 166.140807 
L 87.869842 166.142024 
L 87.780739 166.143295 
L 87.691482 166.144621 
L 87.602063 166.146002 
L 87.512477 166.147438 
L 87.422717 166.14893 
L 87.332777 166.150478 
L 87.242648 166.152082 
L 87.152326 166.153744 
L 87.061803 166.155464 
L 86.971073 166.157241 
L 86.880127 166.159078 
L 86.788961 166.160973 
L 86.697566 166.162929 
L 86.605936 166.164945 
L 86.514064 166.167021 
L 86.421941 166.16916 
L 86.329563 166.171361 
L 86.23692 166.173625 
L 86.144005 166.175952 
L 86.050812 166.178344 
L 85.957332 166.180801 
L 85.863559 166.183324 
L 85.769484 166.185914 
L 85.675099 166.188571 
L 85.580398 166.191297 
L 85.485371 166.194092 
L 85.390011 166.196957 
L 85.294311 166.199893 
L 85.198261 166.202901 
L 85.101853 166.205982 
L 85.005079 166.209138 
L 84.907931 166.212368 
L 84.810401 166.215674 
L 84.712478 166.219058 
L 84.614155 166.222519 
L 84.515422 166.226061 
L 84.416271 166.229683 
L 84.316693 166.233387 
L 84.216678 166.237174 
L 84.116216 166.241046 
L 84.015299 166.245003 
L 83.913917 166.249048 
L 83.812059 166.253181 
L 83.709717 166.257404 
L 83.606879 166.261719 
L 83.503536 166.266127 
L 83.399677 166.27063 
L 83.295293 166.275228 
L 83.190371 166.279925 
L 83.084902 166.284722 
L 82.978875 166.28962 
L 82.872277 166.294621 
L 82.765099 166.299727 
L 82.657328 166.304941 
L 82.548953 166.310263 
L 82.439962 166.315696 
L 82.330343 166.321243 
L 82.220083 166.326905 
L 82.109171 166.332684 
L 81.997594 166.338583 
L 81.885338 166.344604 
L 81.772391 166.350749 
L 81.65874 166.357022 
L 81.544371 166.363424 
L 81.42927 166.369958 
L 81.313423 166.376626 
L 81.196817 166.383433 
L 81.079436 166.390379 
L 80.961267 166.397469 
L 80.842294 166.404705 
L 80.722501 166.412091 
L 80.601875 166.419629 
L 80.480398 166.427323 
L 80.358055 166.435176 
L 80.23483 166.443192 
L 80.110706 166.451374 
L 79.985666 166.459726 
L 79.859693 166.468252 
L 79.732769 166.476956 
L 79.604878 166.485841 
L 79.476 166.494912 
L 79.346117 166.504173 
L 79.21521 166.513629 
L 79.083261 166.523283 
L 78.95025 166.533142 
L 78.816156 166.543208 
L 78.68096 166.553489 
L 78.544642 166.563987 
L 78.407179 166.57471 
L 78.268552 166.585662 
L 78.128737 166.596849 
L 77.987714 166.608276 
L 77.845458 166.61995 
L 77.701948 166.631877 
L 77.55716 166.644062 
L 77.41107 166.656514 
L 77.263654 166.669238 
L 77.114886 166.682241 
L 76.964742 166.69553 
L 76.813196 166.709114 
L 76.660222 166.722999 
L 76.505792 166.737194 
L 76.349881 166.751706 
L 76.19246 166.766544 
L 76.0335 166.781718 
L 75.872974 166.797235 
L 75.710851 166.813105 
L 75.547103 166.829338 
L 75.381698 166.845943 
L 75.214606 166.862932 
L 75.045795 166.880314 
L 74.875234 166.898101 
L 74.70289 166.916303 
L 74.528728 166.934933 
L 74.352717 166.954003 
L 74.174821 166.973524 
L 73.995005 166.993512 
L 73.813235 167.013977 
L 73.629473 167.034936 
L 73.443683 167.056401 
L 73.255828 167.078388 
L 73.065869 167.100912 
L 72.873769 167.123989 
L 72.679488 167.147636 
L 72.482987 167.171869 
L 72.284225 167.196707 
L 72.083161 167.222168 
L 71.879754 167.24827 
L 71.673962 167.275034 
L 71.465743 167.302479 
L 71.255054 167.330628 
L 71.04185 167.3595 
L 70.826089 167.38912 
L 70.607726 167.419511 
L 70.386715 167.450697 
L 70.163013 167.482703 
L 69.936573 167.515556 
L 69.70735 167.549281 
L 69.475297 167.583909 
L 69.240369 167.619466 
L 69.002519 167.655985 
L 68.7617 167.693495 
L 68.517867 167.73203 
L 68.270973 167.771623 
L 68.020972 167.812308 
L 67.767818 167.854121 
L 67.511466 167.897101 
L 67.251871 167.941285 
L 66.988988 167.986714 
L 66.722775 168.03343 
L 66.453189 168.081475 
L 66.180188 168.130894 
L 65.903732 168.181733 
L 65.623783 168.23404 
L 65.340304 168.287864 
L 65.053259 168.343257 
L 64.762616 168.400273 
L 64.468345 168.458964 
L 64.170417 168.519389 
L 63.868809 168.581606 
L 63.563499 168.645676 
L 63.25447 168.711661 
L 62.941709 168.779625 
L 62.625206 168.849637 
L 62.304958 168.921763 
L 61.980967 168.996076 
L 61.65324 169.072648 
L 61.321793 169.151555 
L 60.986645 169.232873 
L 60.647827 169.316683 
L 60.305376 169.403065 
L 59.959337 169.492104 
L 59.609768 169.583886 
L 59.256735 169.678497 
L 58.900316 169.776028 
L 58.540601 169.87657 
L 58.177693 169.980216 
L 57.811709 170.087061 
L 57.44278 170.197202 
L 57.071054 170.310735 
L 56.696695 170.427759 
L 56.319884 170.548373 
L 55.940823 170.672677 
L 55.55973 170.800772 
L 55.176847 170.932756 
L 54.792436 171.06873 
L 54.406782 171.208791 
L 54.020195 171.353037 
L 53.633006 171.501563 
L 53.245574 171.654461 
L 52.858285 171.811821 
L 52.471549 171.973729 
L 52.085805 172.140265 
L 51.701518 172.311506 
L 51.319184 172.487523 
L 50.939324 172.668378 
L 50.562487 172.854126 
L 50.189252 173.044817 
L 49.820222 173.240485 
L 49.456027 173.44116 
L 49.097322 173.646855 
L 48.744784 173.857576 
L 48.399112 174.07331 
L 48.061025 174.294035 
L 47.731257 174.51971 
L 47.410555 174.75028 
L 47.099678 174.985672 
L 46.79939 175.225795 
L 46.510458 175.470543 
L 46.233647 175.719788 
L 45.969715 175.973384 
L 45.719408 176.231166 
L 45.483457 176.492951 
L 45.262568 176.758534 
L 45.057422 177.027693 
L 44.868667 177.300189 
L 44.696912 177.575763 
L 44.542722 177.85414 
L 44.406615 178.135031 
L 44.289054 178.418131 
L 44.190446 178.703123 
L 44.111137 178.989678 
L 44.051406 179.277459 
L 44.011466 179.566122 
L 43.99146 179.855315 
L 43.99146 180.144685 
L 44.011466 180.433878 
L 44.051406 180.722541 
L 44.111137 181.010322 
L 44.190446 181.296877 
L 44.289054 181.581869 
L 44.406615 181.864969 
L 44.542722 182.14586 
L 44.696912 182.424237 
L 44.868667 182.699811 
L 45.057422 182.972307 
L 45.262568 183.241466 
L 45.483457 183.507049 
L 45.719408 183.768834 
L 45.969715 184.026616 
L 46.233647 184.280212 
L 46.510458 184.529457 
L 46.79939 184.774205 
L 47.099678 185.014328 
L 47.410555 185.24972 
L 47.731257 185.48029 
L 48.061025 185.705965 
L 48.399112 185.92669 
L 48.744784 186.142424 
L 49.097322 186.353145 
L 49.456027 186.55884 
L 49.820222 186.759515 
L 50.189252 186.955183 
L 50.562487 187.145874 
L 50.939324 187.331622 
L 51.319184 187.512477 
L 51.701518 187.688494 
L 52.085805 187.859735 
L 52.471549 188.026271 
L 52.858285 188.188179 
L 53.245574 188.345539 
L 53.633006 188.498437 
L 54.020195 188.646963 
L 54.406782 188.791209 
L 54.792436 188.93127 
L 55.176847 189.067244 
L 55.55973 189.199228 
L 55.940823 189.327323 
L 56.319884 189.451627 
L 56.696695 189.572241 
L 57.071054 189.689265 
L 57.44278 189.802798 
L 57.811709 189.912939 
L 58.177693 190.019784 
L 58.540601 190.12343 
L 58.900316 190.223972 
L 59.256735 190.321503 
L 59.609768 190.416114 
L 59.959337 190.507896 
L 60.305376 190.596935 
L 60.647827 190.683317 
L 60.986645 190.767127 
L 61.321793 190.848445 
L 61.65324 190.927352 
L 61.980967 191.003924 
L 62.304958 191.078237 
L 62.625206 191.150363 
L 62.941709 191.220375 
L 63.25447 191.288339 
L 63.563499 191.354324 
L 63.868809 191.418394 
L 64.170417 191.480611 
L 64.468345 191.541036 
L 64.762616 191.599727 
L 65.053259 191.656743 
L 65.340304 191.712136 
L 65.623783 191.76596 
L 65.903732 191.818267 
L 66.180188 191.869106 
L 66.453189 191.918525 
L 66.722775 191.96657 
L 66.988988 192.013286 
L 67.251871 192.058715 
L 67.511466 192.102899 
L 67.767818 192.145879 
L 68.020972 192.187692 
L 68.270973 192.228377 
L 68.517867 192.26797 
L 68.7617 192.306505 
L 69.002519 192.344015 
L 69.240369 192.380534 
L 69.475297 192.416091 
L 69.70735 192.450719 
L 69.936573 192.484444 
L 70.163013 192.517297 
L 70.386715 192.549303 
L 70.607726 192.580489 
L 70.826089 192.61088 
L 71.04185 192.6405 
L 71.255054 192.669372 
L 71.465743 192.697521 
L 71.673962 192.724966 
L 71.879754 192.75173 
L 72.083161 192.777832 
L 72.284225 192.803293 
L 72.482987 192.828131 
L 72.679488 192.852364 
L 72.873769 192.876011 
L 73.065869 192.899088 
L 73.255828 192.921612 
L 73.443683 192.943599 
L 73.629473 192.965064 
L 73.813235 192.986023 
L 73.995005 193.006488 
L 74.174821 193.026476 
L 74.352717 193.045997 
L 74.528728 193.065067 
L 74.70289 193.083697 
L 74.875234 193.101899 
L 75.045795 193.119686 
L 75.214606 193.137068 
L 75.381698 193.154057 
L 75.547103 193.170662 
L 75.710851 193.186895 
L 75.872974 193.202765 
L 76.0335 193.218282 
L 76.19246 193.233456 
L 76.349881 193.248294 
L 76.505792 193.262806 
L 76.660222 193.277001 
L 76.813196 193.290886 
L 76.964742 193.30447 
L 77.114886 193.317759 
L 77.263654 193.330762 
L 77.41107 193.343486 
L 77.55716 193.355938 
L 77.701948 193.368123 
L 77.845458 193.38005 
L 77.987714 193.391724 
L 78.128737 193.403151 
L 78.268552 193.414338 
L 78.407179 193.42529 
L 78.544642 193.436013 
L 78.68096 193.446511 
L 78.816156 193.456792 
L 78.95025 193.466858 
L 79.083261 193.476717 
L 79.21521 193.486371 
L 79.346117 193.495827 
L 79.476 193.505088 
L 79.604878 193.514159 
L 79.732769 193.523044 
L 79.859693 193.531748 
L 79.985666 193.540274 
L 80.110706 193.548626 
L 80.23483 193.556808 
L 80.358055 193.564824 
L 80.480398 193.572677 
L 80.601875 193.580371 
L 80.722501 193.587909 
L 80.842294 193.595295 
L 80.961267 193.602531 
L 81.079436 193.609621 
L 81.196817 193.616567 
L 81.313423 193.623374 
L 81.42927 193.630042 
L 81.544371 193.636576 
L 81.65874 193.642978 
L 81.772391 193.649251 
L 81.885338 193.655396 
L 81.997594 193.661417 
L 82.109171 193.667316 
L 82.220083 193.673095 
L 82.330343 193.678757 
L 82.439962 193.684304 
L 82.548953 193.689737 
L 82.657328 193.695059 
L 82.765099 193.700273 
L 82.872277 193.705379 
L 82.978875 193.71038 
L 83.084902 193.715278 
L 83.190371 193.720075 
L 83.295293 193.724772 
L 83.399677 193.72937 
L 83.503536 193.733873 
L 83.606879 193.738281 
L 83.709717 193.742596 
L 83.812059 193.746819 
L 83.913917 193.750952 
L 84.015299 193.754997 
L 84.116216 193.758954 
L 84.216678 193.762826 
L 84.316693 193.766613 
L 84.416271 193.770317 
L 84.515422 193.773939 
L 84.614155 193.777481 
L 84.712478 193.780942 
L 84.810401 193.784326 
L 84.907931 193.787632 
L 85.005079 193.790862 
L 85.101853 193.794018 
L 85.198261 193.797099 
L 85.294311 193.800107 
L 85.390011 193.803043 
L 85.485371 193.805908 
L 85.580398 193.808703 
L 85.675099 193.811429 
L 85.769484 193.814086 
L 85.863559 193.816676 
L 85.957332 193.819199 
L 86.050812 193.821656 
L 86.144005 193.824048 
L 86.23692 193.826375 
L 86.329563 193.828639 
L 86.421941 193.83084 
L 86.514064 193.832979 
L 86.605936 193.835055 
L 86.697566 193.837071 
L 86.788961 193.839027 
L 86.880127 193.840922 
L 86.971073 193.842759 
L 87.061803 193.844536 
L 87.152326 193.846256 
L 87.242648 193.847918 
L 87.332777 193.849522 
L 87.422717 193.85107 
L 87.512477 193.852562 
L 87.602063 193.853998 
L 87.691482 193.855379 
L 87.780739 193.856705 
L 87.869842 193.857976 
L 87.958796 193.859193 
L 88.047609 193.860356 
L 88.136286 193.861466 
L 88.224835 193.862522 
L 88.31326 193.863526 
L 88.401569 193.864477 
L 88.489767 193.865376 
L 88.577862 193.866223 
L 88.665858 193.867018 
L 88.753763 193.867761 
L 88.841582 193.868454 
L 88.929321 193.869095 
L 89.016987 193.869685 
L 89.104586 193.870224 
L 89.192123 193.870713 
L 89.279605 193.871151 
L 89.367037 193.871538 
L 89.454426 193.871876 
L 89.541778 193.872163 
L 89.629099 193.8724 
L 89.716394 193.872588 
L 89.80367 193.872725 
L 89.890932 193.872812 
L 89.978187 193.87285 
L 90.06544 193.872837 
L 90.152698 193.872775 
L 90.239966 193.872663 
L 90.327251 193.8725 
L 90.414558 193.872288 
L 90.501893 193.872026 
L 90.589263 193.871713 
L 90.676673 193.871351 
L 90.76413 193.870938 
L 90.851638 193.870475 
L 90.939205 193.869961 
L 91.026837 193.869396 
L 91.114539 193.868781 
L 91.202317 193.868114 
L 91.290178 193.867396 
L 91.378128 193.866627 
L 91.466173 193.865806 
L 91.554318 193.864933 
L 91.642571 193.864008 
L 91.730938 193.863031 
L 91.819424 193.862001 
L 91.908036 193.860918 
L 91.99678 193.859781 
L 92.085663 193.858591 
L 92.174691 193.857347 
L 92.26387 193.856049 
L 92.353207 193.854695 
L 92.442708 193.853287 
L 92.53238 193.851823 
L 92.62223 193.850303 
L 92.712264 193.848727 
L 92.802488 193.847094 
L 92.89291 193.845403 
L 92.983536 193.843655 
L 93.074373 193.841848 
L 93.165428 193.839982 
L 93.256707 193.838056 
L 93.348219 193.836071 
L 93.439969 193.834025 
L 93.531966 193.831917 
L 93.624215 193.829747 
L 93.716725 193.827515 
L 93.809503 193.82522 
L 93.902556 193.82286 
L 93.995892 193.820436 
L 94.089517 193.817946 
L 94.183441 193.815389 
L 94.277669 193.812766 
L 94.372211 193.810075 
L 94.467074 193.807314 
L 94.562267 193.804485 
L 94.657796 193.801584 
L 94.75367 193.798612 
L 94.849898 193.795567 
L 94.946487 193.792449 
L 95.043447 193.789257 
L 95.140786 193.785989 
L 95.238511 193.782644 
L 95.336633 193.779221 
L 95.43516 193.77572 
L 95.5341 193.772138 
L 95.633464 193.768475 
L 95.73326 193.76473 
L 95.833497 193.760901 
L 95.934185 193.756986 
L 96.035333 193.752986 
L 96.136952 193.748897 
L 96.239051 193.744719 
L 96.34164 193.74045 
L 96.444729 193.736089 
L 96.548328 193.731634 
L 96.652448 193.727083 
L 96.7571 193.722436 
L 96.862294 193.717689 
L 96.968041 193.712842 
L 97.074352 193.707893 
L 97.181239 193.702839 
L 97.288712 193.69768 
L 97.396783 193.692412 
L 97.505465 193.687034 
L 97.614768 193.681545 
L 97.724706 193.675941 
L 97.83529 193.670221 
L 97.946533 193.664382 
L 98.058448 193.658422 
L 98.171048 193.652339 
L 98.284345 193.64613 
L 98.398354 193.639794 
L 98.513087 193.633326 
L 98.628559 193.626725 
L 98.744784 193.619988 
L 98.861776 193.613112 
L 98.979549 193.606094 
L 99.098118 193.598931 
L 99.217499 193.591621 
L 99.337707 193.584159 
L 99.458756 193.576544 
L 99.580664 193.568771 
L 99.703446 193.560836 
L 99.827119 193.552738 
L 99.951699 193.544471 
L 100.077203 193.536033 
L 100.203649 193.527418 
L 100.331054 193.518625 
L 100.459437 193.509647 
L 100.588815 193.500481 
L 100.719207 193.491124 
L 100.850633 193.481569 
L 100.983111 193.471813 
L 101.116661 193.461851 
L 101.251303 193.451678 
L 101.387057 193.44129 
L 101.523945 193.43068 
L 101.661987 193.419843 
L 101.801206 193.408774 
L 101.941622 193.397468 
L 102.083259 193.385918 
L 102.226138 193.374119 
L 102.370284 193.362063 
L 102.515721 193.349745 
L 102.662471 193.337159 
L 102.81056 193.324296 
L 102.960012 193.311151 
L 103.110854 193.297715 
L 103.263111 193.283982 
L 103.416809 193.269943 
L 103.571976 193.25559 
L 103.728639 193.240916 
L 103.886826 193.225911 
L 104.046565 193.210567 
L 104.207886 193.194875 
L 104.370818 193.178825 
L 104.535391 193.162407 
L 104.701635 193.145611 
L 104.869582 193.128427 
L 105.039264 193.110844 
L 105.210713 193.092851 
L 105.383962 193.074436 
L 105.559044 193.055588 
L 105.735993 193.036294 
L 105.914845 193.016541 
L 106.095633 192.996316 
L 106.278395 192.975606 
L 106.463166 192.954396 
L 106.649984 192.932672 
L 106.838886 192.910418 
L 107.02991 192.88762 
L 107.223096 192.86426 
L 107.418482 192.840322 
L 107.616109 192.815788 
L 107.816017 192.790641 
L 108.018247 192.764862 
L 108.222841 192.738432 
L 108.429841 192.71133 
L 108.63929 192.683536 
L 108.851231 192.655028 
L 109.065708 192.625785 
L 109.282765 192.595782 
L 109.502446 192.564997 
L 109.724796 192.533404 
L 109.949862 192.500978 
L 110.177688 192.467692 
L 110.40832 192.433519 
L 110.641805 192.398431 
L 110.878188 192.362396 
L 111.117517 192.325386 
L 111.359837 192.287367 
L 111.605195 192.248308 
L 111.853636 192.208174 
L 112.105208 192.166929 
L 112.359955 192.124537 
L 112.617923 192.08096 
L 112.879157 192.036158 
L 113.143699 191.990091 
L 113.411594 191.942717 
L 113.682882 191.89399 
L 113.957606 191.843867 
L 114.235803 191.7923 
L 114.517513 191.739241 
L 114.802771 191.684639 
L 115.091611 191.628441 
L 115.384064 191.570595 
L 115.68016 191.511044 
L 115.979925 191.44973 
L 116.283382 191.386594 
L 116.590549 191.321575 
L 116.901443 191.254609 
L 117.216075 191.185629 
L 117.53445 191.114569 
L 117.85657 191.041358 
L 118.18243 190.965925 
L 118.512019 190.888195 
L 118.84532 190.808093 
L 119.182307 190.725539 
L 119.522947 190.640453 
L 119.867199 190.552753 
L 120.21501 190.462353 
L 120.56632 190.369168 
L 120.921056 190.273108 
L 121.279136 190.174083 
L 121.640461 190.072001 
L 122.004923 189.966767 
L 122.372396 189.858287 
L 122.742743 189.746462 
L 123.115807 189.631196 
L 123.491416 189.512389 
L 123.869378 189.389942 
L 124.249484 189.263755 
L 124.631504 189.133728 
L 125.015185 188.999762 
L 125.400254 188.861756 
L 125.786415 188.719615 
L 126.173347 188.573241 
L 126.560703 188.42254 
L 126.948113 188.267422 
L 127.335179 188.107799 
L 127.721476 187.943587 
L 128.106551 187.774707 
L 128.489925 187.601087 
L 128.871089 187.422658 
L 129.249508 187.239363 
L 129.624618 187.051149 
L 129.995827 186.857973 
L 130.36252 186.659804 
L 130.724054 186.456621 
L 131.079761 186.248412 
L 131.428955 186.035183 
L 131.770925 185.816949 
L 132.104945 185.593743 
L 132.430275 185.365613 
L 132.746159 185.132622 
L 133.051837 184.894852 
L 133.346543 184.652401 
L 133.62951 184.405388 
L 133.899976 184.153948 
L 134.157188 183.898237 
L 134.400407 183.63843 
L 134.628914 183.374719 
L 134.842014 183.107319 
L 135.039043 182.83646 
L 135.219372 182.562392 
L 135.382412 182.285381 
L 135.527622 182.00571 
L 135.654511 181.723676 
L 135.762642 181.439589 
L 135.85164 181.153774 
L 135.921191 180.866563 
L 135.971048 180.578298 
L 136.001035 180.289326 
L 136.011042 180 
L 136.011042 180 
z
" clip-path="url(#pe09fb8f214)" style="fill: none"/>
   </g>
   <g id="patch_3">
    <path d="M 136.011042 126 
L 136.001035 125.710674 
L 135.971048 125.421702 
L 135.921191 125.133437 
L 135.85164 124.846226 
L 135.762642 124.560411 
L 135.654511 124.276324 
L 135.527622 123.99429 
L 135.382412 123.714619 
L 135.219372 123.437608 
L 135.039043 123.16354 
L 134.842014 122.892681 
L 134.628914 122.625281 
L 134.400407 122.36157 
L 134.157188 122.101763 
L 133.899976 121.846052 
L 133.62951 121.594612 
L 133.346543 121.347599 
L 133.051837 121.105148 
L 132.746159 120.867378 
L 132.430275 120.634387 
L 132.104945 120.406257 
L 131.770925 120.183051 
L 131.428955 119.964817 
L 131.079761 119.751588 
L 130.724054 119.543379 
L 130.36252 119.340196 
L 129.995827 119.142027 
L 129.624618 118.948851 
L 129.249508 118.760637 
L 128.871089 118.577342 
L 128.489925 118.398913 
L 128.106551 118.225293 
L 127.721476 118.056413 
L 127.335179 117.892201 
L 126.948113 117.732578 
L 126.560703 117.57746 
L 126.173347 117.426759 
L 125.786415 117.280385 
L 125.400254 117.138244 
L 125.015185 117.000238 
L 124.631504 116.866272 
L 124.249484 116.736245 
L 123.869378 116.610058 
L 123.491416 116.487611 
L 123.115807 116.368804 
L 122.742743 116.253538 
L 122.372396 116.141713 
L 122.004923 116.033233 
L 121.640461 115.927999 
L 121.279136 115.825917 
L 120.921056 115.726892 
L 120.56632 115.630832 
L 120.21501 115.537647 
L 119.867199 115.447247 
L 119.522947 115.359547 
L 119.182307 115.274461 
L 118.84532 115.191907 
L 118.512019 115.111805 
L 118.18243 115.034075 
L 117.85657 114.958642 
L 117.53445 114.885431 
L 117.216075 114.814371 
L 116.901443 114.745391 
L 116.590549 114.678425 
L 116.283382 114.613406 
L 115.979925 114.55027 
L 115.68016 114.488956 
L 115.384064 114.429405 
L 115.091611 114.371559 
L 114.802771 114.315361 
L 114.517513 114.260759 
L 114.235803 114.2077 
L 113.957606 114.156133 
L 113.682882 114.10601 
L 113.411594 114.057283 
L 113.143699 114.009909 
L 112.879157 113.963842 
L 112.617923 113.91904 
L 112.359955 113.875463 
L 112.105208 113.833071 
L 111.853636 113.791826 
L 111.605195 113.751692 
L 111.359837 113.712633 
L 111.117517 113.674614 
L 110.878188 113.637604 
L 110.641805 113.601569 
L 110.40832 113.566481 
L 110.177688 113.532308 
L 109.949862 113.499022 
L 109.724796 113.466596 
L 109.502446 113.435003 
L 109.282765 113.404218 
L 109.065708 113.374215 
L 108.851231 113.344972 
L 108.63929 113.316464 
L 108.429841 113.28867 
L 108.222841 113.261568 
L 108.018247 113.235138 
L 107.816017 113.209359 
L 107.616109 113.184212 
L 107.418482 113.159678 
L 107.223096 113.13574 
L 107.02991 113.11238 
L 106.838886 113.089582 
L 106.649984 113.067328 
L 106.463166 113.045604 
L 106.278395 113.024394 
L 106.095633 113.003684 
L 105.914845 112.983459 
L 105.735993 112.963706 
L 105.559044 112.944412 
L 105.383962 112.925564 
L 105.210713 112.907149 
L 105.039264 112.889156 
L 104.869582 112.871573 
L 104.701635 112.854389 
L 104.535391 112.837593 
L 104.370818 112.821175 
L 104.207886 112.805125 
L 104.046565 112.789433 
L 103.886826 112.774089 
L 103.728639 112.759084 
L 103.571976 112.74441 
L 103.416809 112.730057 
L 103.263111 112.716018 
L 103.110854 112.702285 
L 102.960012 112.688849 
L 102.81056 112.675704 
L 102.662471 112.662841 
L 102.515721 112.650255 
L 102.370284 112.637937 
L 102.226138 112.625881 
L 102.083259 112.614082 
L 101.941622 112.602532 
L 101.801206 112.591226 
L 101.661987 112.580157 
L 101.523945 112.56932 
L 101.387057 112.55871 
L 101.251303 112.548322 
L 101.116661 112.538149 
L 100.983111 112.528187 
L 100.850633 112.518431 
L 100.719207 112.508876 
L 100.588815 112.499519 
L 100.459437 112.490353 
L 100.331054 112.481375 
L 100.203649 112.472582 
L 100.077203 112.463967 
L 99.951699 112.455529 
L 99.827119 112.447262 
L 99.703446 112.439164 
L 99.580664 112.431229 
L 99.458756 112.423456 
L 99.337707 112.415841 
L 99.217499 112.408379 
L 99.098118 112.401069 
L 98.979549 112.393906 
L 98.861776 112.386888 
L 98.744784 112.380012 
L 98.628559 112.373275 
L 98.513087 112.366674 
L 98.398354 112.360206 
L 98.284345 112.35387 
L 98.171048 112.347661 
L 98.058448 112.341578 
L 97.946533 112.335618 
L 97.83529 112.329779 
L 97.724706 112.324059 
L 97.614768 112.318455 
L 97.505465 112.312966 
L 97.396783 112.307588 
L 97.288712 112.30232 
L 97.181239 112.297161 
L 97.074352 112.292107 
L 96.968041 112.287158 
L 96.862294 112.282311 
L 96.7571 112.277564 
L 96.652448 112.272917 
L 96.548328 112.268366 
L 96.444729 112.263911 
L 96.34164 112.25955 
L 96.239051 112.255281 
L 96.136952 112.251103 
L 96.035333 112.247014 
L 95.934185 112.243014 
L 95.833497 112.239099 
L 95.73326 112.23527 
L 95.633464 112.231525 
L 95.5341 112.227862 
L 95.43516 112.22428 
L 95.336633 112.220779 
L 95.238511 112.217356 
L 95.140786 112.214011 
L 95.043447 112.210743 
L 94.946487 112.207551 
L 94.849898 112.204433 
L 94.75367 112.201388 
L 94.657796 112.198416 
L 94.562267 112.195515 
L 94.467074 112.192686 
L 94.372211 112.189925 
L 94.277669 112.187234 
L 94.183441 112.184611 
L 94.089517 112.182054 
L 93.995892 112.179564 
L 93.902556 112.17714 
L 93.809503 112.17478 
L 93.716725 112.172485 
L 93.624215 112.170253 
L 93.531966 112.168083 
L 93.439969 112.165975 
L 93.348219 112.163929 
L 93.256707 112.161944 
L 93.165428 112.160018 
L 93.074373 112.158152 
L 92.983536 112.156345 
L 92.89291 112.154597 
L 92.802488 112.152906 
L 92.712264 112.151273 
L 92.62223 112.149697 
L 92.53238 112.148177 
L 92.442708 112.146713 
L 92.353207 112.145305 
L 92.26387 112.143951 
L 92.174691 112.142653 
L 92.085663 112.141409 
L 91.99678 112.140219 
L 91.908036 112.139082 
L 91.819424 112.137999 
L 91.730938 112.136969 
L 91.642571 112.135992 
L 91.554318 112.135067 
L 91.466173 112.134194 
L 91.378128 112.133373 
L 91.290178 112.132604 
L 91.202317 112.131886 
L 91.114539 112.131219 
L 91.026837 112.130604 
L 90.939205 112.130039 
L 90.851638 112.129525 
L 90.76413 112.129062 
L 90.676673 112.128649 
L 90.589263 112.128287 
L 90.501893 112.127974 
L 90.414558 112.127712 
L 90.327251 112.1275 
L 90.239966 112.127337 
L 90.152698 112.127225 
L 90.06544 112.127163 
L 89.978187 112.12715 
L 89.890932 112.127188 
L 89.80367 112.127275 
L 89.716394 112.127412 
L 89.629099 112.1276 
L 89.541778 112.127837 
L 89.454426 112.128124 
L 89.367037 112.128462 
L 89.279605 112.128849 
L 89.192123 112.129287 
L 89.104586 112.129776 
L 89.016987 112.130315 
L 88.929321 112.130905 
L 88.841582 112.131546 
L 88.753763 112.132239 
L 88.665858 112.132982 
L 88.577862 112.133777 
L 88.489767 112.134624 
L 88.401569 112.135523 
L 88.31326 112.136474 
L 88.224835 112.137478 
L 88.136286 112.138534 
L 88.047609 112.139644 
L 87.958796 112.140807 
L 87.869842 112.142024 
L 87.780739 112.143295 
L 87.691482 112.144621 
L 87.602063 112.146002 
L 87.512477 112.147438 
L 87.422717 112.14893 
L 87.332777 112.150478 
L 87.242648 112.152082 
L 87.152326 112.153744 
L 87.061803 112.155464 
L 86.971073 112.157241 
L 86.880127 112.159078 
L 86.788961 112.160973 
L 86.697566 112.162929 
L 86.605936 112.164945 
L 86.514064 112.167021 
L 86.421941 112.16916 
L 86.329563 112.171361 
L 86.23692 112.173625 
L 86.144005 112.175952 
L 86.050812 112.178344 
L 85.957332 112.180801 
L 85.863559 112.183324 
L 85.769484 112.185914 
L 85.675099 112.188571 
L 85.580398 112.191297 
L 85.485371 112.194092 
L 85.390011 112.196957 
L 85.294311 112.199893 
L 85.198261 112.202901 
L 85.101853 112.205982 
L 85.005079 112.209138 
L 84.907931 112.212368 
L 84.810401 112.215674 
L 84.712478 112.219058 
L 84.614155 112.222519 
L 84.515422 112.226061 
L 84.416271 112.229683 
L 84.316693 112.233387 
L 84.216678 112.237174 
L 84.116216 112.241046 
L 84.015299 112.245003 
L 83.913917 112.249048 
L 83.812059 112.253181 
L 83.709717 112.257404 
L 83.606879 112.261719 
L 83.503536 112.266127 
L 83.399677 112.27063 
L 83.295293 112.275228 
L 83.190371 112.279925 
L 83.084902 112.284722 
L 82.978875 112.28962 
L 82.872277 112.294621 
L 82.765099 112.299727 
L 82.657328 112.304941 
L 82.548953 112.310263 
L 82.439962 112.315696 
L 82.330343 112.321243 
L 82.220083 112.326905 
L 82.109171 112.332684 
L 81.997594 112.338583 
L 81.885338 112.344604 
L 81.772391 112.350749 
L 81.65874 112.357022 
L 81.544371 112.363424 
L 81.42927 112.369958 
L 81.313423 112.376626 
L 81.196817 112.383433 
L 81.079436 112.390379 
L 80.961267 112.397469 
L 80.842294 112.404705 
L 80.722501 112.412091 
L 80.601875 112.419629 
L 80.480398 112.427323 
L 80.358055 112.435176 
L 80.23483 112.443192 
L 80.110706 112.451374 
L 79.985666 112.459726 
L 79.859693 112.468252 
L 79.732769 112.476956 
L 79.604878 112.485841 
L 79.476 112.494912 
L 79.346117 112.504173 
L 79.21521 112.513629 
L 79.083261 112.523283 
L 78.95025 112.533142 
L 78.816156 112.543208 
L 78.68096 112.553489 
L 78.544642 112.563987 
L 78.407179 112.57471 
L 78.268552 112.585662 
L 78.128737 112.596849 
L 77.987714 112.608276 
L 77.845458 112.61995 
L 77.701948 112.631877 
L 77.55716 112.644062 
L 77.41107 112.656514 
L 77.263654 112.669238 
L 77.114886 112.682241 
L 76.964742 112.69553 
L 76.813196 112.709114 
L 76.660222 112.722999 
L 76.505792 112.737194 
L 76.349881 112.751706 
L 76.19246 112.766544 
L 76.0335 112.781718 
L 75.872974 112.797235 
L 75.710851 112.813105 
L 75.547103 112.829338 
L 75.381698 112.845943 
L 75.214606 112.862932 
L 75.045795 112.880314 
L 74.875234 112.898101 
L 74.70289 112.916303 
L 74.528728 112.934933 
L 74.352717 112.954003 
L 74.174821 112.973524 
L 73.995005 112.993512 
L 73.813235 113.013977 
L 73.629473 113.034936 
L 73.443683 113.056401 
L 73.255828 113.078388 
L 73.065869 113.100912 
L 72.873769 113.123989 
L 72.679488 113.147636 
L 72.482987 113.171869 
L 72.284225 113.196707 
L 72.083161 113.222168 
L 71.879754 113.24827 
L 71.673962 113.275034 
L 71.465743 113.302479 
L 71.255054 113.330628 
L 71.04185 113.3595 
L 70.826089 113.38912 
L 70.607726 113.419511 
L 70.386715 113.450697 
L 70.163013 113.482703 
L 69.936573 113.515556 
L 69.70735 113.549281 
L 69.475297 113.583909 
L 69.240369 113.619466 
L 69.002519 113.655985 
L 68.7617 113.693495 
L 68.517867 113.73203 
L 68.270973 113.771623 
L 68.020972 113.812308 
L 67.767818 113.854121 
L 67.511466 113.897101 
L 67.251871 113.941285 
L 66.988988 113.986714 
L 66.722775 114.03343 
L 66.453189 114.081475 
L 66.180188 114.130894 
L 65.903732 114.181733 
L 65.623783 114.23404 
L 65.340304 114.287864 
L 65.053259 114.343257 
L 64.762616 114.400273 
L 64.468345 114.458964 
L 64.170417 114.519389 
L 63.868809 114.581606 
L 63.563499 114.645676 
L 63.25447 114.711661 
L 62.941709 114.779625 
L 62.625206 114.849637 
L 62.304958 114.921763 
L 61.980967 114.996076 
L 61.65324 115.072648 
L 61.321793 115.151555 
L 60.986645 115.232873 
L 60.647827 115.316683 
L 60.305376 115.403065 
L 59.959337 115.492104 
L 59.609768 115.583886 
L 59.256735 115.678497 
L 58.900316 115.776028 
L 58.540601 115.87657 
L 58.177693 115.980216 
L 57.811709 116.087061 
L 57.44278 116.197202 
L 57.071054 116.310735 
L 56.696695 116.427759 
L 56.319884 116.548373 
L 55.940823 116.672677 
L 55.55973 116.800772 
L 55.176847 116.932756 
L 54.792436 117.06873 
L 54.406782 117.208791 
L 54.020195 117.353037 
L 53.633006 117.501563 
L 53.245574 117.654461 
L 52.858285 117.811821 
L 52.471549 117.973729 
L 52.085805 118.140265 
L 51.701518 118.311506 
L 51.319184 118.487523 
L 50.939324 118.668378 
L 50.562487 118.854126 
L 50.189252 119.044817 
L 49.820222 119.240485 
L 49.456027 119.44116 
L 49.097322 119.646855 
L 48.744784 119.857576 
L 48.399112 120.07331 
L 48.061025 120.294035 
L 47.731257 120.51971 
L 47.410555 120.75028 
L 47.099678 120.985672 
L 46.79939 121.225795 
L 46.510458 121.470543 
L 46.233647 121.719788 
L 45.969715 121.973384 
L 45.719408 122.231166 
L 45.483457 122.492951 
L 45.262568 122.758534 
L 45.057422 123.027693 
L 44.868667 123.300189 
L 44.696912 123.575763 
L 44.542722 123.85414 
L 44.406615 124.135031 
L 44.289054 124.418131 
L 44.190446 124.703123 
L 44.111137 124.989678 
L 44.051406 125.277459 
L 44.011466 125.566122 
L 43.99146 125.855315 
L 43.99146 126.144685 
L 44.011466 126.433878 
L 44.051406 126.722541 
L 44.111137 127.010322 
L 44.190446 127.296877 
L 44.289054 127.581869 
L 44.406615 127.864969 
L 44.542722 128.14586 
L 44.696912 128.424237 
L 44.868667 128.699811 
L 45.057422 128.972307 
L 45.262568 129.241466 
L 45.483457 129.507049 
L 45.719408 129.768834 
L 45.969715 130.026616 
L 46.233647 130.280212 
L 46.510458 130.529457 
L 46.79939 130.774205 
L 47.099678 131.014328 
L 47.410555 131.24972 
L 47.731257 131.48029 
L 48.061025 131.705965 
L 48.399112 131.92669 
L 48.744784 132.142424 
L 49.097322 132.353145 
L 49.456027 132.55884 
L 49.820222 132.759515 
L 50.189252 132.955183 
L 50.562487 133.145874 
L 50.939324 133.331622 
L 51.319184 133.512477 
L 51.701518 133.688494 
L 52.085805 133.859735 
L 52.471549 134.026271 
L 52.858285 134.188179 
L 53.245574 134.345539 
L 53.633006 134.498437 
L 54.020195 134.646963 
L 54.406782 134.791209 
L 54.792436 134.93127 
L 55.176847 135.067244 
L 55.55973 135.199228 
L 55.940823 135.327323 
L 56.319884 135.451627 
L 56.696695 135.572241 
L 57.071054 135.689265 
L 57.44278 135.802798 
L 57.811709 135.912939 
L 58.177693 136.019784 
L 58.540601 136.12343 
L 58.900316 136.223972 
L 59.256735 136.321503 
L 59.609768 136.416114 
L 59.959337 136.507896 
L 60.305376 136.596935 
L 60.647827 136.683317 
L 60.986645 136.767127 
L 61.321793 136.848445 
L 61.65324 136.927352 
L 61.980967 137.003924 
L 62.304958 137.078237 
L 62.625206 137.150363 
L 62.941709 137.220375 
L 63.25447 137.288339 
L 63.563499 137.354324 
L 63.868809 137.418394 
L 64.170417 137.480611 
L 64.468345 137.541036 
L 64.762616 137.599727 
L 65.053259 137.656743 
L 65.340304 137.712136 
L 65.623783 137.76596 
L 65.903732 137.818267 
L 66.180188 137.869106 
L 66.453189 137.918525 
L 66.722775 137.96657 
L 66.988988 138.013286 
L 67.251871 138.058715 
L 67.511466 138.102899 
L 67.767818 138.145879 
L 68.020972 138.187692 
L 68.270973 138.228377 
L 68.517867 138.26797 
L 68.7617 138.306505 
L 69.002519 138.344015 
L 69.240369 138.380534 
L 69.475297 138.416091 
L 69.70735 138.450719 
L 69.936573 138.484444 
L 70.163013 138.517297 
L 70.386715 138.549303 
L 70.607726 138.580489 
L 70.826089 138.61088 
L 71.04185 138.6405 
L 71.255054 138.669372 
L 71.465743 138.697521 
L 71.673962 138.724966 
L 71.879754 138.75173 
L 72.083161 138.777832 
L 72.284225 138.803293 
L 72.482987 138.828131 
L 72.679488 138.852364 
L 72.873769 138.876011 
L 73.065869 138.899088 
L 73.255828 138.921612 
L 73.443683 138.943599 
L 73.629473 138.965064 
L 73.813235 138.986023 
L 73.995005 139.006488 
L 74.174821 139.026476 
L 74.352717 139.045997 
L 74.528728 139.065067 
L 74.70289 139.083697 
L 74.875234 139.101899 
L 75.045795 139.119686 
L 75.214606 139.137068 
L 75.381698 139.154057 
L 75.547103 139.170662 
L 75.710851 139.186895 
L 75.872974 139.202765 
L 76.0335 139.218282 
L 76.19246 139.233456 
L 76.349881 139.248294 
L 76.505792 139.262806 
L 76.660222 139.277001 
L 76.813196 139.290886 
L 76.964742 139.30447 
L 77.114886 139.317759 
L 77.263654 139.330762 
L 77.41107 139.343486 
L 77.55716 139.355938 
L 77.701948 139.368123 
L 77.845458 139.38005 
L 77.987714 139.391724 
L 78.128737 139.403151 
L 78.268552 139.414338 
L 78.407179 139.42529 
L 78.544642 139.436013 
L 78.68096 139.446511 
L 78.816156 139.456792 
L 78.95025 139.466858 
L 79.083261 139.476717 
L 79.21521 139.486371 
L 79.346117 139.495827 
L 79.476 139.505088 
L 79.604878 139.514159 
L 79.732769 139.523044 
L 79.859693 139.531748 
L 79.985666 139.540274 
L 80.110706 139.548626 
L 80.23483 139.556808 
L 80.358055 139.564824 
L 80.480398 139.572677 
L 80.601875 139.580371 
L 80.722501 139.587909 
L 80.842294 139.595295 
L 80.961267 139.602531 
L 81.079436 139.609621 
L 81.196817 139.616567 
L 81.313423 139.623374 
L 81.42927 139.630042 
L 81.544371 139.636576 
L 81.65874 139.642978 
L 81.772391 139.649251 
L 81.885338 139.655396 
L 81.997594 139.661417 
L 82.109171 139.667316 
L 82.220083 139.673095 
L 82.330343 139.678757 
L 82.439962 139.684304 
L 82.548953 139.689737 
L 82.657328 139.695059 
L 82.765099 139.700273 
L 82.872277 139.705379 
L 82.978875 139.71038 
L 83.084902 139.715278 
L 83.190371 139.720075 
L 83.295293 139.724772 
L 83.399677 139.72937 
L 83.503536 139.733873 
L 83.606879 139.738281 
L 83.709717 139.742596 
L 83.812059 139.746819 
L 83.913917 139.750952 
L 84.015299 139.754997 
L 84.116216 139.758954 
L 84.216678 139.762826 
L 84.316693 139.766613 
L 84.416271 139.770317 
L 84.515422 139.773939 
L 84.614155 139.777481 
L 84.712478 139.780942 
L 84.810401 139.784326 
L 84.907931 139.787632 
L 85.005079 139.790862 
L 85.101853 139.794018 
L 85.198261 139.797099 
L 85.294311 139.800107 
L 85.390011 139.803043 
L 85.485371 139.805908 
L 85.580398 139.808703 
L 85.675099 139.811429 
L 85.769484 139.814086 
L 85.863559 139.816676 
L 85.957332 139.819199 
L 86.050812 139.821656 
L 86.144005 139.824048 
L 86.23692 139.826375 
L 86.329563 139.828639 
L 86.421941 139.83084 
L 86.514064 139.832979 
L 86.605936 139.835055 
L 86.697566 139.837071 
L 86.788961 139.839027 
L 86.880127 139.840922 
L 86.971073 139.842759 
L 87.061803 139.844536 
L 87.152326 139.846256 
L 87.242648 139.847918 
L 87.332777 139.849522 
L 87.422717 139.85107 
L 87.512477 139.852562 
L 87.602063 139.853998 
L 87.691482 139.855379 
L 87.780739 139.856705 
L 87.869842 139.857976 
L 87.958796 139.859193 
L 88.047609 139.860356 
L 88.136286 139.861466 
L 88.224835 139.862522 
L 88.31326 139.863526 
L 88.401569 139.864477 
L 88.489767 139.865376 
L 88.577862 139.866223 
L 88.665858 139.867018 
L 88.753763 139.867761 
L 88.841582 139.868454 
L 88.929321 139.869095 
L 89.016987 139.869685 
L 89.104586 139.870224 
L 89.192123 139.870713 
L 89.279605 139.871151 
L 89.367037 139.871538 
L 89.454426 139.871876 
L 89.541778 139.872163 
L 89.629099 139.8724 
L 89.716394 139.872588 
L 89.80367 139.872725 
L 89.890932 139.872812 
L 89.978187 139.87285 
L 90.06544 139.872837 
L 90.152698 139.872775 
L 90.239966 139.872663 
L 90.327251 139.8725 
L 90.414558 139.872288 
L 90.501893 139.872026 
L 90.589263 139.871713 
L 90.676673 139.871351 
L 90.76413 139.870938 
L 90.851638 139.870475 
L 90.939205 139.869961 
L 91.026837 139.869396 
L 91.114539 139.868781 
L 91.202317 139.868114 
L 91.290178 139.867396 
L 91.378128 139.866627 
L 91.466173 139.865806 
L 91.554318 139.864933 
L 91.642571 139.864008 
L 91.730938 139.863031 
L 91.819424 139.862001 
L 91.908036 139.860918 
L 91.99678 139.859781 
L 92.085663 139.858591 
L 92.174691 139.857347 
L 92.26387 139.856049 
L 92.353207 139.854695 
L 92.442708 139.853287 
L 92.53238 139.851823 
L 92.62223 139.850303 
L 92.712264 139.848727 
L 92.802488 139.847094 
L 92.89291 139.845403 
L 92.983536 139.843655 
L 93.074373 139.841848 
L 93.165428 139.839982 
L 93.256707 139.838056 
L 93.348219 139.836071 
L 93.439969 139.834025 
L 93.531966 139.831917 
L 93.624215 139.829747 
L 93.716725 139.827515 
L 93.809503 139.82522 
L 93.902556 139.82286 
L 93.995892 139.820436 
L 94.089517 139.817946 
L 94.183441 139.815389 
L 94.277669 139.812766 
L 94.372211 139.810075 
L 94.467074 139.807314 
L 94.562267 139.804485 
L 94.657796 139.801584 
L 94.75367 139.798612 
L 94.849898 139.795567 
L 94.946487 139.792449 
L 95.043447 139.789257 
L 95.140786 139.785989 
L 95.238511 139.782644 
L 95.336633 139.779221 
L 95.43516 139.77572 
L 95.5341 139.772138 
L 95.633464 139.768475 
L 95.73326 139.76473 
L 95.833497 139.760901 
L 95.934185 139.756986 
L 96.035333 139.752986 
L 96.136952 139.748897 
L 96.239051 139.744719 
L 96.34164 139.74045 
L 96.444729 139.736089 
L 96.548328 139.731634 
L 96.652448 139.727083 
L 96.7571 139.722436 
L 96.862294 139.717689 
L 96.968041 139.712842 
L 97.074352 139.707893 
L 97.181239 139.702839 
L 97.288712 139.69768 
L 97.396783 139.692412 
L 97.505465 139.687034 
L 97.614768 139.681545 
L 97.724706 139.675941 
L 97.83529 139.670221 
L 97.946533 139.664382 
L 98.058448 139.658422 
L 98.171048 139.652339 
L 98.284345 139.64613 
L 98.398354 139.639794 
L 98.513087 139.633326 
L 98.628559 139.626725 
L 98.744784 139.619988 
L 98.861776 139.613112 
L 98.979549 139.606094 
L 99.098118 139.598931 
L 99.217499 139.591621 
L 99.337707 139.584159 
L 99.458756 139.576544 
L 99.580664 139.568771 
L 99.703446 139.560836 
L 99.827119 139.552738 
L 99.951699 139.544471 
L 100.077203 139.536033 
L 100.203649 139.527418 
L 100.331054 139.518625 
L 100.459437 139.509647 
L 100.588815 139.500481 
L 100.719207 139.491124 
L 100.850633 139.481569 
L 100.983111 139.471813 
L 101.116661 139.461851 
L 101.251303 139.451678 
L 101.387057 139.44129 
L 101.523945 139.43068 
L 101.661987 139.419843 
L 101.801206 139.408774 
L 101.941622 139.397468 
L 102.083259 139.385918 
L 102.226138 139.374119 
L 102.370284 139.362063 
L 102.515721 139.349745 
L 102.662471 139.337159 
L 102.81056 139.324296 
L 102.960012 139.311151 
L 103.110854 139.297715 
L 103.263111 139.283982 
L 103.416809 139.269943 
L 103.571976 139.25559 
L 103.728639 139.240916 
L 103.886826 139.225911 
L 104.046565 139.210567 
L 104.207886 139.194875 
L 104.370818 139.178825 
L 104.535391 139.162407 
L 104.701635 139.145611 
L 104.869582 139.128427 
L 105.039264 139.110844 
L 105.210713 139.092851 
L 105.383962 139.074436 
L 105.559044 139.055588 
L 105.735993 139.036294 
L 105.914845 139.016541 
L 106.095633 138.996316 
L 106.278395 138.975606 
L 106.463166 138.954396 
L 106.649984 138.932672 
L 106.838886 138.910418 
L 107.02991 138.88762 
L 107.223096 138.86426 
L 107.418482 138.840322 
L 107.616109 138.815788 
L 107.816017 138.790641 
L 108.018247 138.764862 
L 108.222841 138.738432 
L 108.429841 138.71133 
L 108.63929 138.683536 
L 108.851231 138.655028 
L 109.065708 138.625785 
L 109.282765 138.595782 
L 109.502446 138.564997 
L 109.724796 138.533404 
L 109.949862 138.500978 
L 110.177688 138.467692 
L 110.40832 138.433519 
L 110.641805 138.398431 
L 110.878188 138.362396 
L 111.117517 138.325386 
L 111.359837 138.287367 
L 111.605195 138.248308 
L 111.853636 138.208174 
L 112.105208 138.166929 
L 112.359955 138.124537 
L 112.617923 138.08096 
L 112.879157 138.036158 
L 113.143699 137.990091 
L 113.411594 137.942717 
L 113.682882 137.89399 
L 113.957606 137.843867 
L 114.235803 137.7923 
L 114.517513 137.739241 
L 114.802771 137.684639 
L 115.091611 137.628441 
L 115.384064 137.570595 
L 115.68016 137.511044 
L 115.979925 137.44973 
L 116.283382 137.386594 
L 116.590549 137.321575 
L 116.901443 137.254609 
L 117.216075 137.185629 
L 117.53445 137.114569 
L 117.85657 137.041358 
L 118.18243 136.965925 
L 118.512019 136.888195 
L 118.84532 136.808093 
L 119.182307 136.725539 
L 119.522947 136.640453 
L 119.867199 136.552753 
L 120.21501 136.462353 
L 120.56632 136.369168 
L 120.921056 136.273108 
L 121.279136 136.174083 
L 121.640461 136.072001 
L 122.004923 135.966767 
L 122.372396 135.858287 
L 122.742743 135.746462 
L 123.115807 135.631196 
L 123.491416 135.512389 
L 123.869378 135.389942 
L 124.249484 135.263755 
L 124.631504 135.133728 
L 125.015185 134.999762 
L 125.400254 134.861756 
L 125.786415 134.719615 
L 126.173347 134.573241 
L 126.560703 134.42254 
L 126.948113 134.267422 
L 127.335179 134.107799 
L 127.721476 133.943587 
L 128.106551 133.774707 
L 128.489925 133.601087 
L 128.871089 133.422658 
L 129.249508 133.239363 
L 129.624618 133.051149 
L 129.995827 132.857973 
L 130.36252 132.659804 
L 130.724054 132.456621 
L 131.079761 132.248412 
L 131.428955 132.035183 
L 131.770925 131.816949 
L 132.104945 131.593743 
L 132.430275 131.365613 
L 132.746159 131.132622 
L 133.051837 130.894852 
L 133.346543 130.652401 
L 133.62951 130.405388 
L 133.899976 130.153948 
L 134.157188 129.898237 
L 134.400407 129.63843 
L 134.628914 129.374719 
L 134.842014 129.107319 
L 135.039043 128.83646 
L 135.219372 128.562392 
L 135.382412 128.285381 
L 135.527622 128.00571 
L 135.654511 127.723676 
L 135.762642 127.439589 
L 135.85164 127.153774 
L 135.921191 126.866563 
L 135.971048 126.578298 
L 136.001035 126.289326 
L 136.011042 126 
L 136.011042 126 
z
" clip-path="url(#pe09fb8f214)" style="fill: none"/>
   </g>
   <g id="patch_4">
    <path d="M 136.011042 72 
L 136.001035 71.710674 
L 135.971048 71.421702 
L 135.921191 71.133437 
L 135.85164 70.846226 
L 135.762642 70.560411 
L 135.654511 70.276324 
L 135.527622 69.99429 
L 135.382412 69.714619 
L 135.219372 69.437608 
L 135.039043 69.16354 
L 134.842014 68.892681 
L 134.628914 68.625281 
L 134.400407 68.36157 
L 134.157188 68.101763 
L 133.899976 67.846052 
L 133.62951 67.594612 
L 133.346543 67.347599 
L 133.051837 67.105148 
L 132.746159 66.867378 
L 132.430275 66.634387 
L 132.104945 66.406257 
L 131.770925 66.183051 
L 131.428955 65.964817 
L 131.079761 65.751588 
L 130.724054 65.543379 
L 130.36252 65.340196 
L 129.995827 65.142027 
L 129.624618 64.948851 
L 129.249508 64.760637 
L 128.871089 64.577342 
L 128.489925 64.398913 
L 128.106551 64.225293 
L 127.721476 64.056413 
L 127.335179 63.892201 
L 126.948113 63.732578 
L 126.560703 63.57746 
L 126.173347 63.426759 
L 125.786415 63.280385 
L 125.400254 63.138244 
L 125.015185 63.000238 
L 124.631504 62.866272 
L 124.249484 62.736245 
L 123.869378 62.610058 
L 123.491416 62.487611 
L 123.115807 62.368804 
L 122.742743 62.253538 
L 122.372396 62.141713 
L 122.004923 62.033233 
L 121.640461 61.927999 
L 121.279136 61.825917 
L 120.921056 61.726892 
L 120.56632 61.630832 
L 120.21501 61.537647 
L 119.867199 61.447247 
L 119.522947 61.359547 
L 119.182307 61.274461 
L 118.84532 61.191907 
L 118.512019 61.111805 
L 118.18243 61.034075 
L 117.85657 60.958642 
L 117.53445 60.885431 
L 117.216075 60.814371 
L 116.901443 60.745391 
L 116.590549 60.678425 
L 116.283382 60.613406 
L 115.979925 60.55027 
L 115.68016 60.488956 
L 115.384064 60.429405 
L 115.091611 60.371559 
L 114.802771 60.315361 
L 114.517513 60.260759 
L 114.235803 60.2077 
L 113.957606 60.156133 
L 113.682882 60.10601 
L 113.411594 60.057283 
L 113.143699 60.009909 
L 112.879157 59.963842 
L 112.617923 59.91904 
L 112.359955 59.875463 
L 112.105208 59.833071 
L 111.853636 59.791826 
L 111.605195 59.751692 
L 111.359837 59.712633 
L 111.117517 59.674614 
L 110.878188 59.637604 
L 110.641805 59.601569 
L 110.40832 59.566481 
L 110.177688 59.532308 
L 109.949862 59.499022 
L 109.724796 59.466596 
L 109.502446 59.435003 
L 109.282765 59.404218 
L 109.065708 59.374215 
L 108.851231 59.344972 
L 108.63929 59.316464 
L 108.429841 59.28867 
L 108.222841 59.261568 
L 108.018247 59.235138 
L 107.816017 59.209359 
L 107.616109 59.184212 
L 107.418482 59.159678 
L 107.223096 59.13574 
L 107.02991 59.11238 
L 106.838886 59.089582 
L 106.649984 59.067328 
L 106.463166 59.045604 
L 106.278395 59.024394 
L 106.095633 59.003684 
L 105.914845 58.983459 
L 105.735993 58.963706 
L 105.559044 58.944412 
L 105.383962 58.925564 
L 105.210713 58.907149 
L 105.039264 58.889156 
L 104.869582 58.871573 
L 104.701635 58.854389 
L 104.535391 58.837593 
L 104.370818 58.821175 
L 104.207886 58.805125 
L 104.046565 58.789433 
L 103.886826 58.774089 
L 103.728639 58.759084 
L 103.571976 58.74441 
L 103.416809 58.730057 
L 103.263111 58.716018 
L 103.110854 58.702285 
L 102.960012 58.688849 
L 102.81056 58.675704 
L 102.662471 58.662841 
L 102.515721 58.650255 
L 102.370284 58.637937 
L 102.226138 58.625881 
L 102.083259 58.614082 
L 101.941622 58.602532 
L 101.801206 58.591226 
L 101.661987 58.580157 
L 101.523945 58.56932 
L 101.387057 58.55871 
L 101.251303 58.548322 
L 101.116661 58.538149 
L 100.983111 58.528187 
L 100.850633 58.518431 
L 100.719207 58.508876 
L 100.588815 58.499519 
L 100.459437 58.490353 
L 100.331054 58.481375 
L 100.203649 58.472582 
L 100.077203 58.463967 
L 99.951699 58.455529 
L 99.827119 58.447262 
L 99.703446 58.439164 
L 99.580664 58.431229 
L 99.458756 58.423456 
L 99.337707 58.415841 
L 99.217499 58.408379 
L 99.098118 58.401069 
L 98.979549 58.393906 
L 98.861776 58.386888 
L 98.744784 58.380012 
L 98.628559 58.373275 
L 98.513087 58.366674 
L 98.398354 58.360206 
L 98.284345 58.35387 
L 98.171048 58.347661 
L 98.058448 58.341578 
L 97.946533 58.335618 
L 97.83529 58.329779 
L 97.724706 58.324059 
L 97.614768 58.318455 
L 97.505465 58.312966 
L 97.396783 58.307588 
L 97.288712 58.30232 
L 97.181239 58.297161 
L 97.074352 58.292107 
L 96.968041 58.287158 
L 96.862294 58.282311 
L 96.7571 58.277564 
L 96.652448 58.272917 
L 96.548328 58.268366 
L 96.444729 58.263911 
L 96.34164 58.25955 
L 96.239051 58.255281 
L 96.136952 58.251103 
L 96.035333 58.247014 
L 95.934185 58.243014 
L 95.833497 58.239099 
L 95.73326 58.23527 
L 95.633464 58.231525 
L 95.5341 58.227862 
L 95.43516 58.22428 
L 95.336633 58.220779 
L 95.238511 58.217356 
L 95.140786 58.214011 
L 95.043447 58.210743 
L 94.946487 58.207551 
L 94.849898 58.204433 
L 94.75367 58.201388 
L 94.657796 58.198416 
L 94.562267 58.195515 
L 94.467074 58.192686 
L 94.372211 58.189925 
L 94.277669 58.187234 
L 94.183441 58.184611 
L 94.089517 58.182054 
L 93.995892 58.179564 
L 93.902556 58.17714 
L 93.809503 58.17478 
L 93.716725 58.172485 
L 93.624215 58.170253 
L 93.531966 58.168083 
L 93.439969 58.165975 
L 93.348219 58.163929 
L 93.256707 58.161944 
L 93.165428 58.160018 
L 93.074373 58.158152 
L 92.983536 58.156345 
L 92.89291 58.154597 
L 92.802488 58.152906 
L 92.712264 58.151273 
L 92.62223 58.149697 
L 92.53238 58.148177 
L 92.442708 58.146713 
L 92.353207 58.145305 
L 92.26387 58.143951 
L 92.174691 58.142653 
L 92.085663 58.141409 
L 91.99678 58.140219 
L 91.908036 58.139082 
L 91.819424 58.137999 
L 91.730938 58.136969 
L 91.642571 58.135992 
L 91.554318 58.135067 
L 91.466173 58.134194 
L 91.378128 58.133373 
L 91.290178 58.132604 
L 91.202317 58.131886 
L 91.114539 58.131219 
L 91.026837 58.130604 
L 90.939205 58.130039 
L 90.851638 58.129525 
L 90.76413 58.129062 
L 90.676673 58.128649 
L 90.589263 58.128287 
L 90.501893 58.127974 
L 90.414558 58.127712 
L 90.327251 58.1275 
L 90.239966 58.127337 
L 90.152698 58.127225 
L 90.06544 58.127163 
L 89.978187 58.12715 
L 89.890932 58.127188 
L 89.80367 58.127275 
L 89.716394 58.127412 
L 89.629099 58.1276 
L 89.541778 58.127837 
L 89.454426 58.128124 
L 89.367037 58.128462 
L 89.279605 58.128849 
L 89.192123 58.129287 
L 89.104586 58.129776 
L 89.016987 58.130315 
L 88.929321 58.130905 
L 88.841582 58.131546 
L 88.753763 58.132239 
L 88.665858 58.132982 
L 88.577862 58.133777 
L 88.489767 58.134624 
L 88.401569 58.135523 
L 88.31326 58.136474 
L 88.224835 58.137478 
L 88.136286 58.138534 
L 88.047609 58.139644 
L 87.958796 58.140807 
L 87.869842 58.142024 
L 87.780739 58.143295 
L 87.691482 58.144621 
L 87.602063 58.146002 
L 87.512477 58.147438 
L 87.422717 58.14893 
L 87.332777 58.150478 
L 87.242648 58.152082 
L 87.152326 58.153744 
L 87.061803 58.155464 
L 86.971073 58.157241 
L 86.880127 58.159078 
L 86.788961 58.160973 
L 86.697566 58.162929 
L 86.605936 58.164945 
L 86.514064 58.167021 
L 86.421941 58.16916 
L 86.329563 58.171361 
L 86.23692 58.173625 
L 86.144005 58.175952 
L 86.050812 58.178344 
L 85.957332 58.180801 
L 85.863559 58.183324 
L 85.769484 58.185914 
L 85.675099 58.188571 
L 85.580398 58.191297 
L 85.485371 58.194092 
L 85.390011 58.196957 
L 85.294311 58.199893 
L 85.198261 58.202901 
L 85.101853 58.205982 
L 85.005079 58.209138 
L 84.907931 58.212368 
L 84.810401 58.215674 
L 84.712478 58.219058 
L 84.614155 58.222519 
L 84.515422 58.226061 
L 84.416271 58.229683 
L 84.316693 58.233387 
L 84.216678 58.237174 
L 84.116216 58.241046 
L 84.015299 58.245003 
L 83.913917 58.249048 
L 83.812059 58.253181 
L 83.709717 58.257404 
L 83.606879 58.261719 
L 83.503536 58.266127 
L 83.399677 58.27063 
L 83.295293 58.275228 
L 83.190371 58.279925 
L 83.084902 58.284722 
L 82.978875 58.28962 
L 82.872277 58.294621 
L 82.765099 58.299727 
L 82.657328 58.304941 
L 82.548953 58.310263 
L 82.439962 58.315696 
L 82.330343 58.321243 
L 82.220083 58.326905 
L 82.109171 58.332684 
L 81.997594 58.338583 
L 81.885338 58.344604 
L 81.772391 58.350749 
L 81.65874 58.357022 
L 81.544371 58.363424 
L 81.42927 58.369958 
L 81.313423 58.376626 
L 81.196817 58.383433 
L 81.079436 58.390379 
L 80.961267 58.397469 
L 80.842294 58.404705 
L 80.722501 58.412091 
L 80.601875 58.419629 
L 80.480398 58.427323 
L 80.358055 58.435176 
L 80.23483 58.443192 
L 80.110706 58.451374 
L 79.985666 58.459726 
L 79.859693 58.468252 
L 79.732769 58.476956 
L 79.604878 58.485841 
L 79.476 58.494912 
L 79.346117 58.504173 
L 79.21521 58.513629 
L 79.083261 58.523283 
L 78.95025 58.533142 
L 78.816156 58.543208 
L 78.68096 58.553489 
L 78.544642 58.563987 
L 78.407179 58.57471 
L 78.268552 58.585662 
L 78.128737 58.596849 
L 77.987714 58.608276 
L 77.845458 58.61995 
L 77.701948 58.631877 
L 77.55716 58.644062 
L 77.41107 58.656514 
L 77.263654 58.669238 
L 77.114886 58.682241 
L 76.964742 58.69553 
L 76.813196 58.709114 
L 76.660222 58.722999 
L 76.505792 58.737194 
L 76.349881 58.751706 
L 76.19246 58.766544 
L 76.0335 58.781718 
L 75.872974 58.797235 
L 75.710851 58.813105 
L 75.547103 58.829338 
L 75.381698 58.845943 
L 75.214606 58.862932 
L 75.045795 58.880314 
L 74.875234 58.898101 
L 74.70289 58.916303 
L 74.528728 58.934933 
L 74.352717 58.954003 
L 74.174821 58.973524 
L 73.995005 58.993512 
L 73.813235 59.013977 
L 73.629473 59.034936 
L 73.443683 59.056401 
L 73.255828 59.078388 
L 73.065869 59.100912 
L 72.873769 59.123989 
L 72.679488 59.147636 
L 72.482987 59.171869 
L 72.284225 59.196707 
L 72.083161 59.222168 
L 71.879754 59.24827 
L 71.673962 59.275034 
L 71.465743 59.302479 
L 71.255054 59.330628 
L 71.04185 59.3595 
L 70.826089 59.38912 
L 70.607726 59.419511 
L 70.386715 59.450697 
L 70.163013 59.482703 
L 69.936573 59.515556 
L 69.70735 59.549281 
L 69.475297 59.583909 
L 69.240369 59.619466 
L 69.002519 59.655985 
L 68.7617 59.693495 
L 68.517867 59.73203 
L 68.270973 59.771623 
L 68.020972 59.812308 
L 67.767818 59.854121 
L 67.511466 59.897101 
L 67.251871 59.941285 
L 66.988988 59.986714 
L 66.722775 60.03343 
L 66.453189 60.081475 
L 66.180188 60.130894 
L 65.903732 60.181733 
L 65.623783 60.23404 
L 65.340304 60.287864 
L 65.053259 60.343257 
L 64.762616 60.400273 
L 64.468345 60.458964 
L 64.170417 60.519389 
L 63.868809 60.581606 
L 63.563499 60.645676 
L 63.25447 60.711661 
L 62.941709 60.779625 
L 62.625206 60.849637 
L 62.304958 60.921763 
L 61.980967 60.996076 
L 61.65324 61.072648 
L 61.321793 61.151555 
L 60.986645 61.232873 
L 60.647827 61.316683 
L 60.305376 61.403065 
L 59.959337 61.492104 
L 59.609768 61.583886 
L 59.256735 61.678497 
L 58.900316 61.776028 
L 58.540601 61.87657 
L 58.177693 61.980216 
L 57.811709 62.087061 
L 57.44278 62.197202 
L 57.071054 62.310735 
L 56.696695 62.427759 
L 56.319884 62.548373 
L 55.940823 62.672677 
L 55.55973 62.800772 
L 55.176847 62.932756 
L 54.792436 63.06873 
L 54.406782 63.208791 
L 54.020195 63.353037 
L 53.633006 63.501563 
L 53.245574 63.654461 
L 52.858285 63.811821 
L 52.471549 63.973729 
L 52.085805 64.140265 
L 51.701518 64.311506 
L 51.319184 64.487523 
L 50.939324 64.668378 
L 50.562487 64.854126 
L 50.189252 65.044817 
L 49.820222 65.240485 
L 49.456027 65.44116 
L 49.097322 65.646855 
L 48.744784 65.857576 
L 48.399112 66.07331 
L 48.061025 66.294035 
L 47.731257 66.51971 
L 47.410555 66.75028 
L 47.099678 66.985672 
L 46.79939 67.225795 
L 46.510458 67.470543 
L 46.233647 67.719788 
L 45.969715 67.973384 
L 45.719408 68.231166 
L 45.483457 68.492951 
L 45.262568 68.758534 
L 45.057422 69.027693 
L 44.868667 69.300189 
L 44.696912 69.575763 
L 44.542722 69.85414 
L 44.406615 70.135031 
L 44.289054 70.418131 
L 44.190446 70.703123 
L 44.111137 70.989678 
L 44.051406 71.277459 
L 44.011466 71.566122 
L 43.99146 71.855315 
L 43.99146 72.144685 
L 44.011466 72.433878 
L 44.051406 72.722541 
L 44.111137 73.010322 
L 44.190446 73.296877 
L 44.289054 73.581869 
L 44.406615 73.864969 
L 44.542722 74.14586 
L 44.696912 74.424237 
L 44.868667 74.699811 
L 45.057422 74.972307 
L 45.262568 75.241466 
L 45.483457 75.507049 
L 45.719408 75.768834 
L 45.969715 76.026616 
L 46.233647 76.280212 
L 46.510458 76.529457 
L 46.79939 76.774205 
L 47.099678 77.014328 
L 47.410555 77.24972 
L 47.731257 77.48029 
L 48.061025 77.705965 
L 48.399112 77.92669 
L 48.744784 78.142424 
L 49.097322 78.353145 
L 49.456027 78.55884 
L 49.820222 78.759515 
L 50.189252 78.955183 
L 50.562487 79.145874 
L 50.939324 79.331622 
L 51.319184 79.512477 
L 51.701518 79.688494 
L 52.085805 79.859735 
L 52.471549 80.026271 
L 52.858285 80.188179 
L 53.245574 80.345539 
L 53.633006 80.498437 
L 54.020195 80.646963 
L 54.406782 80.791209 
L 54.792436 80.93127 
L 55.176847 81.067244 
L 55.55973 81.199228 
L 55.940823 81.327323 
L 56.319884 81.451627 
L 56.696695 81.572241 
L 57.071054 81.689265 
L 57.44278 81.802798 
L 57.811709 81.912939 
L 58.177693 82.019784 
L 58.540601 82.12343 
L 58.900316 82.223972 
L 59.256735 82.321503 
L 59.609768 82.416114 
L 59.959337 82.507896 
L 60.305376 82.596935 
L 60.647827 82.683317 
L 60.986645 82.767127 
L 61.321793 82.848445 
L 61.65324 82.927352 
L 61.980967 83.003924 
L 62.304958 83.078237 
L 62.625206 83.150363 
L 62.941709 83.220375 
L 63.25447 83.288339 
L 63.563499 83.354324 
L 63.868809 83.418394 
L 64.170417 83.480611 
L 64.468345 83.541036 
L 64.762616 83.599727 
L 65.053259 83.656743 
L 65.340304 83.712136 
L 65.623783 83.76596 
L 65.903732 83.818267 
L 66.180188 83.869106 
L 66.453189 83.918525 
L 66.722775 83.96657 
L 66.988988 84.013286 
L 67.251871 84.058715 
L 67.511466 84.102899 
L 67.767818 84.145879 
L 68.020972 84.187692 
L 68.270973 84.228377 
L 68.517867 84.26797 
L 68.7617 84.306505 
L 69.002519 84.344015 
L 69.240369 84.380534 
L 69.475297 84.416091 
L 69.70735 84.450719 
L 69.936573 84.484444 
L 70.163013 84.517297 
L 70.386715 84.549303 
L 70.607726 84.580489 
L 70.826089 84.61088 
L 71.04185 84.6405 
L 71.255054 84.669372 
L 71.465743 84.697521 
L 71.673962 84.724966 
L 71.879754 84.75173 
L 72.083161 84.777832 
L 72.284225 84.803293 
L 72.482987 84.828131 
L 72.679488 84.852364 
L 72.873769 84.876011 
L 73.065869 84.899088 
L 73.255828 84.921612 
L 73.443683 84.943599 
L 73.629473 84.965064 
L 73.813235 84.986023 
L 73.995005 85.006488 
L 74.174821 85.026476 
L 74.352717 85.045997 
L 74.528728 85.065067 
L 74.70289 85.083697 
L 74.875234 85.101899 
L 75.045795 85.119686 
L 75.214606 85.137068 
L 75.381698 85.154057 
L 75.547103 85.170662 
L 75.710851 85.186895 
L 75.872974 85.202765 
L 76.0335 85.218282 
L 76.19246 85.233456 
L 76.349881 85.248294 
L 76.505792 85.262806 
L 76.660222 85.277001 
L 76.813196 85.290886 
L 76.964742 85.30447 
L 77.114886 85.317759 
L 77.263654 85.330762 
L 77.41107 85.343486 
L 77.55716 85.355938 
L 77.701948 85.368123 
L 77.845458 85.38005 
L 77.987714 85.391724 
L 78.128737 85.403151 
L 78.268552 85.414338 
L 78.407179 85.42529 
L 78.544642 85.436013 
L 78.68096 85.446511 
L 78.816156 85.456792 
L 78.95025 85.466858 
L 79.083261 85.476717 
L 79.21521 85.486371 
L 79.346117 85.495827 
L 79.476 85.505088 
L 79.604878 85.514159 
L 79.732769 85.523044 
L 79.859693 85.531748 
L 79.985666 85.540274 
L 80.110706 85.548626 
L 80.23483 85.556808 
L 80.358055 85.564824 
L 80.480398 85.572677 
L 80.601875 85.580371 
L 80.722501 85.587909 
L 80.842294 85.595295 
L 80.961267 85.602531 
L 81.079436 85.609621 
L 81.196817 85.616567 
L 81.313423 85.623374 
L 81.42927 85.630042 
L 81.544371 85.636576 
L 81.65874 85.642978 
L 81.772391 85.649251 
L 81.885338 85.655396 
L 81.997594 85.661417 
L 82.109171 85.667316 
L 82.220083 85.673095 
L 82.330343 85.678757 
L 82.439962 85.684304 
L 82.548953 85.689737 
L 82.657328 85.695059 
L 82.765099 85.700273 
L 82.872277 85.705379 
L 82.978875 85.71038 
L 83.084902 85.715278 
L 83.190371 85.720075 
L 83.295293 85.724772 
L 83.399677 85.72937 
L 83.503536 85.733873 
L 83.606879 85.738281 
L 83.709717 85.742596 
L 83.812059 85.746819 
L 83.913917 85.750952 
L 84.015299 85.754997 
L 84.116216 85.758954 
L 84.216678 85.762826 
L 84.316693 85.766613 
L 84.416271 85.770317 
L 84.515422 85.773939 
L 84.614155 85.777481 
L 84.712478 85.780942 
L 84.810401 85.784326 
L 84.907931 85.787632 
L 85.005079 85.790862 
L 85.101853 85.794018 
L 85.198261 85.797099 
L 85.294311 85.800107 
L 85.390011 85.803043 
L 85.485371 85.805908 
L 85.580398 85.808703 
L 85.675099 85.811429 
L 85.769484 85.814086 
L 85.863559 85.816676 
L 85.957332 85.819199 
L 86.050812 85.821656 
L 86.144005 85.824048 
L 86.23692 85.826375 
L 86.329563 85.828639 
L 86.421941 85.83084 
L 86.514064 85.832979 
L 86.605936 85.835055 
L 86.697566 85.837071 
L 86.788961 85.839027 
L 86.880127 85.840922 
L 86.971073 85.842759 
L 87.061803 85.844536 
L 87.152326 85.846256 
L 87.242648 85.847918 
L 87.332777 85.849522 
L 87.422717 85.85107 
L 87.512477 85.852562 
L 87.602063 85.853998 
L 87.691482 85.855379 
L 87.780739 85.856705 
L 87.869842 85.857976 
L 87.958796 85.859193 
L 88.047609 85.860356 
L 88.136286 85.861466 
L 88.224835 85.862522 
L 88.31326 85.863526 
L 88.401569 85.864477 
L 88.489767 85.865376 
L 88.577862 85.866223 
L 88.665858 85.867018 
L 88.753763 85.867761 
L 88.841582 85.868454 
L 88.929321 85.869095 
L 89.016987 85.869685 
L 89.104586 85.870224 
L 89.192123 85.870713 
L 89.279605 85.871151 
L 89.367037 85.871538 
L 89.454426 85.871876 
L 89.541778 85.872163 
L 89.629099 85.8724 
L 89.716394 85.872588 
L 89.80367 85.872725 
L 89.890932 85.872812 
L 89.978187 85.87285 
L 90.06544 85.872837 
L 90.152698 85.872775 
L 90.239966 85.872663 
L 90.327251 85.8725 
L 90.414558 85.872288 
L 90.501893 85.872026 
L 90.589263 85.871713 
L 90.676673 85.871351 
L 90.76413 85.870938 
L 90.851638 85.870475 
L 90.939205 85.869961 
L 91.026837 85.869396 
L 91.114539 85.868781 
L 91.202317 85.868114 
L 91.290178 85.867396 
L 91.378128 85.866627 
L 91.466173 85.865806 
L 91.554318 85.864933 
L 91.642571 85.864008 
L 91.730938 85.863031 
L 91.819424 85.862001 
L 91.908036 85.860918 
L 91.99678 85.859781 
L 92.085663 85.858591 
L 92.174691 85.857347 
L 92.26387 85.856049 
L 92.353207 85.854695 
L 92.442708 85.853287 
L 92.53238 85.851823 
L 92.62223 85.850303 
L 92.712264 85.848727 
L 92.802488 85.847094 
L 92.89291 85.845403 
L 92.983536 85.843655 
L 93.074373 85.841848 
L 93.165428 85.839982 
L 93.256707 85.838056 
L 93.348219 85.836071 
L 93.439969 85.834025 
L 93.531966 85.831917 
L 93.624215 85.829747 
L 93.716725 85.827515 
L 93.809503 85.82522 
L 93.902556 85.82286 
L 93.995892 85.820436 
L 94.089517 85.817946 
L 94.183441 85.815389 
L 94.277669 85.812766 
L 94.372211 85.810075 
L 94.467074 85.807314 
L 94.562267 85.804485 
L 94.657796 85.801584 
L 94.75367 85.798612 
L 94.849898 85.795567 
L 94.946487 85.792449 
L 95.043447 85.789257 
L 95.140786 85.785989 
L 95.238511 85.782644 
L 95.336633 85.779221 
L 95.43516 85.77572 
L 95.5341 85.772138 
L 95.633464 85.768475 
L 95.73326 85.76473 
L 95.833497 85.760901 
L 95.934185 85.756986 
L 96.035333 85.752986 
L 96.136952 85.748897 
L 96.239051 85.744719 
L 96.34164 85.74045 
L 96.444729 85.736089 
L 96.548328 85.731634 
L 96.652448 85.727083 
L 96.7571 85.722436 
L 96.862294 85.717689 
L 96.968041 85.712842 
L 97.074352 85.707893 
L 97.181239 85.702839 
L 97.288712 85.69768 
L 97.396783 85.692412 
L 97.505465 85.687034 
L 97.614768 85.681545 
L 97.724706 85.675941 
L 97.83529 85.670221 
L 97.946533 85.664382 
L 98.058448 85.658422 
L 98.171048 85.652339 
L 98.284345 85.64613 
L 98.398354 85.639794 
L 98.513087 85.633326 
L 98.628559 85.626725 
L 98.744784 85.619988 
L 98.861776 85.613112 
L 98.979549 85.606094 
L 99.098118 85.598931 
L 99.217499 85.591621 
L 99.337707 85.584159 
L 99.458756 85.576544 
L 99.580664 85.568771 
L 99.703446 85.560836 
L 99.827119 85.552738 
L 99.951699 85.544471 
L 100.077203 85.536033 
L 100.203649 85.527418 
L 100.331054 85.518625 
L 100.459437 85.509647 
L 100.588815 85.500481 
L 100.719207 85.491124 
L 100.850633 85.481569 
L 100.983111 85.471813 
L 101.116661 85.461851 
L 101.251303 85.451678 
L 101.387057 85.44129 
L 101.523945 85.43068 
L 101.661987 85.419843 
L 101.801206 85.408774 
L 101.941622 85.397468 
L 102.083259 85.385918 
L 102.226138 85.374119 
L 102.370284 85.362063 
L 102.515721 85.349745 
L 102.662471 85.337159 
L 102.81056 85.324296 
L 102.960012 85.311151 
L 103.110854 85.297715 
L 103.263111 85.283982 
L 103.416809 85.269943 
L 103.571976 85.25559 
L 103.728639 85.240916 
L 103.886826 85.225911 
L 104.046565 85.210567 
L 104.207886 85.194875 
L 104.370818 85.178825 
L 104.535391 85.162407 
L 104.701635 85.145611 
L 104.869582 85.128427 
L 105.039264 85.110844 
L 105.210713 85.092851 
L 105.383962 85.074436 
L 105.559044 85.055588 
L 105.735993 85.036294 
L 105.914845 85.016541 
L 106.095633 84.996316 
L 106.278395 84.975606 
L 106.463166 84.954396 
L 106.649984 84.932672 
L 106.838886 84.910418 
L 107.02991 84.88762 
L 107.223096 84.86426 
L 107.418482 84.840322 
L 107.616109 84.815788 
L 107.816017 84.790641 
L 108.018247 84.764862 
L 108.222841 84.738432 
L 108.429841 84.71133 
L 108.63929 84.683536 
L 108.851231 84.655028 
L 109.065708 84.625785 
L 109.282765 84.595782 
L 109.502446 84.564997 
L 109.724796 84.533404 
L 109.949862 84.500978 
L 110.177688 84.467692 
L 110.40832 84.433519 
L 110.641805 84.398431 
L 110.878188 84.362396 
L 111.117517 84.325386 
L 111.359837 84.287367 
L 111.605195 84.248308 
L 111.853636 84.208174 
L 112.105208 84.166929 
L 112.359955 84.124537 
L 112.617923 84.08096 
L 112.879157 84.036158 
L 113.143699 83.990091 
L 113.411594 83.942717 
L 113.682882 83.89399 
L 113.957606 83.843867 
L 114.235803 83.7923 
L 114.517513 83.739241 
L 114.802771 83.684639 
L 115.091611 83.628441 
L 115.384064 83.570595 
L 115.68016 83.511044 
L 115.979925 83.44973 
L 116.283382 83.386594 
L 116.590549 83.321575 
L 116.901443 83.254609 
L 117.216075 83.185629 
L 117.53445 83.114569 
L 117.85657 83.041358 
L 118.18243 82.965925 
L 118.512019 82.888195 
L 118.84532 82.808093 
L 119.182307 82.725539 
L 119.522947 82.640453 
L 119.867199 82.552753 
L 120.21501 82.462353 
L 120.56632 82.369168 
L 120.921056 82.273108 
L 121.279136 82.174083 
L 121.640461 82.072001 
L 122.004923 81.966767 
L 122.372396 81.858287 
L 122.742743 81.746462 
L 123.115807 81.631196 
L 123.491416 81.512389 
L 123.869378 81.389942 
L 124.249484 81.263755 
L 124.631504 81.133728 
L 125.015185 80.999762 
L 125.400254 80.861756 
L 125.786415 80.719615 
L 126.173347 80.573241 
L 126.560703 80.42254 
L 126.948113 80.267422 
L 127.335179 80.107799 
L 127.721476 79.943587 
L 128.106551 79.774707 
L 128.489925 79.601087 
L 128.871089 79.422658 
L 129.249508 79.239363 
L 129.624618 79.051149 
L 129.995827 78.857973 
L 130.36252 78.659804 
L 130.724054 78.456621 
L 131.079761 78.248412 
L 131.428955 78.035183 
L 131.770925 77.816949 
L 132.104945 77.593743 
L 132.430275 77.365613 
L 132.746159 77.132622 
L 133.051837 76.894852 
L 133.346543 76.652401 
L 133.62951 76.405388 
L 133.899976 76.153948 
L 134.157188 75.898237 
L 134.400407 75.63843 
L 134.628914 75.374719 
L 134.842014 75.107319 
L 135.039043 74.83646 
L 135.219372 74.562392 
L 135.382412 74.285381 
L 135.527622 74.00571 
L 135.654511 73.723676 
L 135.762642 73.439589 
L 135.85164 73.153774 
L 135.921191 72.866563 
L 135.971048 72.578298 
L 136.001035 72.289326 
L 136.011042 72 
L 136.011042 72 
z
" clip-path="url(#pe09fb8f214)" style="fill: none"/>
   </g>
   <g id="line2d_1">
    <path d="M 136.011042 180 
L 135.921191 179.133437 
L 135.654511 178.276324 
L 135.039043 177.16354 
L 134.157188 176.101763 
L 133.051837 175.105148 
L 131.428955 173.964817 
L 129.249508 172.760637 
L 126.560703 171.57746 
L 123.491416 170.487611 
L 119.867199 169.447247 
L 115.68016 168.488956 
L 111.117517 167.674614 
L 106.095633 167.003684 
L 100.719207 166.508876 
L 95.043447 166.210743 
L 89.279605 166.128849 
L 83.503536 166.266127 
L 77.845458 166.61995 
L 72.482987 167.171869 
L 67.511466 167.897101 
L 62.941709 168.779625 
L 58.900316 169.776028 
L 55.55973 170.800772 
L 52.471549 171.973729 
L 50.189252 173.044817 
L 48.061025 174.294035 
L 46.510458 175.470543 
L 45.483457 176.492951 
L 44.696912 177.575763 
L 44.190446 178.703123 
L 44.011466 179.566122 
L 44.011466 180.433878 
L 44.190446 181.296877 
L 44.696912 182.424237 
L 45.483457 183.507049 
L 46.510458 184.529457 
L 48.061025 185.705965 
L 49.820222 186.759515 
L 52.085805 187.859735 
L 54.792436 188.93127 
L 58.177693 190.019784 
L 61.980967 191.003924 
L 66.453189 191.918525 
L 71.255054 192.669372 
L 76.505792 193.262806 
L 82.109171 193.667316 
L 87.869842 193.857976 
L 93.716725 193.827515 
L 99.458756 193.576544 
L 105.039264 193.110844 
L 110.177688 192.467692 
L 115.091611 191.628441 
L 119.522947 190.640453 
L 123.115807 189.631196 
L 126.173347 188.573241 
L 128.871089 187.422658 
L 131.079761 186.248412 
L 132.746159 185.132622 
L 134.157188 183.898237 
L 135.039043 182.83646 
L 135.654511 181.723676 
L 135.921191 180.866563 
L 136.011042 180 
L 136.011042 180 
" clip-path="url(#pe09fb8f214)" style="fill: none; stroke: #8500ff; stroke-width: 3; stroke-linecap: round"/>
   </g>
   <g id="line2d_2">
    <path d="M 136.011042 126 
L 135.921191 125.133437 
L 135.654511 124.276324 
L 135.039043 123.16354 
L 134.157188 122.101763 
L 133.051837 121.105148 
L 131.428955 119.964817 
L 129.249508 118.760637 
L 126.560703 117.57746 
L 123.491416 116.487611 
L 119.867199 115.447247 
L 115.68016 114.488956 
L 111.117517 113.674614 
L 106.095633 113.003684 
L 100.719207 112.508876 
L 95.043447 112.210743 
L 89.279605 112.128849 
L 83.503536 112.266127 
L 77.845458 112.61995 
L 72.482987 113.171869 
L 67.511466 113.897101 
L 62.941709 114.779625 
L 58.900316 115.776028 
L 55.55973 116.800772 
L 52.471549 117.973729 
L 50.189252 119.044817 
L 48.061025 120.294035 
L 46.510458 121.470543 
L 45.483457 122.492951 
L 44.696912 123.575763 
L 44.190446 124.703123 
L 44.011466 125.566122 
L 44.011466 126.433878 
L 44.190446 127.296877 
L 44.696912 128.424237 
L 45.483457 129.507049 
L 46.510458 130.529457 
L 48.061025 131.705965 
L 49.820222 132.759515 
L 52.085805 133.859735 
L 54.792436 134.93127 
L 58.177693 136.019784 
L 61.980967 137.003924 
L 66.453189 137.918525 
L 71.255054 138.669372 
L 76.505792 139.262806 
L 82.109171 139.667316 
L 87.869842 139.857976 
L 93.716725 139.827515 
L 99.458756 139.576544 
L 105.039264 139.110844 
L 110.177688 138.467692 
L 115.091611 137.628441 
L 119.522947 136.640453 
L 123.115807 135.631196 
L 126.173347 134.573241 
L 128.871089 133.422658 
L 131.079761 132.248412 
L 132.746159 131.132622 
L 134.157188 129.898237 
L 135.039043 128.83646 
L 135.654511 127.723676 
L 135.921191 126.866563 
L 136.011042 126 
L 136.011042 126 
" clip-path="url(#pe09fb8f214)" style="fill: none; stroke: #8500ff; stroke-width: 3; stroke-linecap: round"/>
   </g>
   <g id="line2d_3">
    <path d="M 136.011042 72 
L 135.921191 71.133437 
L 135.654511 70.276324 
L 135.039043 69.16354 
L 134.157188 68.101763 
L 133.051837 67.105148 
L 131.428955 65.964817 
L 129.249508 64.760637 
L 126.560703 63.57746 
L 123.491416 62.487611 
L 119.867199 61.447247 
L 115.68016 60.488956 
L 111.117517 59.674614 
L 106.095633 59.003684 
L 100.719207 58.508876 
L 95.043447 58.210743 
L 89.279605 58.128849 
L 83.503536 58.266127 
L 77.845458 58.61995 
L 72.482987 59.171869 
L 67.511466 59.897101 
L 62.941709 60.779625 
L 58.900316 61.776028 
L 55.55973 62.800772 
L 52.471549 63.973729 
L 50.189252 65.044817 
L 48.061025 66.294035 
L 46.510458 67.470543 
L 45.483457 68.492951 
L 44.696912 69.575763 
L 44.190446 70.703123 
L 44.011466 71.566122 
L 44.011466 72.433878 
L 44.190446 73.296877 
L 44.696912 74.424237 
L 45.483457 75.507049 
L 46.510458 76.529457 
L 48.061025 77.705965 
L 49.820222 78.759515 
L 52.085805 79.859735 
L 54.792436 80.93127 
L 58.177693 82.019784 
L 61.980967 83.003924 
L 66.453189 83.918525 
L 71.255054 84.669372 
L 76.505792 85.262806 
L 82.109171 85.667316 
L 87.869842 85.857976 
L 93.716725 85.827515 
L 99.458756 85.576544 
L 105.039264 85.110844 
L 110.177688 84.467692 
L 115.091611 83.628441 
L 119.522947 82.640453 
L 123.115807 81.631196 
L 126.173347 80.573241 
L 128.871089 79.422658 
L 131.079761 78.248412 
L 132.746159 77.132622 
L 134.157188 75.898237 
L 135.039043 74.83646 
L 135.654511 73.723676 
L 135.921191 72.866563 
L 136.011042 72 
L 136.011042 72 
" clip-path="url(#pe09fb8f214)" style="fill: none; stroke: #8500ff; stroke-width: 3; stroke-linecap: round"/>
   </g>
  </g>
 </g>
 <defs>
  <clipPath id="pe09fb8f214">
   <rect x="0" y="0" width="180" height="252"/>
  </clipPath>
 </defs>
</svg>
