<?xml version="1.0" encoding="utf-8" standalone="no"?>
<!DOCTYPE svg PUBLIC "-//W3C//DTD SVG 1.1//EN"
  "http://www.w3.org/Graphics/SVG/1.1/DTD/svg11.dtd">
<svg xmlns:xlink="http://www.w3.org/1999/xlink" width="180pt" height="252pt" viewBox="0 0 180 252" xmlns="http://www.w3.org/2000/svg" version="1.1">
 <metadata>
  <rdf:RDF xmlns:dc="http://purl.org/dc/elements/1.1/" xmlns:cc="http://creativecommons.org/ns#" xmlns:rdf="http://www.w3.org/1999/02/22-rdf-syntax-ns#">
   <cc:Work>
    <dc:type rdf:resource="http://purl.org/dc/dcmitype/StillImage"/>
    <dc:date>2024-11-16T19:22:15.342302</dc:date>
    <dc:format>image/svg+xml</dc:format>
    <dc:creator>
     <cc:Agent>
      <dc:title>Matplotlib v3.9.2, https://matplotlib.org/</dc:title>
     </cc:Agent>
    </dc:creator>
   </cc:Work>
  </rdf:RDF>
 </metadata>
 <defs>
  <style type="text/css">*{stroke-linejoin: round; stroke-linecap: butt}</style>
 </defs>
 <g id="figure_1">
  <g id="patch_1">
   <path d="M 0 252 
L 180 252 
L 180 0 
L 0 0 
z
" style="fill: #ffffff"/>
  </g>
  <g id="axes_1">
   <g id="patch_2">
    <path d="M 90 195.3 
L 142.2 180 
L 90 164.7 
L 37.8 180 
z
" clip-path="url(#pc40d608b2d)" style="fill: #fd7300; stroke: #fd7300; stroke-linejoin: miter"/>
   </g>
   <g id="patch_3">
    <path d="M 90 141.3 
L 142.2 126 
L 90 110.7 
L 37.8 126 
z
" clip-path="url(#pc40d608b2d)" style="fill: #fd7300; stroke: #fd7300; stroke-linejoin: miter"/>
   </g>
   <g id="patch_4">
    <path d="M 90 87.3 
L 142.2 72 
L 90 56.7 
L 37.8 72 
z
" clip-path="url(#pc40d608b2d)" style="fill: #fd7300; stroke: #fd7300; stroke-linejoin: miter"/>
   </g>
   <g id="line2d_1">
    <path d="M 90 195.3 
L 142.2 180 
L 90 164.7 
L 37.8 180 
L 90 195.3 
" clip-path="url(#pc40d608b2d)" style="fill: none; stroke: #fd7300; stroke-width: 3; stroke-linecap: square"/>
   </g>
   <g id="line2d_2">
    <path d="M 90 141.3 
L 142.2 126 
L 90 110.7 
L 37.8 126 
L 90 141.3 
" clip-path="url(#pc40d608b2d)" style="fill: none; stroke: #fd7300; stroke-width: 3; stroke-linecap: square"/>
   </g>
   <g id="line2d_3">
    <path d="M 90 87.3 
L 142.2 72 
L 90 56.7 
L 37.8 72 
L 90 87.3 
" clip-path="url(#pc40d608b2d)" style="fill: none; stroke: #fd7300; stroke-width: 3; stroke-linecap: square"/>
   </g>
  </g>
 </g>
 <defs>
  <clipPath id="pc40d608b2d">
   <rect x="0" y="0" width="180" height="252"/>
  </clipPath>
 </defs>
</svg>
