<?xml version="1.0" encoding="utf-8" standalone="no"?>
<!DOCTYPE svg PUBLIC "-//W3C//DTD SVG 1.1//EN"
  "http://www.w3.org/Graphics/SVG/1.1/DTD/svg11.dtd">
<svg xmlns:xlink="http://www.w3.org/1999/xlink" width="180pt" height="252pt" viewBox="0 0 180 252" xmlns="http://www.w3.org/2000/svg" version="1.1">
 <metadata>
  <rdf:RDF xmlns:dc="http://purl.org/dc/elements/1.1/" xmlns:cc="http://creativecommons.org/ns#" xmlns:rdf="http://www.w3.org/1999/02/22-rdf-syntax-ns#">
   <cc:Work>
    <dc:type rdf:resource="http://purl.org/dc/dcmitype/StillImage"/>
    <dc:date>2024-11-16T19:22:15.751359</dc:date>
    <dc:format>image/svg+xml</dc:format>
    <dc:creator>
     <cc:Agent>
      <dc:title>Matplotlib v3.9.2, https://matplotlib.org/</dc:title>
     </cc:Agent>
    </dc:creator>
   </cc:Work>
  </rdf:RDF>
 </metadata>
 <defs>
  <style type="text/css">*{stroke-linejoin: round; stroke-linecap: butt}</style>
 </defs>
 <g id="figure_1">
  <g id="patch_1">
   <path d="M 0 252 
L 180 252 
L 180 0 
L 0 0 
z
" style="fill: #ffffff"/>
  </g>
  <g id="axes_1">
   <g id="patch_2">
    <path d="M 136.011042 126 
L 135.021812 123.13878 
L 132.371804 120.592545 
L 128.767384 118.528199 
L 124.875489 116.951061 
L 121.115964 115.780532 
L 117.680404 114.918438 
L 114.620831 114.280433 
L 111.921935 113.802963 
L 109.542673 113.440686 
L 107.436355 113.161884 
L 105.559044 112.944412 
L 103.872382 112.772711 
L 102.343981 112.635726 
L 100.946875 112.525506 
L 99.658696 112.43626 
L 98.460845 112.363718 
L 97.33776 112.304701 
L 96.276299 112.256823 
L 95.265232 112.218282 
L 94.294835 112.187718 
L 93.35655 112.164113 
L 92.442708 112.146713 
L 91.546301 112.134985 
L 90.660777 112.12858 
L 89.779869 112.127308 
L 88.897425 112.131133 
L 88.007257 112.140166 
L 87.102975 112.154675 
L 86.177824 112.175098 
L 85.224491 112.202074 
L 84.234895 112.236479 
L 83.199932 112.279494 
L 82.109171 112.332684 
L 80.950485 112.398121 
L 79.709589 112.478558 
L 78.369488 112.577674 
L 76.909798 112.700435 
L 75.305958 112.853617 
L 73.528387 113.04658 
L 71.541743 113.292419 
L 69.304728 113.609675 
L 66.771427 114.024839 
L 63.896381 114.575875 
L 60.647827 115.316683 
L 57.037128 116.321227 
L 53.175136 117.682738 
L 49.357626 119.49676 
L 46.136142 121.811509 
L 44.241861 124.547458 
L 44.241861 127.452542 
L 46.136142 130.188491 
L 49.357626 132.50324 
L 53.175136 134.317262 
L 57.037128 135.678773 
L 60.647827 136.683317 
L 63.896381 137.424125 
L 66.771427 137.975161 
L 69.304728 138.390325 
L 71.541743 138.707581 
L 73.528387 138.95342 
L 75.305958 139.146383 
L 76.909798 139.299565 
L 78.369488 139.422326 
L 79.709589 139.521442 
L 80.950485 139.601879 
L 82.109171 139.667316 
L 83.199932 139.720506 
L 84.234895 139.763521 
L 85.224491 139.797926 
L 86.177824 139.824902 
L 87.102975 139.845325 
L 88.007257 139.859834 
L 88.897425 139.868867 
L 89.779869 139.872692 
L 90.660777 139.87142 
L 91.546301 139.865015 
L 92.442708 139.853287 
L 93.35655 139.835887 
L 94.294835 139.812282 
L 95.265232 139.781718 
L 96.276299 139.743177 
L 97.33776 139.695299 
L 98.460845 139.636282 
L 99.658696 139.56374 
L 100.946875 139.474494 
L 102.343981 139.364274 
L 103.872382 139.227289 
L 105.559044 139.055588 
L 107.436355 138.838116 
L 109.542673 138.559314 
L 111.921935 138.197037 
L 114.620831 137.719567 
L 117.680404 137.081562 
L 121.115964 136.219468 
L 124.875489 135.048939 
L 128.767384 133.471801 
L 132.371804 131.407455 
L 135.021812 128.86122 
L 136.011042 126 
z
" clip-path="url(#p72d3ae81ce)" style="fill: #00f6a2; stroke: #00f6a2; stroke-linejoin: miter"/>
   </g>
   <g id="line2d_1">
    <path d="M 136.011042 126 
L 135.021812 123.13878 
L 132.371804 120.592545 
L 128.767384 118.528199 
L 124.875489 116.951061 
L 121.115964 115.780532 
L 117.680404 114.918438 
L 114.620831 114.280433 
L 111.921935 113.802963 
L 109.542673 113.440686 
L 107.436355 113.161884 
L 105.559044 112.944412 
L 103.872382 112.772711 
L 102.343981 112.635726 
L 100.946875 112.525506 
L 99.658696 112.43626 
L 98.460845 112.363718 
L 97.33776 112.304701 
L 96.276299 112.256823 
L 95.265232 112.218282 
L 94.294835 112.187718 
L 93.35655 112.164113 
L 92.442708 112.146713 
L 91.546301 112.134985 
L 90.660777 112.12858 
L 89.779869 112.127308 
L 88.897425 112.131133 
L 88.007257 112.140166 
L 87.102975 112.154675 
L 86.177824 112.175098 
L 85.224491 112.202074 
L 84.234895 112.236479 
L 83.199932 112.279494 
L 82.109171 112.332684 
L 80.950485 112.398121 
L 79.709589 112.478558 
L 78.369488 112.577674 
L 76.909798 112.700435 
L 75.305958 112.853617 
L 73.528387 113.04658 
L 71.541743 113.292419 
L 69.304728 113.609675 
L 66.771427 114.024839 
L 63.896381 114.575875 
L 60.647827 115.316683 
L 57.037128 116.321227 
L 53.175136 117.682738 
L 49.357626 119.49676 
L 46.136142 121.811509 
L 44.241861 124.547458 
L 44.241861 127.452542 
L 46.136142 130.188491 
L 49.357626 132.50324 
L 53.175136 134.317262 
L 57.037128 135.678773 
L 60.647827 136.683317 
L 63.896381 137.424125 
L 66.771427 137.975161 
L 69.304728 138.390325 
L 71.541743 138.707581 
L 73.528387 138.95342 
L 75.305958 139.146383 
L 76.909798 139.299565 
L 78.369488 139.422326 
L 79.709589 139.521442 
L 80.950485 139.601879 
L 82.109171 139.667316 
L 83.199932 139.720506 
L 84.234895 139.763521 
L 85.224491 139.797926 
L 86.177824 139.824902 
L 87.102975 139.845325 
L 88.007257 139.859834 
L 88.897425 139.868867 
L 89.779869 139.872692 
L 90.660777 139.87142 
L 91.546301 139.865015 
L 92.442708 139.853287 
L 93.35655 139.835887 
L 94.294835 139.812282 
L 95.265232 139.781718 
L 96.276299 139.743177 
L 97.33776 139.695299 
L 98.460845 139.636282 
L 99.658696 139.56374 
L 100.946875 139.474494 
L 102.343981 139.364274 
L 103.872382 139.227289 
L 105.559044 139.055588 
L 107.436355 138.838116 
L 109.542673 138.559314 
L 111.921935 138.197037 
L 114.620831 137.719567 
L 117.680404 137.081562 
L 121.115964 136.219468 
L 124.875489 135.048939 
L 128.767384 133.471801 
L 132.371804 131.407455 
L 135.021812 128.86122 
L 136.011042 126 
" clip-path="url(#p72d3ae81ce)" style="fill: none; stroke: #00f6a2; stroke-width: 3; stroke-linecap: square"/>
   </g>
  </g>
 </g>
 <defs>
  <clipPath id="p72d3ae81ce">
   <rect x="0" y="0" width="180" height="252"/>
  </clipPath>
 </defs>
</svg>
