<?xml version="1.0" encoding="utf-8" standalone="no"?>
<!DOCTYPE svg PUBLIC "-//W3C//DTD SVG 1.1//EN"
  "http://www.w3.org/Graphics/SVG/1.1/DTD/svg11.dtd">
<svg xmlns:xlink="http://www.w3.org/1999/xlink" width="180pt" height="252pt" viewBox="0 0 180 252" xmlns="http://www.w3.org/2000/svg" version="1.1">
 <metadata>
  <rdf:RDF xmlns:dc="http://purl.org/dc/elements/1.1/" xmlns:cc="http://creativecommons.org/ns#" xmlns:rdf="http://www.w3.org/1999/02/22-rdf-syntax-ns#">
   <cc:Work>
    <dc:type rdf:resource="http://purl.org/dc/dcmitype/StillImage"/>
    <dc:date>2024-11-22T00:56:02.708109</dc:date>
    <dc:format>image/svg+xml</dc:format>
    <dc:creator>
     <cc:Agent>
      <dc:title>Matplotlib v3.9.2, https://matplotlib.org/</dc:title>
     </cc:Agent>
    </dc:creator>
   </cc:Work>
  </rdf:RDF>
 </metadata>
 <defs>
  <style type="text/css">*{stroke-linejoin: round; stroke-linecap: butt}</style>
 </defs>
 <g id="figure_1">
  <g id="patch_1">
   <path d="M 0 252 
L 180 252 
L 180 0 
L 0 0 
z
" style="fill: #ffffff"/>
  </g>
  <g id="axes_1">
   <g id="patch_2">
    <path d="M 136.011042 153 
L 136.001035 152.710674 
L 135.971048 152.421702 
L 135.921191 152.133437 
L 135.85164 151.846226 
L 135.762642 151.560411 
L 135.654511 151.276324 
L 135.527622 150.99429 
L 135.382412 150.714619 
L 135.219372 150.437608 
L 135.039043 150.16354 
L 134.842014 149.892681 
L 134.628914 149.625281 
L 134.400407 149.36157 
L 134.157188 149.101763 
L 133.899976 148.846052 
L 133.62951 148.594612 
L 133.346543 148.347599 
L 133.051837 148.105148 
L 132.746159 147.867378 
L 132.430275 147.634387 
L 132.104945 147.406257 
L 131.770925 147.183051 
L 131.428955 146.964817 
L 131.079761 146.751588 
L 130.724054 146.543379 
L 130.36252 146.340196 
L 129.995827 146.142027 
L 129.624618 145.948851 
L 129.249508 145.760637 
L 128.871089 145.577342 
L 128.489925 145.398913 
L 128.106551 145.225293 
L 127.721476 145.056413 
L 127.335179 144.892201 
L 126.948113 144.732578 
L 126.560703 144.57746 
L 126.173347 144.426759 
L 125.786415 144.280385 
L 125.400254 144.138244 
L 125.015185 144.000238 
L 124.631504 143.866272 
L 124.249484 143.736245 
L 123.869378 143.610058 
L 123.491416 143.487611 
L 123.115807 143.368804 
L 122.742743 143.253538 
L 122.372396 143.141713 
L 122.004923 143.033233 
L 121.640461 142.927999 
L 121.279136 142.825917 
L 120.921056 142.726892 
L 120.56632 142.630832 
L 120.21501 142.537647 
L 119.867199 142.447247 
L 119.522947 142.359547 
L 119.182307 142.274461 
L 118.84532 142.191907 
L 118.512019 142.111805 
L 118.18243 142.034075 
L 117.85657 141.958642 
L 117.53445 141.885431 
L 117.216075 141.814371 
L 116.901443 141.745391 
L 116.590549 141.678425 
L 116.283382 141.613406 
L 115.979925 141.55027 
L 115.68016 141.488956 
L 115.384064 141.429405 
L 115.091611 141.371559 
L 114.802771 141.315361 
L 114.517513 141.260759 
L 114.235803 141.2077 
L 113.957606 141.156133 
L 113.682882 141.10601 
L 113.411594 141.057283 
L 113.143699 141.009909 
L 112.879157 140.963842 
L 112.617923 140.91904 
L 112.359955 140.875463 
L 112.105208 140.833071 
L 111.853636 140.791826 
L 111.605195 140.751692 
L 111.359837 140.712633 
L 111.117517 140.674614 
L 110.878188 140.637604 
L 110.641805 140.601569 
L 110.40832 140.566481 
L 110.177688 140.532308 
L 109.949862 140.499022 
L 109.724796 140.466596 
L 109.502446 140.435003 
L 109.282765 140.404218 
L 109.065708 140.374215 
L 108.851231 140.344972 
L 108.63929 140.316464 
L 108.429841 140.28867 
L 108.222841 140.261568 
L 108.018247 140.235138 
L 107.816017 140.209359 
L 107.616109 140.184212 
L 107.418482 140.159678 
L 107.223096 140.13574 
L 107.02991 140.11238 
L 106.838886 140.089582 
L 106.649984 140.067328 
L 106.463166 140.045604 
L 106.278395 140.024394 
L 106.095633 140.003684 
L 105.914845 139.983459 
L 105.735993 139.963706 
L 105.559044 139.944412 
L 105.383962 139.925564 
L 105.210713 139.907149 
L 105.039264 139.889156 
L 104.869582 139.871573 
L 104.701635 139.854389 
L 104.535391 139.837593 
L 104.370818 139.821175 
L 104.207886 139.805125 
L 104.046565 139.789433 
L 103.886826 139.774089 
L 103.728639 139.759084 
L 103.571976 139.74441 
L 103.416809 139.730057 
L 103.263111 139.716018 
L 103.110854 139.702285 
L 102.960012 139.688849 
L 102.81056 139.675704 
L 102.662471 139.662841 
L 102.515721 139.650255 
L 102.370284 139.637937 
L 102.226138 139.625881 
L 102.083259 139.614082 
L 101.941622 139.602532 
L 101.801206 139.591226 
L 101.661987 139.580157 
L 101.523945 139.56932 
L 101.387057 139.55871 
L 101.251303 139.548322 
L 101.116661 139.538149 
L 100.983111 139.528187 
L 100.850633 139.518431 
L 100.719207 139.508876 
L 100.588815 139.499519 
L 100.459437 139.490353 
L 100.331054 139.481375 
L 100.203649 139.472582 
L 100.077203 139.463967 
L 99.951699 139.455529 
L 99.827119 139.447262 
L 99.703446 139.439164 
L 99.580664 139.431229 
L 99.458756 139.423456 
L 99.337707 139.415841 
L 99.217499 139.408379 
L 99.098118 139.401069 
L 98.979549 139.393906 
L 98.861776 139.386888 
L 98.744784 139.380012 
L 98.628559 139.373275 
L 98.513087 139.366674 
L 98.398354 139.360206 
L 98.284345 139.35387 
L 98.171048 139.347661 
L 98.058448 139.341578 
L 97.946533 139.335618 
L 97.83529 139.329779 
L 97.724706 139.324059 
L 97.614768 139.318455 
L 97.505465 139.312966 
L 97.396783 139.307588 
L 97.288712 139.30232 
L 97.181239 139.297161 
L 97.074352 139.292107 
L 96.968041 139.287158 
L 96.862294 139.282311 
L 96.7571 139.277564 
L 96.652448 139.272917 
L 96.548328 139.268366 
L 96.444729 139.263911 
L 96.34164 139.25955 
L 96.239051 139.255281 
L 96.136952 139.251103 
L 96.035333 139.247014 
L 95.934185 139.243014 
L 95.833497 139.239099 
L 95.73326 139.23527 
L 95.633464 139.231525 
L 95.5341 139.227862 
L 95.43516 139.22428 
L 95.336633 139.220779 
L 95.238511 139.217356 
L 95.140786 139.214011 
L 95.043447 139.210743 
L 94.946487 139.207551 
L 94.849898 139.204433 
L 94.75367 139.201388 
L 94.657796 139.198416 
L 94.562267 139.195515 
L 94.467074 139.192686 
L 94.372211 139.189925 
L 94.277669 139.187234 
L 94.183441 139.184611 
L 94.089517 139.182054 
L 93.995892 139.179564 
L 93.902556 139.17714 
L 93.809503 139.17478 
L 93.716725 139.172485 
L 93.624215 139.170253 
L 93.531966 139.168083 
L 93.439969 139.165975 
L 93.348219 139.163929 
L 93.256707 139.161944 
L 93.165428 139.160018 
L 93.074373 139.158152 
L 92.983536 139.156345 
L 92.89291 139.154597 
L 92.802488 139.152906 
L 92.712264 139.151273 
L 92.62223 139.149697 
L 92.53238 139.148177 
L 92.442708 139.146713 
L 92.353207 139.145305 
L 92.26387 139.143951 
L 92.174691 139.142653 
L 92.085663 139.141409 
L 91.99678 139.140219 
L 91.908036 139.139082 
L 91.819424 139.137999 
L 91.730938 139.136969 
L 91.642571 139.135992 
L 91.554318 139.135067 
L 91.466173 139.134194 
L 91.378128 139.133373 
L 91.290178 139.132604 
L 91.202317 139.131886 
L 91.114539 139.131219 
L 91.026837 139.130604 
L 90.939205 139.130039 
L 90.851638 139.129525 
L 90.76413 139.129062 
L 90.676673 139.128649 
L 90.589263 139.128287 
L 90.501893 139.127974 
L 90.414558 139.127712 
L 90.327251 139.1275 
L 90.239966 139.127337 
L 90.152698 139.127225 
L 90.06544 139.127163 
L 89.978187 139.12715 
L 89.890932 139.127188 
L 89.80367 139.127275 
L 89.716394 139.127412 
L 89.629099 139.1276 
L 89.541778 139.127837 
L 89.454426 139.128124 
L 89.367037 139.128462 
L 89.279605 139.128849 
L 89.192123 139.129287 
L 89.104586 139.129776 
L 89.016987 139.130315 
L 88.929321 139.130905 
L 88.841582 139.131546 
L 88.753763 139.132239 
L 88.665858 139.132982 
L 88.577862 139.133777 
L 88.489767 139.134624 
L 88.401569 139.135523 
L 88.31326 139.136474 
L 88.224835 139.137478 
L 88.136286 139.138534 
L 88.047609 139.139644 
L 87.958796 139.140807 
L 87.869842 139.142024 
L 87.780739 139.143295 
L 87.691482 139.144621 
L 87.602063 139.146002 
L 87.512477 139.147438 
L 87.422717 139.14893 
L 87.332777 139.150478 
L 87.242648 139.152082 
L 87.152326 139.153744 
L 87.061803 139.155464 
L 86.971073 139.157241 
L 86.880127 139.159078 
L 86.788961 139.160973 
L 86.697566 139.162929 
L 86.605936 139.164945 
L 86.514064 139.167021 
L 86.421941 139.16916 
L 86.329563 139.171361 
L 86.23692 139.173625 
L 86.144005 139.175952 
L 86.050812 139.178344 
L 85.957332 139.180801 
L 85.863559 139.183324 
L 85.769484 139.185914 
L 85.675099 139.188571 
L 85.580398 139.191297 
L 85.485371 139.194092 
L 85.390011 139.196957 
L 85.294311 139.199893 
L 85.198261 139.202901 
L 85.101853 139.205982 
L 85.005079 139.209138 
L 84.907931 139.212368 
L 84.810401 139.215674 
L 84.712478 139.219058 
L 84.614155 139.222519 
L 84.515422 139.226061 
L 84.416271 139.229683 
L 84.316693 139.233387 
L 84.216678 139.237174 
L 84.116216 139.241046 
L 84.015299 139.245003 
L 83.913917 139.249048 
L 83.812059 139.253181 
L 83.709717 139.257404 
L 83.606879 139.261719 
L 83.503536 139.266127 
L 83.399677 139.27063 
L 83.295293 139.275228 
L 83.190371 139.279925 
L 83.084902 139.284722 
L 82.978875 139.28962 
L 82.872277 139.294621 
L 82.765099 139.299727 
L 82.657328 139.304941 
L 82.548953 139.310263 
L 82.439962 139.315696 
L 82.330343 139.321243 
L 82.220083 139.326905 
L 82.109171 139.332684 
L 81.997594 139.338583 
L 81.885338 139.344604 
L 81.772391 139.350749 
L 81.65874 139.357022 
L 81.544371 139.363424 
L 81.42927 139.369958 
L 81.313423 139.376626 
L 81.196817 139.383433 
L 81.079436 139.390379 
L 80.961267 139.397469 
L 80.842294 139.404705 
L 80.722501 139.412091 
L 80.601875 139.419629 
L 80.480398 139.427323 
L 80.358055 139.435176 
L 80.23483 139.443192 
L 80.110706 139.451374 
L 79.985666 139.459726 
L 79.859693 139.468252 
L 79.732769 139.476956 
L 79.604878 139.485841 
L 79.476 139.494912 
L 79.346117 139.504173 
L 79.21521 139.513629 
L 79.083261 139.523283 
L 78.95025 139.533142 
L 78.816156 139.543208 
L 78.68096 139.553489 
L 78.544642 139.563987 
L 78.407179 139.57471 
L 78.268552 139.585662 
L 78.128737 139.596849 
L 77.987714 139.608276 
L 77.845458 139.61995 
L 77.701948 139.631877 
L 77.55716 139.644062 
L 77.41107 139.656514 
L 77.263654 139.669238 
L 77.114886 139.682241 
L 76.964742 139.69553 
L 76.813196 139.709114 
L 76.660222 139.722999 
L 76.505792 139.737194 
L 76.349881 139.751706 
L 76.19246 139.766544 
L 76.0335 139.781718 
L 75.872974 139.797235 
L 75.710851 139.813105 
L 75.547103 139.829338 
L 75.381698 139.845943 
L 75.214606 139.862932 
L 75.045795 139.880314 
L 74.875234 139.898101 
L 74.70289 139.916303 
L 74.528728 139.934933 
L 74.352717 139.954003 
L 74.174821 139.973524 
L 73.995005 139.993512 
L 73.813235 140.013977 
L 73.629473 140.034936 
L 73.443683 140.056401 
L 73.255828 140.078388 
L 73.065869 140.100912 
L 72.873769 140.123989 
L 72.679488 140.147636 
L 72.482987 140.171869 
L 72.284225 140.196707 
L 72.083161 140.222168 
L 71.879754 140.24827 
L 71.673962 140.275034 
L 71.465743 140.302479 
L 71.255054 140.330628 
L 71.04185 140.3595 
L 70.826089 140.38912 
L 70.607726 140.419511 
L 70.386715 140.450697 
L 70.163013 140.482703 
L 69.936573 140.515556 
L 69.70735 140.549281 
L 69.475297 140.583909 
L 69.240369 140.619466 
L 69.002519 140.655985 
L 68.7617 140.693495 
L 68.517867 140.73203 
L 68.270973 140.771623 
L 68.020972 140.812308 
L 67.767818 140.854121 
L 67.511466 140.897101 
L 67.251871 140.941285 
L 66.988988 140.986714 
L 66.722775 141.03343 
L 66.453189 141.081475 
L 66.180188 141.130894 
L 65.903732 141.181733 
L 65.623783 141.23404 
L 65.340304 141.287864 
L 65.053259 141.343257 
L 64.762616 141.400273 
L 64.468345 141.458964 
L 64.170417 141.519389 
L 63.868809 141.581606 
L 63.563499 141.645676 
L 63.25447 141.711661 
L 62.941709 141.779625 
L 62.625206 141.849637 
L 62.304958 141.921763 
L 61.980967 141.996076 
L 61.65324 142.072648 
L 61.321793 142.151555 
L 60.986645 142.232873 
L 60.647827 142.316683 
L 60.305376 142.403065 
L 59.959337 142.492104 
L 59.609768 142.583886 
L 59.256735 142.678497 
L 58.900316 142.776028 
L 58.540601 142.87657 
L 58.177693 142.980216 
L 57.811709 143.087061 
L 57.44278 143.197202 
L 57.071054 143.310735 
L 56.696695 143.427759 
L 56.319884 143.548373 
L 55.940823 143.672677 
L 55.55973 143.800772 
L 55.176847 143.932756 
L 54.792436 144.06873 
L 54.406782 144.208791 
L 54.020195 144.353037 
L 53.633006 144.501563 
L 53.245574 144.654461 
L 52.858285 144.811821 
L 52.471549 144.973729 
L 52.085805 145.140265 
L 51.701518 145.311506 
L 51.319184 145.487523 
L 50.939324 145.668378 
L 50.562487 145.854126 
L 50.189252 146.044817 
L 49.820222 146.240485 
L 49.456027 146.44116 
L 49.097322 146.646855 
L 48.744784 146.857576 
L 48.399112 147.07331 
L 48.061025 147.294035 
L 47.731257 147.51971 
L 47.410555 147.75028 
L 47.099678 147.985672 
L 46.79939 148.225795 
L 46.510458 148.470543 
L 46.233647 148.719788 
L 45.969715 148.973384 
L 45.719408 149.231166 
L 45.483457 149.492951 
L 45.262568 149.758534 
L 45.057422 150.027693 
L 44.868667 150.300189 
L 44.696912 150.575763 
L 44.542722 150.85414 
L 44.406615 151.135031 
L 44.289054 151.418131 
L 44.190446 151.703123 
L 44.111137 151.989678 
L 44.051406 152.277459 
L 44.011466 152.566122 
L 43.99146 152.855315 
L 43.99146 153.144685 
L 44.011466 153.433878 
L 44.051406 153.722541 
L 44.111137 154.010322 
L 44.190446 154.296877 
L 44.289054 154.581869 
L 44.406615 154.864969 
L 44.542722 155.14586 
L 44.696912 155.424237 
L 44.868667 155.699811 
L 45.057422 155.972307 
L 45.262568 156.241466 
L 45.483457 156.507049 
L 45.719408 156.768834 
L 45.969715 157.026616 
L 46.233647 157.280212 
L 46.510458 157.529457 
L 46.79939 157.774205 
L 47.099678 158.014328 
L 47.410555 158.24972 
L 47.731257 158.48029 
L 48.061025 158.705965 
L 48.399112 158.92669 
L 48.744784 159.142424 
L 49.097322 159.353145 
L 49.456027 159.55884 
L 49.820222 159.759515 
L 50.189252 159.955183 
L 50.562487 160.145874 
L 50.939324 160.331622 
L 51.319184 160.512477 
L 51.701518 160.688494 
L 52.085805 160.859735 
L 52.471549 161.026271 
L 52.858285 161.188179 
L 53.245574 161.345539 
L 53.633006 161.498437 
L 54.020195 161.646963 
L 54.406782 161.791209 
L 54.792436 161.93127 
L 55.176847 162.067244 
L 55.55973 162.199228 
L 55.940823 162.327323 
L 56.319884 162.451627 
L 56.696695 162.572241 
L 57.071054 162.689265 
L 57.44278 162.802798 
L 57.811709 162.912939 
L 58.177693 163.019784 
L 58.540601 163.12343 
L 58.900316 163.223972 
L 59.256735 163.321503 
L 59.609768 163.416114 
L 59.959337 163.507896 
L 60.305376 163.596935 
L 60.647827 163.683317 
L 60.986645 163.767127 
L 61.321793 163.848445 
L 61.65324 163.927352 
L 61.980967 164.003924 
L 62.304958 164.078237 
L 62.625206 164.150363 
L 62.941709 164.220375 
L 63.25447 164.288339 
L 63.563499 164.354324 
L 63.868809 164.418394 
L 64.170417 164.480611 
L 64.468345 164.541036 
L 64.762616 164.599727 
L 65.053259 164.656743 
L 65.340304 164.712136 
L 65.623783 164.76596 
L 65.903732 164.818267 
L 66.180188 164.869106 
L 66.453189 164.918525 
L 66.722775 164.96657 
L 66.988988 165.013286 
L 67.251871 165.058715 
L 67.511466 165.102899 
L 67.767818 165.145879 
L 68.020972 165.187692 
L 68.270973 165.228377 
L 68.517867 165.26797 
L 68.7617 165.306505 
L 69.002519 165.344015 
L 69.240369 165.380534 
L 69.475297 165.416091 
L 69.70735 165.450719 
L 69.936573 165.484444 
L 70.163013 165.517297 
L 70.386715 165.549303 
L 70.607726 165.580489 
L 70.826089 165.61088 
L 71.04185 165.6405 
L 71.255054 165.669372 
L 71.465743 165.697521 
L 71.673962 165.724966 
L 71.879754 165.75173 
L 72.083161 165.777832 
L 72.284225 165.803293 
L 72.482987 165.828131 
L 72.679488 165.852364 
L 72.873769 165.876011 
L 73.065869 165.899088 
L 73.255828 165.921612 
L 73.443683 165.943599 
L 73.629473 165.965064 
L 73.813235 165.986023 
L 73.995005 166.006488 
L 74.174821 166.026476 
L 74.352717 166.045997 
L 74.528728 166.065067 
L 74.70289 166.083697 
L 74.875234 166.101899 
L 75.045795 166.119686 
L 75.214606 166.137068 
L 75.381698 166.154057 
L 75.547103 166.170662 
L 75.710851 166.186895 
L 75.872974 166.202765 
L 76.0335 166.218282 
L 76.19246 166.233456 
L 76.349881 166.248294 
L 76.505792 166.262806 
L 76.660222 166.277001 
L 76.813196 166.290886 
L 76.964742 166.30447 
L 77.114886 166.317759 
L 77.263654 166.330762 
L 77.41107 166.343486 
L 77.55716 166.355938 
L 77.701948 166.368123 
L 77.845458 166.38005 
L 77.987714 166.391724 
L 78.128737 166.403151 
L 78.268552 166.414338 
L 78.407179 166.42529 
L 78.544642 166.436013 
L 78.68096 166.446511 
L 78.816156 166.456792 
L 78.95025 166.466858 
L 79.083261 166.476717 
L 79.21521 166.486371 
L 79.346117 166.495827 
L 79.476 166.505088 
L 79.604878 166.514159 
L 79.732769 166.523044 
L 79.859693 166.531748 
L 79.985666 166.540274 
L 80.110706 166.548626 
L 80.23483 166.556808 
L 80.358055 166.564824 
L 80.480398 166.572677 
L 80.601875 166.580371 
L 80.722501 166.587909 
L 80.842294 166.595295 
L 80.961267 166.602531 
L 81.079436 166.609621 
L 81.196817 166.616567 
L 81.313423 166.623374 
L 81.42927 166.630042 
L 81.544371 166.636576 
L 81.65874 166.642978 
L 81.772391 166.649251 
L 81.885338 166.655396 
L 81.997594 166.661417 
L 82.109171 166.667316 
L 82.220083 166.673095 
L 82.330343 166.678757 
L 82.439962 166.684304 
L 82.548953 166.689737 
L 82.657328 166.695059 
L 82.765099 166.700273 
L 82.872277 166.705379 
L 82.978875 166.71038 
L 83.084902 166.715278 
L 83.190371 166.720075 
L 83.295293 166.724772 
L 83.399677 166.72937 
L 83.503536 166.733873 
L 83.606879 166.738281 
L 83.709717 166.742596 
L 83.812059 166.746819 
L 83.913917 166.750952 
L 84.015299 166.754997 
L 84.116216 166.758954 
L 84.216678 166.762826 
L 84.316693 166.766613 
L 84.416271 166.770317 
L 84.515422 166.773939 
L 84.614155 166.777481 
L 84.712478 166.780942 
L 84.810401 166.784326 
L 84.907931 166.787632 
L 85.005079 166.790862 
L 85.101853 166.794018 
L 85.198261 166.797099 
L 85.294311 166.800107 
L 85.390011 166.803043 
L 85.485371 166.805908 
L 85.580398 166.808703 
L 85.675099 166.811429 
L 85.769484 166.814086 
L 85.863559 166.816676 
L 85.957332 166.819199 
L 86.050812 166.821656 
L 86.144005 166.824048 
L 86.23692 166.826375 
L 86.329563 166.828639 
L 86.421941 166.83084 
L 86.514064 166.832979 
L 86.605936 166.835055 
L 86.697566 166.837071 
L 86.788961 166.839027 
L 86.880127 166.840922 
L 86.971073 166.842759 
L 87.061803 166.844536 
L 87.152326 166.846256 
L 87.242648 166.847918 
L 87.332777 166.849522 
L 87.422717 166.85107 
L 87.512477 166.852562 
L 87.602063 166.853998 
L 87.691482 166.855379 
L 87.780739 166.856705 
L 87.869842 166.857976 
L 87.958796 166.859193 
L 88.047609 166.860356 
L 88.136286 166.861466 
L 88.224835 166.862522 
L 88.31326 166.863526 
L 88.401569 166.864477 
L 88.489767 166.865376 
L 88.577862 166.866223 
L 88.665858 166.867018 
L 88.753763 166.867761 
L 88.841582 166.868454 
L 88.929321 166.869095 
L 89.016987 166.869685 
L 89.104586 166.870224 
L 89.192123 166.870713 
L 89.279605 166.871151 
L 89.367037 166.871538 
L 89.454426 166.871876 
L 89.541778 166.872163 
L 89.629099 166.8724 
L 89.716394 166.872588 
L 89.80367 166.872725 
L 89.890932 166.872812 
L 89.978187 166.87285 
L 90.06544 166.872837 
L 90.152698 166.872775 
L 90.239966 166.872663 
L 90.327251 166.8725 
L 90.414558 166.872288 
L 90.501893 166.872026 
L 90.589263 166.871713 
L 90.676673 166.871351 
L 90.76413 166.870938 
L 90.851638 166.870475 
L 90.939205 166.869961 
L 91.026837 166.869396 
L 91.114539 166.868781 
L 91.202317 166.868114 
L 91.290178 166.867396 
L 91.378128 166.866627 
L 91.466173 166.865806 
L 91.554318 166.864933 
L 91.642571 166.864008 
L 91.730938 166.863031 
L 91.819424 166.862001 
L 91.908036 166.860918 
L 91.99678 166.859781 
L 92.085663 166.858591 
L 92.174691 166.857347 
L 92.26387 166.856049 
L 92.353207 166.854695 
L 92.442708 166.853287 
L 92.53238 166.851823 
L 92.62223 166.850303 
L 92.712264 166.848727 
L 92.802488 166.847094 
L 92.89291 166.845403 
L 92.983536 166.843655 
L 93.074373 166.841848 
L 93.165428 166.839982 
L 93.256707 166.838056 
L 93.348219 166.836071 
L 93.439969 166.834025 
L 93.531966 166.831917 
L 93.624215 166.829747 
L 93.716725 166.827515 
L 93.809503 166.82522 
L 93.902556 166.82286 
L 93.995892 166.820436 
L 94.089517 166.817946 
L 94.183441 166.815389 
L 94.277669 166.812766 
L 94.372211 166.810075 
L 94.467074 166.807314 
L 94.562267 166.804485 
L 94.657796 166.801584 
L 94.75367 166.798612 
L 94.849898 166.795567 
L 94.946487 166.792449 
L 95.043447 166.789257 
L 95.140786 166.785989 
L 95.238511 166.782644 
L 95.336633 166.779221 
L 95.43516 166.77572 
L 95.5341 166.772138 
L 95.633464 166.768475 
L 95.73326 166.76473 
L 95.833497 166.760901 
L 95.934185 166.756986 
L 96.035333 166.752986 
L 96.136952 166.748897 
L 96.239051 166.744719 
L 96.34164 166.74045 
L 96.444729 166.736089 
L 96.548328 166.731634 
L 96.652448 166.727083 
L 96.7571 166.722436 
L 96.862294 166.717689 
L 96.968041 166.712842 
L 97.074352 166.707893 
L 97.181239 166.702839 
L 97.288712 166.69768 
L 97.396783 166.692412 
L 97.505465 166.687034 
L 97.614768 166.681545 
L 97.724706 166.675941 
L 97.83529 166.670221 
L 97.946533 166.664382 
L 98.058448 166.658422 
L 98.171048 166.652339 
L 98.284345 166.64613 
L 98.398354 166.639794 
L 98.513087 166.633326 
L 98.628559 166.626725 
L 98.744784 166.619988 
L 98.861776 166.613112 
L 98.979549 166.606094 
L 99.098118 166.598931 
L 99.217499 166.591621 
L 99.337707 166.584159 
L 99.458756 166.576544 
L 99.580664 166.568771 
L 99.703446 166.560836 
L 99.827119 166.552738 
L 99.951699 166.544471 
L 100.077203 166.536033 
L 100.203649 166.527418 
L 100.331054 166.518625 
L 100.459437 166.509647 
L 100.588815 166.500481 
L 100.719207 166.491124 
L 100.850633 166.481569 
L 100.983111 166.471813 
L 101.116661 166.461851 
L 101.251303 166.451678 
L 101.387057 166.44129 
L 101.523945 166.43068 
L 101.661987 166.419843 
L 101.801206 166.408774 
L 101.941622 166.397468 
L 102.083259 166.385918 
L 102.226138 166.374119 
L 102.370284 166.362063 
L 102.515721 166.349745 
L 102.662471 166.337159 
L 102.81056 166.324296 
L 102.960012 166.311151 
L 103.110854 166.297715 
L 103.263111 166.283982 
L 103.416809 166.269943 
L 103.571976 166.25559 
L 103.728639 166.240916 
L 103.886826 166.225911 
L 104.046565 166.210567 
L 104.207886 166.194875 
L 104.370818 166.178825 
L 104.535391 166.162407 
L 104.701635 166.145611 
L 104.869582 166.128427 
L 105.039264 166.110844 
L 105.210713 166.092851 
L 105.383962 166.074436 
L 105.559044 166.055588 
L 105.735993 166.036294 
L 105.914845 166.016541 
L 106.095633 165.996316 
L 106.278395 165.975606 
L 106.463166 165.954396 
L 106.649984 165.932672 
L 106.838886 165.910418 
L 107.02991 165.88762 
L 107.223096 165.86426 
L 107.418482 165.840322 
L 107.616109 165.815788 
L 107.816017 165.790641 
L 108.018247 165.764862 
L 108.222841 165.738432 
L 108.429841 165.71133 
L 108.63929 165.683536 
L 108.851231 165.655028 
L 109.065708 165.625785 
L 109.282765 165.595782 
L 109.502446 165.564997 
L 109.724796 165.533404 
L 109.949862 165.500978 
L 110.177688 165.467692 
L 110.40832 165.433519 
L 110.641805 165.398431 
L 110.878188 165.362396 
L 111.117517 165.325386 
L 111.359837 165.287367 
L 111.605195 165.248308 
L 111.853636 165.208174 
L 112.105208 165.166929 
L 112.359955 165.124537 
L 112.617923 165.08096 
L 112.879157 165.036158 
L 113.143699 164.990091 
L 113.411594 164.942717 
L 113.682882 164.89399 
L 113.957606 164.843867 
L 114.235803 164.7923 
L 114.517513 164.739241 
L 114.802771 164.684639 
L 115.091611 164.628441 
L 115.384064 164.570595 
L 115.68016 164.511044 
L 115.979925 164.44973 
L 116.283382 164.386594 
L 116.590549 164.321575 
L 116.901443 164.254609 
L 117.216075 164.185629 
L 117.53445 164.114569 
L 117.85657 164.041358 
L 118.18243 163.965925 
L 118.512019 163.888195 
L 118.84532 163.808093 
L 119.182307 163.725539 
L 119.522947 163.640453 
L 119.867199 163.552753 
L 120.21501 163.462353 
L 120.56632 163.369168 
L 120.921056 163.273108 
L 121.279136 163.174083 
L 121.640461 163.072001 
L 122.004923 162.966767 
L 122.372396 162.858287 
L 122.742743 162.746462 
L 123.115807 162.631196 
L 123.491416 162.512389 
L 123.869378 162.389942 
L 124.249484 162.263755 
L 124.631504 162.133728 
L 125.015185 161.999762 
L 125.400254 161.861756 
L 125.786415 161.719615 
L 126.173347 161.573241 
L 126.560703 161.42254 
L 126.948113 161.267422 
L 127.335179 161.107799 
L 127.721476 160.943587 
L 128.106551 160.774707 
L 128.489925 160.601087 
L 128.871089 160.422658 
L 129.249508 160.239363 
L 129.624618 160.051149 
L 129.995827 159.857973 
L 130.36252 159.659804 
L 130.724054 159.456621 
L 131.079761 159.248412 
L 131.428955 159.035183 
L 131.770925 158.816949 
L 132.104945 158.593743 
L 132.430275 158.365613 
L 132.746159 158.132622 
L 133.051837 157.894852 
L 133.346543 157.652401 
L 133.62951 157.405388 
L 133.899976 157.153948 
L 134.157188 156.898237 
L 134.400407 156.63843 
L 134.628914 156.374719 
L 134.842014 156.107319 
L 135.039043 155.83646 
L 135.219372 155.562392 
L 135.382412 155.285381 
L 135.527622 155.00571 
L 135.654511 154.723676 
L 135.762642 154.439589 
L 135.85164 154.153774 
L 135.921191 153.866563 
L 135.971048 153.578298 
L 136.001035 153.289326 
L 136.011042 153 
L 136.011042 153 
z
" clip-path="url(#p5f6da374dc)" style="fill: none"/>
   </g>
   <g id="patch_3">
    <path d="M 136.011042 99 
L 136.001035 98.710674 
L 135.971048 98.421702 
L 135.921191 98.133437 
L 135.85164 97.846226 
L 135.762642 97.560411 
L 135.654511 97.276324 
L 135.527622 96.99429 
L 135.382412 96.714619 
L 135.219372 96.437608 
L 135.039043 96.16354 
L 134.842014 95.892681 
L 134.628914 95.625281 
L 134.400407 95.36157 
L 134.157188 95.101763 
L 133.899976 94.846052 
L 133.62951 94.594612 
L 133.346543 94.347599 
L 133.051837 94.105148 
L 132.746159 93.867378 
L 132.430275 93.634387 
L 132.104945 93.406257 
L 131.770925 93.183051 
L 131.428955 92.964817 
L 131.079761 92.751588 
L 130.724054 92.543379 
L 130.36252 92.340196 
L 129.995827 92.142027 
L 129.624618 91.948851 
L 129.249508 91.760637 
L 128.871089 91.577342 
L 128.489925 91.398913 
L 128.106551 91.225293 
L 127.721476 91.056413 
L 127.335179 90.892201 
L 126.948113 90.732578 
L 126.560703 90.57746 
L 126.173347 90.426759 
L 125.786415 90.280385 
L 125.400254 90.138244 
L 125.015185 90.000238 
L 124.631504 89.866272 
L 124.249484 89.736245 
L 123.869378 89.610058 
L 123.491416 89.487611 
L 123.115807 89.368804 
L 122.742743 89.253538 
L 122.372396 89.141713 
L 122.004923 89.033233 
L 121.640461 88.927999 
L 121.279136 88.825917 
L 120.921056 88.726892 
L 120.56632 88.630832 
L 120.21501 88.537647 
L 119.867199 88.447247 
L 119.522947 88.359547 
L 119.182307 88.274461 
L 118.84532 88.191907 
L 118.512019 88.111805 
L 118.18243 88.034075 
L 117.85657 87.958642 
L 117.53445 87.885431 
L 117.216075 87.814371 
L 116.901443 87.745391 
L 116.590549 87.678425 
L 116.283382 87.613406 
L 115.979925 87.55027 
L 115.68016 87.488956 
L 115.384064 87.429405 
L 115.091611 87.371559 
L 114.802771 87.315361 
L 114.517513 87.260759 
L 114.235803 87.2077 
L 113.957606 87.156133 
L 113.682882 87.10601 
L 113.411594 87.057283 
L 113.143699 87.009909 
L 112.879157 86.963842 
L 112.617923 86.91904 
L 112.359955 86.875463 
L 112.105208 86.833071 
L 111.853636 86.791826 
L 111.605195 86.751692 
L 111.359837 86.712633 
L 111.117517 86.674614 
L 110.878188 86.637604 
L 110.641805 86.601569 
L 110.40832 86.566481 
L 110.177688 86.532308 
L 109.949862 86.499022 
L 109.724796 86.466596 
L 109.502446 86.435003 
L 109.282765 86.404218 
L 109.065708 86.374215 
L 108.851231 86.344972 
L 108.63929 86.316464 
L 108.429841 86.28867 
L 108.222841 86.261568 
L 108.018247 86.235138 
L 107.816017 86.209359 
L 107.616109 86.184212 
L 107.418482 86.159678 
L 107.223096 86.13574 
L 107.02991 86.11238 
L 106.838886 86.089582 
L 106.649984 86.067328 
L 106.463166 86.045604 
L 106.278395 86.024394 
L 106.095633 86.003684 
L 105.914845 85.983459 
L 105.735993 85.963706 
L 105.559044 85.944412 
L 105.383962 85.925564 
L 105.210713 85.907149 
L 105.039264 85.889156 
L 104.869582 85.871573 
L 104.701635 85.854389 
L 104.535391 85.837593 
L 104.370818 85.821175 
L 104.207886 85.805125 
L 104.046565 85.789433 
L 103.886826 85.774089 
L 103.728639 85.759084 
L 103.571976 85.74441 
L 103.416809 85.730057 
L 103.263111 85.716018 
L 103.110854 85.702285 
L 102.960012 85.688849 
L 102.81056 85.675704 
L 102.662471 85.662841 
L 102.515721 85.650255 
L 102.370284 85.637937 
L 102.226138 85.625881 
L 102.083259 85.614082 
L 101.941622 85.602532 
L 101.801206 85.591226 
L 101.661987 85.580157 
L 101.523945 85.56932 
L 101.387057 85.55871 
L 101.251303 85.548322 
L 101.116661 85.538149 
L 100.983111 85.528187 
L 100.850633 85.518431 
L 100.719207 85.508876 
L 100.588815 85.499519 
L 100.459437 85.490353 
L 100.331054 85.481375 
L 100.203649 85.472582 
L 100.077203 85.463967 
L 99.951699 85.455529 
L 99.827119 85.447262 
L 99.703446 85.439164 
L 99.580664 85.431229 
L 99.458756 85.423456 
L 99.337707 85.415841 
L 99.217499 85.408379 
L 99.098118 85.401069 
L 98.979549 85.393906 
L 98.861776 85.386888 
L 98.744784 85.380012 
L 98.628559 85.373275 
L 98.513087 85.366674 
L 98.398354 85.360206 
L 98.284345 85.35387 
L 98.171048 85.347661 
L 98.058448 85.341578 
L 97.946533 85.335618 
L 97.83529 85.329779 
L 97.724706 85.324059 
L 97.614768 85.318455 
L 97.505465 85.312966 
L 97.396783 85.307588 
L 97.288712 85.30232 
L 97.181239 85.297161 
L 97.074352 85.292107 
L 96.968041 85.287158 
L 96.862294 85.282311 
L 96.7571 85.277564 
L 96.652448 85.272917 
L 96.548328 85.268366 
L 96.444729 85.263911 
L 96.34164 85.25955 
L 96.239051 85.255281 
L 96.136952 85.251103 
L 96.035333 85.247014 
L 95.934185 85.243014 
L 95.833497 85.239099 
L 95.73326 85.23527 
L 95.633464 85.231525 
L 95.5341 85.227862 
L 95.43516 85.22428 
L 95.336633 85.220779 
L 95.238511 85.217356 
L 95.140786 85.214011 
L 95.043447 85.210743 
L 94.946487 85.207551 
L 94.849898 85.204433 
L 94.75367 85.201388 
L 94.657796 85.198416 
L 94.562267 85.195515 
L 94.467074 85.192686 
L 94.372211 85.189925 
L 94.277669 85.187234 
L 94.183441 85.184611 
L 94.089517 85.182054 
L 93.995892 85.179564 
L 93.902556 85.17714 
L 93.809503 85.17478 
L 93.716725 85.172485 
L 93.624215 85.170253 
L 93.531966 85.168083 
L 93.439969 85.165975 
L 93.348219 85.163929 
L 93.256707 85.161944 
L 93.165428 85.160018 
L 93.074373 85.158152 
L 92.983536 85.156345 
L 92.89291 85.154597 
L 92.802488 85.152906 
L 92.712264 85.151273 
L 92.62223 85.149697 
L 92.53238 85.148177 
L 92.442708 85.146713 
L 92.353207 85.145305 
L 92.26387 85.143951 
L 92.174691 85.142653 
L 92.085663 85.141409 
L 91.99678 85.140219 
L 91.908036 85.139082 
L 91.819424 85.137999 
L 91.730938 85.136969 
L 91.642571 85.135992 
L 91.554318 85.135067 
L 91.466173 85.134194 
L 91.378128 85.133373 
L 91.290178 85.132604 
L 91.202317 85.131886 
L 91.114539 85.131219 
L 91.026837 85.130604 
L 90.939205 85.130039 
L 90.851638 85.129525 
L 90.76413 85.129062 
L 90.676673 85.128649 
L 90.589263 85.128287 
L 90.501893 85.127974 
L 90.414558 85.127712 
L 90.327251 85.1275 
L 90.239966 85.127337 
L 90.152698 85.127225 
L 90.06544 85.127163 
L 89.978187 85.12715 
L 89.890932 85.127188 
L 89.80367 85.127275 
L 89.716394 85.127412 
L 89.629099 85.1276 
L 89.541778 85.127837 
L 89.454426 85.128124 
L 89.367037 85.128462 
L 89.279605 85.128849 
L 89.192123 85.129287 
L 89.104586 85.129776 
L 89.016987 85.130315 
L 88.929321 85.130905 
L 88.841582 85.131546 
L 88.753763 85.132239 
L 88.665858 85.132982 
L 88.577862 85.133777 
L 88.489767 85.134624 
L 88.401569 85.135523 
L 88.31326 85.136474 
L 88.224835 85.137478 
L 88.136286 85.138534 
L 88.047609 85.139644 
L 87.958796 85.140807 
L 87.869842 85.142024 
L 87.780739 85.143295 
L 87.691482 85.144621 
L 87.602063 85.146002 
L 87.512477 85.147438 
L 87.422717 85.14893 
L 87.332777 85.150478 
L 87.242648 85.152082 
L 87.152326 85.153744 
L 87.061803 85.155464 
L 86.971073 85.157241 
L 86.880127 85.159078 
L 86.788961 85.160973 
L 86.697566 85.162929 
L 86.605936 85.164945 
L 86.514064 85.167021 
L 86.421941 85.16916 
L 86.329563 85.171361 
L 86.23692 85.173625 
L 86.144005 85.175952 
L 86.050812 85.178344 
L 85.957332 85.180801 
L 85.863559 85.183324 
L 85.769484 85.185914 
L 85.675099 85.188571 
L 85.580398 85.191297 
L 85.485371 85.194092 
L 85.390011 85.196957 
L 85.294311 85.199893 
L 85.198261 85.202901 
L 85.101853 85.205982 
L 85.005079 85.209138 
L 84.907931 85.212368 
L 84.810401 85.215674 
L 84.712478 85.219058 
L 84.614155 85.222519 
L 84.515422 85.226061 
L 84.416271 85.229683 
L 84.316693 85.233387 
L 84.216678 85.237174 
L 84.116216 85.241046 
L 84.015299 85.245003 
L 83.913917 85.249048 
L 83.812059 85.253181 
L 83.709717 85.257404 
L 83.606879 85.261719 
L 83.503536 85.266127 
L 83.399677 85.27063 
L 83.295293 85.275228 
L 83.190371 85.279925 
L 83.084902 85.284722 
L 82.978875 85.28962 
L 82.872277 85.294621 
L 82.765099 85.299727 
L 82.657328 85.304941 
L 82.548953 85.310263 
L 82.439962 85.315696 
L 82.330343 85.321243 
L 82.220083 85.326905 
L 82.109171 85.332684 
L 81.997594 85.338583 
L 81.885338 85.344604 
L 81.772391 85.350749 
L 81.65874 85.357022 
L 81.544371 85.363424 
L 81.42927 85.369958 
L 81.313423 85.376626 
L 81.196817 85.383433 
L 81.079436 85.390379 
L 80.961267 85.397469 
L 80.842294 85.404705 
L 80.722501 85.412091 
L 80.601875 85.419629 
L 80.480398 85.427323 
L 80.358055 85.435176 
L 80.23483 85.443192 
L 80.110706 85.451374 
L 79.985666 85.459726 
L 79.859693 85.468252 
L 79.732769 85.476956 
L 79.604878 85.485841 
L 79.476 85.494912 
L 79.346117 85.504173 
L 79.21521 85.513629 
L 79.083261 85.523283 
L 78.95025 85.533142 
L 78.816156 85.543208 
L 78.68096 85.553489 
L 78.544642 85.563987 
L 78.407179 85.57471 
L 78.268552 85.585662 
L 78.128737 85.596849 
L 77.987714 85.608276 
L 77.845458 85.61995 
L 77.701948 85.631877 
L 77.55716 85.644062 
L 77.41107 85.656514 
L 77.263654 85.669238 
L 77.114886 85.682241 
L 76.964742 85.69553 
L 76.813196 85.709114 
L 76.660222 85.722999 
L 76.505792 85.737194 
L 76.349881 85.751706 
L 76.19246 85.766544 
L 76.0335 85.781718 
L 75.872974 85.797235 
L 75.710851 85.813105 
L 75.547103 85.829338 
L 75.381698 85.845943 
L 75.214606 85.862932 
L 75.045795 85.880314 
L 74.875234 85.898101 
L 74.70289 85.916303 
L 74.528728 85.934933 
L 74.352717 85.954003 
L 74.174821 85.973524 
L 73.995005 85.993512 
L 73.813235 86.013977 
L 73.629473 86.034936 
L 73.443683 86.056401 
L 73.255828 86.078388 
L 73.065869 86.100912 
L 72.873769 86.123989 
L 72.679488 86.147636 
L 72.482987 86.171869 
L 72.284225 86.196707 
L 72.083161 86.222168 
L 71.879754 86.24827 
L 71.673962 86.275034 
L 71.465743 86.302479 
L 71.255054 86.330628 
L 71.04185 86.3595 
L 70.826089 86.38912 
L 70.607726 86.419511 
L 70.386715 86.450697 
L 70.163013 86.482703 
L 69.936573 86.515556 
L 69.70735 86.549281 
L 69.475297 86.583909 
L 69.240369 86.619466 
L 69.002519 86.655985 
L 68.7617 86.693495 
L 68.517867 86.73203 
L 68.270973 86.771623 
L 68.020972 86.812308 
L 67.767818 86.854121 
L 67.511466 86.897101 
L 67.251871 86.941285 
L 66.988988 86.986714 
L 66.722775 87.03343 
L 66.453189 87.081475 
L 66.180188 87.130894 
L 65.903732 87.181733 
L 65.623783 87.23404 
L 65.340304 87.287864 
L 65.053259 87.343257 
L 64.762616 87.400273 
L 64.468345 87.458964 
L 64.170417 87.519389 
L 63.868809 87.581606 
L 63.563499 87.645676 
L 63.25447 87.711661 
L 62.941709 87.779625 
L 62.625206 87.849637 
L 62.304958 87.921763 
L 61.980967 87.996076 
L 61.65324 88.072648 
L 61.321793 88.151555 
L 60.986645 88.232873 
L 60.647827 88.316683 
L 60.305376 88.403065 
L 59.959337 88.492104 
L 59.609768 88.583886 
L 59.256735 88.678497 
L 58.900316 88.776028 
L 58.540601 88.87657 
L 58.177693 88.980216 
L 57.811709 89.087061 
L 57.44278 89.197202 
L 57.071054 89.310735 
L 56.696695 89.427759 
L 56.319884 89.548373 
L 55.940823 89.672677 
L 55.55973 89.800772 
L 55.176847 89.932756 
L 54.792436 90.06873 
L 54.406782 90.208791 
L 54.020195 90.353037 
L 53.633006 90.501563 
L 53.245574 90.654461 
L 52.858285 90.811821 
L 52.471549 90.973729 
L 52.085805 91.140265 
L 51.701518 91.311506 
L 51.319184 91.487523 
L 50.939324 91.668378 
L 50.562487 91.854126 
L 50.189252 92.044817 
L 49.820222 92.240485 
L 49.456027 92.44116 
L 49.097322 92.646855 
L 48.744784 92.857576 
L 48.399112 93.07331 
L 48.061025 93.294035 
L 47.731257 93.51971 
L 47.410555 93.75028 
L 47.099678 93.985672 
L 46.79939 94.225795 
L 46.510458 94.470543 
L 46.233647 94.719788 
L 45.969715 94.973384 
L 45.719408 95.231166 
L 45.483457 95.492951 
L 45.262568 95.758534 
L 45.057422 96.027693 
L 44.868667 96.300189 
L 44.696912 96.575763 
L 44.542722 96.85414 
L 44.406615 97.135031 
L 44.289054 97.418131 
L 44.190446 97.703123 
L 44.111137 97.989678 
L 44.051406 98.277459 
L 44.011466 98.566122 
L 43.99146 98.855315 
L 43.99146 99.144685 
L 44.011466 99.433878 
L 44.051406 99.722541 
L 44.111137 100.010322 
L 44.190446 100.296877 
L 44.289054 100.581869 
L 44.406615 100.864969 
L 44.542722 101.14586 
L 44.696912 101.424237 
L 44.868667 101.699811 
L 45.057422 101.972307 
L 45.262568 102.241466 
L 45.483457 102.507049 
L 45.719408 102.768834 
L 45.969715 103.026616 
L 46.233647 103.280212 
L 46.510458 103.529457 
L 46.79939 103.774205 
L 47.099678 104.014328 
L 47.410555 104.24972 
L 47.731257 104.48029 
L 48.061025 104.705965 
L 48.399112 104.92669 
L 48.744784 105.142424 
L 49.097322 105.353145 
L 49.456027 105.55884 
L 49.820222 105.759515 
L 50.189252 105.955183 
L 50.562487 106.145874 
L 50.939324 106.331622 
L 51.319184 106.512477 
L 51.701518 106.688494 
L 52.085805 106.859735 
L 52.471549 107.026271 
L 52.858285 107.188179 
L 53.245574 107.345539 
L 53.633006 107.498437 
L 54.020195 107.646963 
L 54.406782 107.791209 
L 54.792436 107.93127 
L 55.176847 108.067244 
L 55.55973 108.199228 
L 55.940823 108.327323 
L 56.319884 108.451627 
L 56.696695 108.572241 
L 57.071054 108.689265 
L 57.44278 108.802798 
L 57.811709 108.912939 
L 58.177693 109.019784 
L 58.540601 109.12343 
L 58.900316 109.223972 
L 59.256735 109.321503 
L 59.609768 109.416114 
L 59.959337 109.507896 
L 60.305376 109.596935 
L 60.647827 109.683317 
L 60.986645 109.767127 
L 61.321793 109.848445 
L 61.65324 109.927352 
L 61.980967 110.003924 
L 62.304958 110.078237 
L 62.625206 110.150363 
L 62.941709 110.220375 
L 63.25447 110.288339 
L 63.563499 110.354324 
L 63.868809 110.418394 
L 64.170417 110.480611 
L 64.468345 110.541036 
L 64.762616 110.599727 
L 65.053259 110.656743 
L 65.340304 110.712136 
L 65.623783 110.76596 
L 65.903732 110.818267 
L 66.180188 110.869106 
L 66.453189 110.918525 
L 66.722775 110.96657 
L 66.988988 111.013286 
L 67.251871 111.058715 
L 67.511466 111.102899 
L 67.767818 111.145879 
L 68.020972 111.187692 
L 68.270973 111.228377 
L 68.517867 111.26797 
L 68.7617 111.306505 
L 69.002519 111.344015 
L 69.240369 111.380534 
L 69.475297 111.416091 
L 69.70735 111.450719 
L 69.936573 111.484444 
L 70.163013 111.517297 
L 70.386715 111.549303 
L 70.607726 111.580489 
L 70.826089 111.61088 
L 71.04185 111.6405 
L 71.255054 111.669372 
L 71.465743 111.697521 
L 71.673962 111.724966 
L 71.879754 111.75173 
L 72.083161 111.777832 
L 72.284225 111.803293 
L 72.482987 111.828131 
L 72.679488 111.852364 
L 72.873769 111.876011 
L 73.065869 111.899088 
L 73.255828 111.921612 
L 73.443683 111.943599 
L 73.629473 111.965064 
L 73.813235 111.986023 
L 73.995005 112.006488 
L 74.174821 112.026476 
L 74.352717 112.045997 
L 74.528728 112.065067 
L 74.70289 112.083697 
L 74.875234 112.101899 
L 75.045795 112.119686 
L 75.214606 112.137068 
L 75.381698 112.154057 
L 75.547103 112.170662 
L 75.710851 112.186895 
L 75.872974 112.202765 
L 76.0335 112.218282 
L 76.19246 112.233456 
L 76.349881 112.248294 
L 76.505792 112.262806 
L 76.660222 112.277001 
L 76.813196 112.290886 
L 76.964742 112.30447 
L 77.114886 112.317759 
L 77.263654 112.330762 
L 77.41107 112.343486 
L 77.55716 112.355938 
L 77.701948 112.368123 
L 77.845458 112.38005 
L 77.987714 112.391724 
L 78.128737 112.403151 
L 78.268552 112.414338 
L 78.407179 112.42529 
L 78.544642 112.436013 
L 78.68096 112.446511 
L 78.816156 112.456792 
L 78.95025 112.466858 
L 79.083261 112.476717 
L 79.21521 112.486371 
L 79.346117 112.495827 
L 79.476 112.505088 
L 79.604878 112.514159 
L 79.732769 112.523044 
L 79.859693 112.531748 
L 79.985666 112.540274 
L 80.110706 112.548626 
L 80.23483 112.556808 
L 80.358055 112.564824 
L 80.480398 112.572677 
L 80.601875 112.580371 
L 80.722501 112.587909 
L 80.842294 112.595295 
L 80.961267 112.602531 
L 81.079436 112.609621 
L 81.196817 112.616567 
L 81.313423 112.623374 
L 81.42927 112.630042 
L 81.544371 112.636576 
L 81.65874 112.642978 
L 81.772391 112.649251 
L 81.885338 112.655396 
L 81.997594 112.661417 
L 82.109171 112.667316 
L 82.220083 112.673095 
L 82.330343 112.678757 
L 82.439962 112.684304 
L 82.548953 112.689737 
L 82.657328 112.695059 
L 82.765099 112.700273 
L 82.872277 112.705379 
L 82.978875 112.71038 
L 83.084902 112.715278 
L 83.190371 112.720075 
L 83.295293 112.724772 
L 83.399677 112.72937 
L 83.503536 112.733873 
L 83.606879 112.738281 
L 83.709717 112.742596 
L 83.812059 112.746819 
L 83.913917 112.750952 
L 84.015299 112.754997 
L 84.116216 112.758954 
L 84.216678 112.762826 
L 84.316693 112.766613 
L 84.416271 112.770317 
L 84.515422 112.773939 
L 84.614155 112.777481 
L 84.712478 112.780942 
L 84.810401 112.784326 
L 84.907931 112.787632 
L 85.005079 112.790862 
L 85.101853 112.794018 
L 85.198261 112.797099 
L 85.294311 112.800107 
L 85.390011 112.803043 
L 85.485371 112.805908 
L 85.580398 112.808703 
L 85.675099 112.811429 
L 85.769484 112.814086 
L 85.863559 112.816676 
L 85.957332 112.819199 
L 86.050812 112.821656 
L 86.144005 112.824048 
L 86.23692 112.826375 
L 86.329563 112.828639 
L 86.421941 112.83084 
L 86.514064 112.832979 
L 86.605936 112.835055 
L 86.697566 112.837071 
L 86.788961 112.839027 
L 86.880127 112.840922 
L 86.971073 112.842759 
L 87.061803 112.844536 
L 87.152326 112.846256 
L 87.242648 112.847918 
L 87.332777 112.849522 
L 87.422717 112.85107 
L 87.512477 112.852562 
L 87.602063 112.853998 
L 87.691482 112.855379 
L 87.780739 112.856705 
L 87.869842 112.857976 
L 87.958796 112.859193 
L 88.047609 112.860356 
L 88.136286 112.861466 
L 88.224835 112.862522 
L 88.31326 112.863526 
L 88.401569 112.864477 
L 88.489767 112.865376 
L 88.577862 112.866223 
L 88.665858 112.867018 
L 88.753763 112.867761 
L 88.841582 112.868454 
L 88.929321 112.869095 
L 89.016987 112.869685 
L 89.104586 112.870224 
L 89.192123 112.870713 
L 89.279605 112.871151 
L 89.367037 112.871538 
L 89.454426 112.871876 
L 89.541778 112.872163 
L 89.629099 112.8724 
L 89.716394 112.872588 
L 89.80367 112.872725 
L 89.890932 112.872812 
L 89.978187 112.87285 
L 90.06544 112.872837 
L 90.152698 112.872775 
L 90.239966 112.872663 
L 90.327251 112.8725 
L 90.414558 112.872288 
L 90.501893 112.872026 
L 90.589263 112.871713 
L 90.676673 112.871351 
L 90.76413 112.870938 
L 90.851638 112.870475 
L 90.939205 112.869961 
L 91.026837 112.869396 
L 91.114539 112.868781 
L 91.202317 112.868114 
L 91.290178 112.867396 
L 91.378128 112.866627 
L 91.466173 112.865806 
L 91.554318 112.864933 
L 91.642571 112.864008 
L 91.730938 112.863031 
L 91.819424 112.862001 
L 91.908036 112.860918 
L 91.99678 112.859781 
L 92.085663 112.858591 
L 92.174691 112.857347 
L 92.26387 112.856049 
L 92.353207 112.854695 
L 92.442708 112.853287 
L 92.53238 112.851823 
L 92.62223 112.850303 
L 92.712264 112.848727 
L 92.802488 112.847094 
L 92.89291 112.845403 
L 92.983536 112.843655 
L 93.074373 112.841848 
L 93.165428 112.839982 
L 93.256707 112.838056 
L 93.348219 112.836071 
L 93.439969 112.834025 
L 93.531966 112.831917 
L 93.624215 112.829747 
L 93.716725 112.827515 
L 93.809503 112.82522 
L 93.902556 112.82286 
L 93.995892 112.820436 
L 94.089517 112.817946 
L 94.183441 112.815389 
L 94.277669 112.812766 
L 94.372211 112.810075 
L 94.467074 112.807314 
L 94.562267 112.804485 
L 94.657796 112.801584 
L 94.75367 112.798612 
L 94.849898 112.795567 
L 94.946487 112.792449 
L 95.043447 112.789257 
L 95.140786 112.785989 
L 95.238511 112.782644 
L 95.336633 112.779221 
L 95.43516 112.77572 
L 95.5341 112.772138 
L 95.633464 112.768475 
L 95.73326 112.76473 
L 95.833497 112.760901 
L 95.934185 112.756986 
L 96.035333 112.752986 
L 96.136952 112.748897 
L 96.239051 112.744719 
L 96.34164 112.74045 
L 96.444729 112.736089 
L 96.548328 112.731634 
L 96.652448 112.727083 
L 96.7571 112.722436 
L 96.862294 112.717689 
L 96.968041 112.712842 
L 97.074352 112.707893 
L 97.181239 112.702839 
L 97.288712 112.69768 
L 97.396783 112.692412 
L 97.505465 112.687034 
L 97.614768 112.681545 
L 97.724706 112.675941 
L 97.83529 112.670221 
L 97.946533 112.664382 
L 98.058448 112.658422 
L 98.171048 112.652339 
L 98.284345 112.64613 
L 98.398354 112.639794 
L 98.513087 112.633326 
L 98.628559 112.626725 
L 98.744784 112.619988 
L 98.861776 112.613112 
L 98.979549 112.606094 
L 99.098118 112.598931 
L 99.217499 112.591621 
L 99.337707 112.584159 
L 99.458756 112.576544 
L 99.580664 112.568771 
L 99.703446 112.560836 
L 99.827119 112.552738 
L 99.951699 112.544471 
L 100.077203 112.536033 
L 100.203649 112.527418 
L 100.331054 112.518625 
L 100.459437 112.509647 
L 100.588815 112.500481 
L 100.719207 112.491124 
L 100.850633 112.481569 
L 100.983111 112.471813 
L 101.116661 112.461851 
L 101.251303 112.451678 
L 101.387057 112.44129 
L 101.523945 112.43068 
L 101.661987 112.419843 
L 101.801206 112.408774 
L 101.941622 112.397468 
L 102.083259 112.385918 
L 102.226138 112.374119 
L 102.370284 112.362063 
L 102.515721 112.349745 
L 102.662471 112.337159 
L 102.81056 112.324296 
L 102.960012 112.311151 
L 103.110854 112.297715 
L 103.263111 112.283982 
L 103.416809 112.269943 
L 103.571976 112.25559 
L 103.728639 112.240916 
L 103.886826 112.225911 
L 104.046565 112.210567 
L 104.207886 112.194875 
L 104.370818 112.178825 
L 104.535391 112.162407 
L 104.701635 112.145611 
L 104.869582 112.128427 
L 105.039264 112.110844 
L 105.210713 112.092851 
L 105.383962 112.074436 
L 105.559044 112.055588 
L 105.735993 112.036294 
L 105.914845 112.016541 
L 106.095633 111.996316 
L 106.278395 111.975606 
L 106.463166 111.954396 
L 106.649984 111.932672 
L 106.838886 111.910418 
L 107.02991 111.88762 
L 107.223096 111.86426 
L 107.418482 111.840322 
L 107.616109 111.815788 
L 107.816017 111.790641 
L 108.018247 111.764862 
L 108.222841 111.738432 
L 108.429841 111.71133 
L 108.63929 111.683536 
L 108.851231 111.655028 
L 109.065708 111.625785 
L 109.282765 111.595782 
L 109.502446 111.564997 
L 109.724796 111.533404 
L 109.949862 111.500978 
L 110.177688 111.467692 
L 110.40832 111.433519 
L 110.641805 111.398431 
L 110.878188 111.362396 
L 111.117517 111.325386 
L 111.359837 111.287367 
L 111.605195 111.248308 
L 111.853636 111.208174 
L 112.105208 111.166929 
L 112.359955 111.124537 
L 112.617923 111.08096 
L 112.879157 111.036158 
L 113.143699 110.990091 
L 113.411594 110.942717 
L 113.682882 110.89399 
L 113.957606 110.843867 
L 114.235803 110.7923 
L 114.517513 110.739241 
L 114.802771 110.684639 
L 115.091611 110.628441 
L 115.384064 110.570595 
L 115.68016 110.511044 
L 115.979925 110.44973 
L 116.283382 110.386594 
L 116.590549 110.321575 
L 116.901443 110.254609 
L 117.216075 110.185629 
L 117.53445 110.114569 
L 117.85657 110.041358 
L 118.18243 109.965925 
L 118.512019 109.888195 
L 118.84532 109.808093 
L 119.182307 109.725539 
L 119.522947 109.640453 
L 119.867199 109.552753 
L 120.21501 109.462353 
L 120.56632 109.369168 
L 120.921056 109.273108 
L 121.279136 109.174083 
L 121.640461 109.072001 
L 122.004923 108.966767 
L 122.372396 108.858287 
L 122.742743 108.746462 
L 123.115807 108.631196 
L 123.491416 108.512389 
L 123.869378 108.389942 
L 124.249484 108.263755 
L 124.631504 108.133728 
L 125.015185 107.999762 
L 125.400254 107.861756 
L 125.786415 107.719615 
L 126.173347 107.573241 
L 126.560703 107.42254 
L 126.948113 107.267422 
L 127.335179 107.107799 
L 127.721476 106.943587 
L 128.106551 106.774707 
L 128.489925 106.601087 
L 128.871089 106.422658 
L 129.249508 106.239363 
L 129.624618 106.051149 
L 129.995827 105.857973 
L 130.36252 105.659804 
L 130.724054 105.456621 
L 131.079761 105.248412 
L 131.428955 105.035183 
L 131.770925 104.816949 
L 132.104945 104.593743 
L 132.430275 104.365613 
L 132.746159 104.132622 
L 133.051837 103.894852 
L 133.346543 103.652401 
L 133.62951 103.405388 
L 133.899976 103.153948 
L 134.157188 102.898237 
L 134.400407 102.63843 
L 134.628914 102.374719 
L 134.842014 102.107319 
L 135.039043 101.83646 
L 135.219372 101.562392 
L 135.382412 101.285381 
L 135.527622 101.00571 
L 135.654511 100.723676 
L 135.762642 100.439589 
L 135.85164 100.153774 
L 135.921191 99.866563 
L 135.971048 99.578298 
L 136.001035 99.289326 
L 136.011042 99 
L 136.011042 99 
z
" clip-path="url(#p5f6da374dc)" style="fill: none"/>
   </g>
   <g id="line2d_1">
    <path d="M 136.011042 153 
L 135.921191 152.133437 
L 135.654511 151.276324 
L 135.039043 150.16354 
L 134.157188 149.101763 
L 133.051837 148.105148 
L 131.428955 146.964817 
L 129.249508 145.760637 
L 126.560703 144.57746 
L 123.491416 143.487611 
L 119.867199 142.447247 
L 115.68016 141.488956 
L 111.117517 140.674614 
L 106.095633 140.003684 
L 100.719207 139.508876 
L 95.043447 139.210743 
L 89.279605 139.128849 
L 83.503536 139.266127 
L 77.845458 139.61995 
L 72.482987 140.171869 
L 67.511466 140.897101 
L 62.941709 141.779625 
L 58.900316 142.776028 
L 55.55973 143.800772 
L 52.471549 144.973729 
L 50.189252 146.044817 
L 48.061025 147.294035 
L 46.510458 148.470543 
L 45.483457 149.492951 
L 44.696912 150.575763 
L 44.190446 151.703123 
L 44.011466 152.566122 
L 44.011466 153.433878 
L 44.190446 154.296877 
L 44.696912 155.424237 
L 45.483457 156.507049 
L 46.510458 157.529457 
L 48.061025 158.705965 
L 49.820222 159.759515 
L 52.085805 160.859735 
L 54.792436 161.93127 
L 58.177693 163.019784 
L 61.980967 164.003924 
L 66.453189 164.918525 
L 71.255054 165.669372 
L 76.505792 166.262806 
L 82.109171 166.667316 
L 87.869842 166.857976 
L 93.716725 166.827515 
L 99.458756 166.576544 
L 105.039264 166.110844 
L 110.177688 165.467692 
L 115.091611 164.628441 
L 119.522947 163.640453 
L 123.115807 162.631196 
L 126.173347 161.573241 
L 128.871089 160.422658 
L 131.079761 159.248412 
L 132.746159 158.132622 
L 134.157188 156.898237 
L 135.039043 155.83646 
L 135.654511 154.723676 
L 135.921191 153.866563 
L 136.011042 153 
L 136.011042 153 
" clip-path="url(#p5f6da374dc)" style="fill: none; stroke: #fd7300; stroke-width: 3; stroke-linecap: round"/>
   </g>
   <g id="line2d_2">
    <path d="M 136.011042 99 
L 135.921191 98.133437 
L 135.654511 97.276324 
L 135.039043 96.16354 
L 134.157188 95.101763 
L 133.051837 94.105148 
L 131.428955 92.964817 
L 129.249508 91.760637 
L 126.560703 90.57746 
L 123.491416 89.487611 
L 119.867199 88.447247 
L 115.68016 87.488956 
L 111.117517 86.674614 
L 106.095633 86.003684 
L 100.719207 85.508876 
L 95.043447 85.210743 
L 89.279605 85.128849 
L 83.503536 85.266127 
L 77.845458 85.61995 
L 72.482987 86.171869 
L 67.511466 86.897101 
L 62.941709 87.779625 
L 58.900316 88.776028 
L 55.55973 89.800772 
L 52.471549 90.973729 
L 50.189252 92.044817 
L 48.061025 93.294035 
L 46.510458 94.470543 
L 45.483457 95.492951 
L 44.696912 96.575763 
L 44.190446 97.703123 
L 44.011466 98.566122 
L 44.011466 99.433878 
L 44.190446 100.296877 
L 44.696912 101.424237 
L 45.483457 102.507049 
L 46.510458 103.529457 
L 48.061025 104.705965 
L 49.820222 105.759515 
L 52.085805 106.859735 
L 54.792436 107.93127 
L 58.177693 109.019784 
L 61.980967 110.003924 
L 66.453189 110.918525 
L 71.255054 111.669372 
L 76.505792 112.262806 
L 82.109171 112.667316 
L 87.869842 112.857976 
L 93.716725 112.827515 
L 99.458756 112.576544 
L 105.039264 112.110844 
L 110.177688 111.467692 
L 115.091611 110.628441 
L 119.522947 109.640453 
L 123.115807 108.631196 
L 126.173347 107.573241 
L 128.871089 106.422658 
L 131.079761 105.248412 
L 132.746159 104.132622 
L 134.157188 102.898237 
L 135.039043 101.83646 
L 135.654511 100.723676 
L 135.921191 99.866563 
L 136.011042 99 
L 136.011042 99 
" clip-path="url(#p5f6da374dc)" style="fill: none; stroke: #fd7300; stroke-width: 3; stroke-linecap: round"/>
   </g>
  </g>
 </g>
 <defs>
  <clipPath id="p5f6da374dc">
   <rect x="0" y="0" width="180" height="252"/>
  </clipPath>
 </defs>
</svg>
