<?xml version="1.0" encoding="utf-8" standalone="no"?>
<!DOCTYPE svg PUBLIC "-//W3C//DTD SVG 1.1//EN"
  "http://www.w3.org/Graphics/SVG/1.1/DTD/svg11.dtd">
<svg xmlns:xlink="http://www.w3.org/1999/xlink" width="180pt" height="252pt" viewBox="0 0 180 252" xmlns="http://www.w3.org/2000/svg" version="1.1">
 <metadata>
  <rdf:RDF xmlns:dc="http://purl.org/dc/elements/1.1/" xmlns:cc="http://creativecommons.org/ns#" xmlns:rdf="http://www.w3.org/1999/02/22-rdf-syntax-ns#">
   <cc:Work>
    <dc:type rdf:resource="http://purl.org/dc/dcmitype/StillImage"/>
    <dc:date>2024-11-16T19:22:15.665348</dc:date>
    <dc:format>image/svg+xml</dc:format>
    <dc:creator>
     <cc:Agent>
      <dc:title>Matplotlib v3.9.2, https://matplotlib.org/</dc:title>
     </cc:Agent>
    </dc:creator>
   </cc:Work>
  </rdf:RDF>
 </metadata>
 <defs>
  <style type="text/css">*{stroke-linejoin: round; stroke-linecap: butt}</style>
 </defs>
 <g id="figure_1">
  <g id="patch_1">
   <path d="M 0 252 
L 180 252 
L 180 0 
L 0 0 
z
" style="fill: #ffffff"/>
  </g>
  <g id="axes_1">
   <g id="patch_2">
    <path d="M 136.011042 153 
L 135.021812 150.13878 
L 132.371804 147.592545 
L 128.767384 145.528199 
L 124.875489 143.951061 
L 121.115964 142.780532 
L 117.680404 141.918438 
L 114.620831 141.280433 
L 111.921935 140.802963 
L 109.542673 140.440686 
L 107.436355 140.161884 
L 105.559044 139.944412 
L 103.872382 139.772711 
L 102.343981 139.635726 
L 100.946875 139.525506 
L 99.658696 139.43626 
L 98.460845 139.363718 
L 97.33776 139.304701 
L 96.276299 139.256823 
L 95.265232 139.218282 
L 94.294835 139.187718 
L 93.35655 139.164113 
L 92.442708 139.146713 
L 91.546301 139.134985 
L 90.660777 139.12858 
L 89.779869 139.127308 
L 88.897425 139.131133 
L 88.007257 139.140166 
L 87.102975 139.154675 
L 86.177824 139.175098 
L 85.224491 139.202074 
L 84.234895 139.236479 
L 83.199932 139.279494 
L 82.109171 139.332684 
L 80.950485 139.398121 
L 79.709589 139.478558 
L 78.369488 139.577674 
L 76.909798 139.700435 
L 75.305958 139.853617 
L 73.528387 140.04658 
L 71.541743 140.292419 
L 69.304728 140.609675 
L 66.771427 141.024839 
L 63.896381 141.575875 
L 60.647827 142.316683 
L 57.037128 143.321227 
L 53.175136 144.682738 
L 49.357626 146.49676 
L 46.136142 148.811509 
L 44.241861 151.547458 
L 44.241861 154.452542 
L 46.136142 157.188491 
L 49.357626 159.50324 
L 53.175136 161.317262 
L 57.037128 162.678773 
L 60.647827 163.683317 
L 63.896381 164.424125 
L 66.771427 164.975161 
L 69.304728 165.390325 
L 71.541743 165.707581 
L 73.528387 165.95342 
L 75.305958 166.146383 
L 76.909798 166.299565 
L 78.369488 166.422326 
L 79.709589 166.521442 
L 80.950485 166.601879 
L 82.109171 166.667316 
L 83.199932 166.720506 
L 84.234895 166.763521 
L 85.224491 166.797926 
L 86.177824 166.824902 
L 87.102975 166.845325 
L 88.007257 166.859834 
L 88.897425 166.868867 
L 89.779869 166.872692 
L 90.660777 166.87142 
L 91.546301 166.865015 
L 92.442708 166.853287 
L 93.35655 166.835887 
L 94.294835 166.812282 
L 95.265232 166.781718 
L 96.276299 166.743177 
L 97.33776 166.695299 
L 98.460845 166.636282 
L 99.658696 166.56374 
L 100.946875 166.474494 
L 102.343981 166.364274 
L 103.872382 166.227289 
L 105.559044 166.055588 
L 107.436355 165.838116 
L 109.542673 165.559314 
L 111.921935 165.197037 
L 114.620831 164.719567 
L 117.680404 164.081562 
L 121.115964 163.219468 
L 124.875489 162.048939 
L 128.767384 160.471801 
L 132.371804 158.407455 
L 135.021812 155.86122 
L 136.011042 153 
z
" clip-path="url(#pf256ebc01b)" style="fill: #8500ff; stroke: #8500ff; stroke-linejoin: miter"/>
   </g>
   <g id="patch_3">
    <path d="M 136.011042 99 
L 135.021812 96.13878 
L 132.371804 93.592545 
L 128.767384 91.528199 
L 124.875489 89.951061 
L 121.115964 88.780532 
L 117.680404 87.918438 
L 114.620831 87.280433 
L 111.921935 86.802963 
L 109.542673 86.440686 
L 107.436355 86.161884 
L 105.559044 85.944412 
L 103.872382 85.772711 
L 102.343981 85.635726 
L 100.946875 85.525506 
L 99.658696 85.43626 
L 98.460845 85.363718 
L 97.33776 85.304701 
L 96.276299 85.256823 
L 95.265232 85.218282 
L 94.294835 85.187718 
L 93.35655 85.164113 
L 92.442708 85.146713 
L 91.546301 85.134985 
L 90.660777 85.12858 
L 89.779869 85.127308 
L 88.897425 85.131133 
L 88.007257 85.140166 
L 87.102975 85.154675 
L 86.177824 85.175098 
L 85.224491 85.202074 
L 84.234895 85.236479 
L 83.199932 85.279494 
L 82.109171 85.332684 
L 80.950485 85.398121 
L 79.709589 85.478558 
L 78.369488 85.577674 
L 76.909798 85.700435 
L 75.305958 85.853617 
L 73.528387 86.04658 
L 71.541743 86.292419 
L 69.304728 86.609675 
L 66.771427 87.024839 
L 63.896381 87.575875 
L 60.647827 88.316683 
L 57.037128 89.321227 
L 53.175136 90.682738 
L 49.357626 92.49676 
L 46.136142 94.811509 
L 44.241861 97.547458 
L 44.241861 100.452542 
L 46.136142 103.188491 
L 49.357626 105.50324 
L 53.175136 107.317262 
L 57.037128 108.678773 
L 60.647827 109.683317 
L 63.896381 110.424125 
L 66.771427 110.975161 
L 69.304728 111.390325 
L 71.541743 111.707581 
L 73.528387 111.95342 
L 75.305958 112.146383 
L 76.909798 112.299565 
L 78.369488 112.422326 
L 79.709589 112.521442 
L 80.950485 112.601879 
L 82.109171 112.667316 
L 83.199932 112.720506 
L 84.234895 112.763521 
L 85.224491 112.797926 
L 86.177824 112.824902 
L 87.102975 112.845325 
L 88.007257 112.859834 
L 88.897425 112.868867 
L 89.779869 112.872692 
L 90.660777 112.87142 
L 91.546301 112.865015 
L 92.442708 112.853287 
L 93.35655 112.835887 
L 94.294835 112.812282 
L 95.265232 112.781718 
L 96.276299 112.743177 
L 97.33776 112.695299 
L 98.460845 112.636282 
L 99.658696 112.56374 
L 100.946875 112.474494 
L 102.343981 112.364274 
L 103.872382 112.227289 
L 105.559044 112.055588 
L 107.436355 111.838116 
L 109.542673 111.559314 
L 111.921935 111.197037 
L 114.620831 110.719567 
L 117.680404 110.081562 
L 121.115964 109.219468 
L 124.875489 108.048939 
L 128.767384 106.471801 
L 132.371804 104.407455 
L 135.021812 101.86122 
L 136.011042 99 
z
" clip-path="url(#pf256ebc01b)" style="fill: #8500ff; stroke: #8500ff; stroke-linejoin: miter"/>
   </g>
   <g id="line2d_1">
    <path d="M 136.011042 153 
L 135.021812 150.13878 
L 132.371804 147.592545 
L 128.767384 145.528199 
L 124.875489 143.951061 
L 121.115964 142.780532 
L 117.680404 141.918438 
L 114.620831 141.280433 
L 111.921935 140.802963 
L 109.542673 140.440686 
L 107.436355 140.161884 
L 105.559044 139.944412 
L 103.872382 139.772711 
L 102.343981 139.635726 
L 100.946875 139.525506 
L 99.658696 139.43626 
L 98.460845 139.363718 
L 97.33776 139.304701 
L 96.276299 139.256823 
L 95.265232 139.218282 
L 94.294835 139.187718 
L 93.35655 139.164113 
L 92.442708 139.146713 
L 91.546301 139.134985 
L 90.660777 139.12858 
L 89.779869 139.127308 
L 88.897425 139.131133 
L 88.007257 139.140166 
L 87.102975 139.154675 
L 86.177824 139.175098 
L 85.224491 139.202074 
L 84.234895 139.236479 
L 83.199932 139.279494 
L 82.109171 139.332684 
L 80.950485 139.398121 
L 79.709589 139.478558 
L 78.369488 139.577674 
L 76.909798 139.700435 
L 75.305958 139.853617 
L 73.528387 140.04658 
L 71.541743 140.292419 
L 69.304728 140.609675 
L 66.771427 141.024839 
L 63.896381 141.575875 
L 60.647827 142.316683 
L 57.037128 143.321227 
L 53.175136 144.682738 
L 49.357626 146.49676 
L 46.136142 148.811509 
L 44.241861 151.547458 
L 44.241861 154.452542 
L 46.136142 157.188491 
L 49.357626 159.50324 
L 53.175136 161.317262 
L 57.037128 162.678773 
L 60.647827 163.683317 
L 63.896381 164.424125 
L 66.771427 164.975161 
L 69.304728 165.390325 
L 71.541743 165.707581 
L 73.528387 165.95342 
L 75.305958 166.146383 
L 76.909798 166.299565 
L 78.369488 166.422326 
L 79.709589 166.521442 
L 80.950485 166.601879 
L 82.109171 166.667316 
L 83.199932 166.720506 
L 84.234895 166.763521 
L 85.224491 166.797926 
L 86.177824 166.824902 
L 87.102975 166.845325 
L 88.007257 166.859834 
L 88.897425 166.868867 
L 89.779869 166.872692 
L 90.660777 166.87142 
L 91.546301 166.865015 
L 92.442708 166.853287 
L 93.35655 166.835887 
L 94.294835 166.812282 
L 95.265232 166.781718 
L 96.276299 166.743177 
L 97.33776 166.695299 
L 98.460845 166.636282 
L 99.658696 166.56374 
L 100.946875 166.474494 
L 102.343981 166.364274 
L 103.872382 166.227289 
L 105.559044 166.055588 
L 107.436355 165.838116 
L 109.542673 165.559314 
L 111.921935 165.197037 
L 114.620831 164.719567 
L 117.680404 164.081562 
L 121.115964 163.219468 
L 124.875489 162.048939 
L 128.767384 160.471801 
L 132.371804 158.407455 
L 135.021812 155.86122 
L 136.011042 153 
" clip-path="url(#pf256ebc01b)" style="fill: none; stroke: #8500ff; stroke-width: 3; stroke-linecap: square"/>
   </g>
   <g id="line2d_2">
    <path d="M 136.011042 99 
L 135.021812 96.13878 
L 132.371804 93.592545 
L 128.767384 91.528199 
L 124.875489 89.951061 
L 121.115964 88.780532 
L 117.680404 87.918438 
L 114.620831 87.280433 
L 111.921935 86.802963 
L 109.542673 86.440686 
L 107.436355 86.161884 
L 105.559044 85.944412 
L 103.872382 85.772711 
L 102.343981 85.635726 
L 100.946875 85.525506 
L 99.658696 85.43626 
L 98.460845 85.363718 
L 97.33776 85.304701 
L 96.276299 85.256823 
L 95.265232 85.218282 
L 94.294835 85.187718 
L 93.35655 85.164113 
L 92.442708 85.146713 
L 91.546301 85.134985 
L 90.660777 85.12858 
L 89.779869 85.127308 
L 88.897425 85.131133 
L 88.007257 85.140166 
L 87.102975 85.154675 
L 86.177824 85.175098 
L 85.224491 85.202074 
L 84.234895 85.236479 
L 83.199932 85.279494 
L 82.109171 85.332684 
L 80.950485 85.398121 
L 79.709589 85.478558 
L 78.369488 85.577674 
L 76.909798 85.700435 
L 75.305958 85.853617 
L 73.528387 86.04658 
L 71.541743 86.292419 
L 69.304728 86.609675 
L 66.771427 87.024839 
L 63.896381 87.575875 
L 60.647827 88.316683 
L 57.037128 89.321227 
L 53.175136 90.682738 
L 49.357626 92.49676 
L 46.136142 94.811509 
L 44.241861 97.547458 
L 44.241861 100.452542 
L 46.136142 103.188491 
L 49.357626 105.50324 
L 53.175136 107.317262 
L 57.037128 108.678773 
L 60.647827 109.683317 
L 63.896381 110.424125 
L 66.771427 110.975161 
L 69.304728 111.390325 
L 71.541743 111.707581 
L 73.528387 111.95342 
L 75.305958 112.146383 
L 76.909798 112.299565 
L 78.369488 112.422326 
L 79.709589 112.521442 
L 80.950485 112.601879 
L 82.109171 112.667316 
L 83.199932 112.720506 
L 84.234895 112.763521 
L 85.224491 112.797926 
L 86.177824 112.824902 
L 87.102975 112.845325 
L 88.007257 112.859834 
L 88.897425 112.868867 
L 89.779869 112.872692 
L 90.660777 112.87142 
L 91.546301 112.865015 
L 92.442708 112.853287 
L 93.35655 112.835887 
L 94.294835 112.812282 
L 95.265232 112.781718 
L 96.276299 112.743177 
L 97.33776 112.695299 
L 98.460845 112.636282 
L 99.658696 112.56374 
L 100.946875 112.474494 
L 102.343981 112.364274 
L 103.872382 112.227289 
L 105.559044 112.055588 
L 107.436355 111.838116 
L 109.542673 111.559314 
L 111.921935 111.197037 
L 114.620831 110.719567 
L 117.680404 110.081562 
L 121.115964 109.219468 
L 124.875489 108.048939 
L 128.767384 106.471801 
L 132.371804 104.407455 
L 135.021812 101.86122 
L 136.011042 99 
" clip-path="url(#pf256ebc01b)" style="fill: none; stroke: #8500ff; stroke-width: 3; stroke-linecap: square"/>
   </g>
  </g>
 </g>
 <defs>
  <clipPath id="pf256ebc01b">
   <rect x="0" y="0" width="180" height="252"/>
  </clipPath>
 </defs>
</svg>
