<?xml version="1.0" encoding="utf-8" standalone="no"?>
<!DOCTYPE svg PUBLIC "-//W3C//DTD SVG 1.1//EN"
  "http://www.w3.org/Graphics/SVG/1.1/DTD/svg11.dtd">
<svg xmlns:xlink="http://www.w3.org/1999/xlink" width="180pt" height="252pt" viewBox="0 0 180 252" xmlns="http://www.w3.org/2000/svg" version="1.1">
 <metadata>
  <rdf:RDF xmlns:dc="http://purl.org/dc/elements/1.1/" xmlns:cc="http://creativecommons.org/ns#" xmlns:rdf="http://www.w3.org/1999/02/22-rdf-syntax-ns#">
   <cc:Work>
    <dc:type rdf:resource="http://purl.org/dc/dcmitype/StillImage"/>
    <dc:date>2024-11-16T19:22:15.735244</dc:date>
    <dc:format>image/svg+xml</dc:format>
    <dc:creator>
     <cc:Agent>
      <dc:title>Matplotlib v3.9.2, https://matplotlib.org/</dc:title>
     </cc:Agent>
    </dc:creator>
   </cc:Work>
  </rdf:RDF>
 </metadata>
 <defs>
  <style type="text/css">*{stroke-linejoin: round; stroke-linecap: butt}</style>
 </defs>
 <g id="figure_1">
  <g id="patch_1">
   <path d="M 0 252 
L 180 252 
L 180 0 
L 0 0 
z
" style="fill: #ffffff"/>
  </g>
  <g id="axes_1">
   <g id="patch_2">
    <path d="M 136.011042 180 
L 135.021812 177.13878 
L 132.371804 174.592545 
L 128.767384 172.528199 
L 124.875489 170.951061 
L 121.115964 169.780532 
L 117.680404 168.918438 
L 114.620831 168.280433 
L 111.921935 167.802963 
L 109.542673 167.440686 
L 107.436355 167.161884 
L 105.559044 166.944412 
L 103.872382 166.772711 
L 102.343981 166.635726 
L 100.946875 166.525506 
L 99.658696 166.43626 
L 98.460845 166.363718 
L 97.33776 166.304701 
L 96.276299 166.256823 
L 95.265232 166.218282 
L 94.294835 166.187718 
L 93.35655 166.164113 
L 92.442708 166.146713 
L 91.546301 166.134985 
L 90.660777 166.12858 
L 89.779869 166.127308 
L 88.897425 166.131133 
L 88.007257 166.140166 
L 87.102975 166.154675 
L 86.177824 166.175098 
L 85.224491 166.202074 
L 84.234895 166.236479 
L 83.199932 166.279494 
L 82.109171 166.332684 
L 80.950485 166.398121 
L 79.709589 166.478558 
L 78.369488 166.577674 
L 76.909798 166.700435 
L 75.305958 166.853617 
L 73.528387 167.04658 
L 71.541743 167.292419 
L 69.304728 167.609675 
L 66.771427 168.024839 
L 63.896381 168.575875 
L 60.647827 169.316683 
L 57.037128 170.321227 
L 53.175136 171.682738 
L 49.357626 173.49676 
L 46.136142 175.811509 
L 44.241861 178.547458 
L 44.241861 181.452542 
L 46.136142 184.188491 
L 49.357626 186.50324 
L 53.175136 188.317262 
L 57.037128 189.678773 
L 60.647827 190.683317 
L 63.896381 191.424125 
L 66.771427 191.975161 
L 69.304728 192.390325 
L 71.541743 192.707581 
L 73.528387 192.95342 
L 75.305958 193.146383 
L 76.909798 193.299565 
L 78.369488 193.422326 
L 79.709589 193.521442 
L 80.950485 193.601879 
L 82.109171 193.667316 
L 83.199932 193.720506 
L 84.234895 193.763521 
L 85.224491 193.797926 
L 86.177824 193.824902 
L 87.102975 193.845325 
L 88.007257 193.859834 
L 88.897425 193.868867 
L 89.779869 193.872692 
L 90.660777 193.87142 
L 91.546301 193.865015 
L 92.442708 193.853287 
L 93.35655 193.835887 
L 94.294835 193.812282 
L 95.265232 193.781718 
L 96.276299 193.743177 
L 97.33776 193.695299 
L 98.460845 193.636282 
L 99.658696 193.56374 
L 100.946875 193.474494 
L 102.343981 193.364274 
L 103.872382 193.227289 
L 105.559044 193.055588 
L 107.436355 192.838116 
L 109.542673 192.559314 
L 111.921935 192.197037 
L 114.620831 191.719567 
L 117.680404 191.081562 
L 121.115964 190.219468 
L 124.875489 189.048939 
L 128.767384 187.471801 
L 132.371804 185.407455 
L 135.021812 182.86122 
L 136.011042 180 
z
" clip-path="url(#p23e44c36d0)" style="fill: #fd7300; stroke: #fd7300; stroke-linejoin: miter"/>
   </g>
   <g id="patch_3">
    <path d="M 136.011042 126 
L 135.021812 123.13878 
L 132.371804 120.592545 
L 128.767384 118.528199 
L 124.875489 116.951061 
L 121.115964 115.780532 
L 117.680404 114.918438 
L 114.620831 114.280433 
L 111.921935 113.802963 
L 109.542673 113.440686 
L 107.436355 113.161884 
L 105.559044 112.944412 
L 103.872382 112.772711 
L 102.343981 112.635726 
L 100.946875 112.525506 
L 99.658696 112.43626 
L 98.460845 112.363718 
L 97.33776 112.304701 
L 96.276299 112.256823 
L 95.265232 112.218282 
L 94.294835 112.187718 
L 93.35655 112.164113 
L 92.442708 112.146713 
L 91.546301 112.134985 
L 90.660777 112.12858 
L 89.779869 112.127308 
L 88.897425 112.131133 
L 88.007257 112.140166 
L 87.102975 112.154675 
L 86.177824 112.175098 
L 85.224491 112.202074 
L 84.234895 112.236479 
L 83.199932 112.279494 
L 82.109171 112.332684 
L 80.950485 112.398121 
L 79.709589 112.478558 
L 78.369488 112.577674 
L 76.909798 112.700435 
L 75.305958 112.853617 
L 73.528387 113.04658 
L 71.541743 113.292419 
L 69.304728 113.609675 
L 66.771427 114.024839 
L 63.896381 114.575875 
L 60.647827 115.316683 
L 57.037128 116.321227 
L 53.175136 117.682738 
L 49.357626 119.49676 
L 46.136142 121.811509 
L 44.241861 124.547458 
L 44.241861 127.452542 
L 46.136142 130.188491 
L 49.357626 132.50324 
L 53.175136 134.317262 
L 57.037128 135.678773 
L 60.647827 136.683317 
L 63.896381 137.424125 
L 66.771427 137.975161 
L 69.304728 138.390325 
L 71.541743 138.707581 
L 73.528387 138.95342 
L 75.305958 139.146383 
L 76.909798 139.299565 
L 78.369488 139.422326 
L 79.709589 139.521442 
L 80.950485 139.601879 
L 82.109171 139.667316 
L 83.199932 139.720506 
L 84.234895 139.763521 
L 85.224491 139.797926 
L 86.177824 139.824902 
L 87.102975 139.845325 
L 88.007257 139.859834 
L 88.897425 139.868867 
L 89.779869 139.872692 
L 90.660777 139.87142 
L 91.546301 139.865015 
L 92.442708 139.853287 
L 93.35655 139.835887 
L 94.294835 139.812282 
L 95.265232 139.781718 
L 96.276299 139.743177 
L 97.33776 139.695299 
L 98.460845 139.636282 
L 99.658696 139.56374 
L 100.946875 139.474494 
L 102.343981 139.364274 
L 103.872382 139.227289 
L 105.559044 139.055588 
L 107.436355 138.838116 
L 109.542673 138.559314 
L 111.921935 138.197037 
L 114.620831 137.719567 
L 117.680404 137.081562 
L 121.115964 136.219468 
L 124.875489 135.048939 
L 128.767384 133.471801 
L 132.371804 131.407455 
L 135.021812 128.86122 
L 136.011042 126 
z
" clip-path="url(#p23e44c36d0)" style="fill: #fd7300; stroke: #fd7300; stroke-linejoin: miter"/>
   </g>
   <g id="patch_4">
    <path d="M 136.011042 72 
L 135.021812 69.13878 
L 132.371804 66.592545 
L 128.767384 64.528199 
L 124.875489 62.951061 
L 121.115964 61.780532 
L 117.680404 60.918438 
L 114.620831 60.280433 
L 111.921935 59.802963 
L 109.542673 59.440686 
L 107.436355 59.161884 
L 105.559044 58.944412 
L 103.872382 58.772711 
L 102.343981 58.635726 
L 100.946875 58.525506 
L 99.658696 58.43626 
L 98.460845 58.363718 
L 97.33776 58.304701 
L 96.276299 58.256823 
L 95.265232 58.218282 
L 94.294835 58.187718 
L 93.35655 58.164113 
L 92.442708 58.146713 
L 91.546301 58.134985 
L 90.660777 58.12858 
L 89.779869 58.127308 
L 88.897425 58.131133 
L 88.007257 58.140166 
L 87.102975 58.154675 
L 86.177824 58.175098 
L 85.224491 58.202074 
L 84.234895 58.236479 
L 83.199932 58.279494 
L 82.109171 58.332684 
L 80.950485 58.398121 
L 79.709589 58.478558 
L 78.369488 58.577674 
L 76.909798 58.700435 
L 75.305958 58.853617 
L 73.528387 59.04658 
L 71.541743 59.292419 
L 69.304728 59.609675 
L 66.771427 60.024839 
L 63.896381 60.575875 
L 60.647827 61.316683 
L 57.037128 62.321227 
L 53.175136 63.682738 
L 49.357626 65.49676 
L 46.136142 67.811509 
L 44.241861 70.547458 
L 44.241861 73.452542 
L 46.136142 76.188491 
L 49.357626 78.50324 
L 53.175136 80.317262 
L 57.037128 81.678773 
L 60.647827 82.683317 
L 63.896381 83.424125 
L 66.771427 83.975161 
L 69.304728 84.390325 
L 71.541743 84.707581 
L 73.528387 84.95342 
L 75.305958 85.146383 
L 76.909798 85.299565 
L 78.369488 85.422326 
L 79.709589 85.521442 
L 80.950485 85.601879 
L 82.109171 85.667316 
L 83.199932 85.720506 
L 84.234895 85.763521 
L 85.224491 85.797926 
L 86.177824 85.824902 
L 87.102975 85.845325 
L 88.007257 85.859834 
L 88.897425 85.868867 
L 89.779869 85.872692 
L 90.660777 85.87142 
L 91.546301 85.865015 
L 92.442708 85.853287 
L 93.35655 85.835887 
L 94.294835 85.812282 
L 95.265232 85.781718 
L 96.276299 85.743177 
L 97.33776 85.695299 
L 98.460845 85.636282 
L 99.658696 85.56374 
L 100.946875 85.474494 
L 102.343981 85.364274 
L 103.872382 85.227289 
L 105.559044 85.055588 
L 107.436355 84.838116 
L 109.542673 84.559314 
L 111.921935 84.197037 
L 114.620831 83.719567 
L 117.680404 83.081562 
L 121.115964 82.219468 
L 124.875489 81.048939 
L 128.767384 79.471801 
L 132.371804 77.407455 
L 135.021812 74.86122 
L 136.011042 72 
z
" clip-path="url(#p23e44c36d0)" style="fill: #fd7300; stroke: #fd7300; stroke-linejoin: miter"/>
   </g>
   <g id="line2d_1">
    <path d="M 136.011042 180 
L 135.021812 177.13878 
L 132.371804 174.592545 
L 128.767384 172.528199 
L 124.875489 170.951061 
L 121.115964 169.780532 
L 117.680404 168.918438 
L 114.620831 168.280433 
L 111.921935 167.802963 
L 109.542673 167.440686 
L 107.436355 167.161884 
L 105.559044 166.944412 
L 103.872382 166.772711 
L 102.343981 166.635726 
L 100.946875 166.525506 
L 99.658696 166.43626 
L 98.460845 166.363718 
L 97.33776 166.304701 
L 96.276299 166.256823 
L 95.265232 166.218282 
L 94.294835 166.187718 
L 93.35655 166.164113 
L 92.442708 166.146713 
L 91.546301 166.134985 
L 90.660777 166.12858 
L 89.779869 166.127308 
L 88.897425 166.131133 
L 88.007257 166.140166 
L 87.102975 166.154675 
L 86.177824 166.175098 
L 85.224491 166.202074 
L 84.234895 166.236479 
L 83.199932 166.279494 
L 82.109171 166.332684 
L 80.950485 166.398121 
L 79.709589 166.478558 
L 78.369488 166.577674 
L 76.909798 166.700435 
L 75.305958 166.853617 
L 73.528387 167.04658 
L 71.541743 167.292419 
L 69.304728 167.609675 
L 66.771427 168.024839 
L 63.896381 168.575875 
L 60.647827 169.316683 
L 57.037128 170.321227 
L 53.175136 171.682738 
L 49.357626 173.49676 
L 46.136142 175.811509 
L 44.241861 178.547458 
L 44.241861 181.452542 
L 46.136142 184.188491 
L 49.357626 186.50324 
L 53.175136 188.317262 
L 57.037128 189.678773 
L 60.647827 190.683317 
L 63.896381 191.424125 
L 66.771427 191.975161 
L 69.304728 192.390325 
L 71.541743 192.707581 
L 73.528387 192.95342 
L 75.305958 193.146383 
L 76.909798 193.299565 
L 78.369488 193.422326 
L 79.709589 193.521442 
L 80.950485 193.601879 
L 82.109171 193.667316 
L 83.199932 193.720506 
L 84.234895 193.763521 
L 85.224491 193.797926 
L 86.177824 193.824902 
L 87.102975 193.845325 
L 88.007257 193.859834 
L 88.897425 193.868867 
L 89.779869 193.872692 
L 90.660777 193.87142 
L 91.546301 193.865015 
L 92.442708 193.853287 
L 93.35655 193.835887 
L 94.294835 193.812282 
L 95.265232 193.781718 
L 96.276299 193.743177 
L 97.33776 193.695299 
L 98.460845 193.636282 
L 99.658696 193.56374 
L 100.946875 193.474494 
L 102.343981 193.364274 
L 103.872382 193.227289 
L 105.559044 193.055588 
L 107.436355 192.838116 
L 109.542673 192.559314 
L 111.921935 192.197037 
L 114.620831 191.719567 
L 117.680404 191.081562 
L 121.115964 190.219468 
L 124.875489 189.048939 
L 128.767384 187.471801 
L 132.371804 185.407455 
L 135.021812 182.86122 
L 136.011042 180 
" clip-path="url(#p23e44c36d0)" style="fill: none; stroke: #fd7300; stroke-width: 3; stroke-linecap: square"/>
   </g>
   <g id="line2d_2">
    <path d="M 136.011042 126 
L 135.021812 123.13878 
L 132.371804 120.592545 
L 128.767384 118.528199 
L 124.875489 116.951061 
L 121.115964 115.780532 
L 117.680404 114.918438 
L 114.620831 114.280433 
L 111.921935 113.802963 
L 109.542673 113.440686 
L 107.436355 113.161884 
L 105.559044 112.944412 
L 103.872382 112.772711 
L 102.343981 112.635726 
L 100.946875 112.525506 
L 99.658696 112.43626 
L 98.460845 112.363718 
L 97.33776 112.304701 
L 96.276299 112.256823 
L 95.265232 112.218282 
L 94.294835 112.187718 
L 93.35655 112.164113 
L 92.442708 112.146713 
L 91.546301 112.134985 
L 90.660777 112.12858 
L 89.779869 112.127308 
L 88.897425 112.131133 
L 88.007257 112.140166 
L 87.102975 112.154675 
L 86.177824 112.175098 
L 85.224491 112.202074 
L 84.234895 112.236479 
L 83.199932 112.279494 
L 82.109171 112.332684 
L 80.950485 112.398121 
L 79.709589 112.478558 
L 78.369488 112.577674 
L 76.909798 112.700435 
L 75.305958 112.853617 
L 73.528387 113.04658 
L 71.541743 113.292419 
L 69.304728 113.609675 
L 66.771427 114.024839 
L 63.896381 114.575875 
L 60.647827 115.316683 
L 57.037128 116.321227 
L 53.175136 117.682738 
L 49.357626 119.49676 
L 46.136142 121.811509 
L 44.241861 124.547458 
L 44.241861 127.452542 
L 46.136142 130.188491 
L 49.357626 132.50324 
L 53.175136 134.317262 
L 57.037128 135.678773 
L 60.647827 136.683317 
L 63.896381 137.424125 
L 66.771427 137.975161 
L 69.304728 138.390325 
L 71.541743 138.707581 
L 73.528387 138.95342 
L 75.305958 139.146383 
L 76.909798 139.299565 
L 78.369488 139.422326 
L 79.709589 139.521442 
L 80.950485 139.601879 
L 82.109171 139.667316 
L 83.199932 139.720506 
L 84.234895 139.763521 
L 85.224491 139.797926 
L 86.177824 139.824902 
L 87.102975 139.845325 
L 88.007257 139.859834 
L 88.897425 139.868867 
L 89.779869 139.872692 
L 90.660777 139.87142 
L 91.546301 139.865015 
L 92.442708 139.853287 
L 93.35655 139.835887 
L 94.294835 139.812282 
L 95.265232 139.781718 
L 96.276299 139.743177 
L 97.33776 139.695299 
L 98.460845 139.636282 
L 99.658696 139.56374 
L 100.946875 139.474494 
L 102.343981 139.364274 
L 103.872382 139.227289 
L 105.559044 139.055588 
L 107.436355 138.838116 
L 109.542673 138.559314 
L 111.921935 138.197037 
L 114.620831 137.719567 
L 117.680404 137.081562 
L 121.115964 136.219468 
L 124.875489 135.048939 
L 128.767384 133.471801 
L 132.371804 131.407455 
L 135.021812 128.86122 
L 136.011042 126 
" clip-path="url(#p23e44c36d0)" style="fill: none; stroke: #fd7300; stroke-width: 3; stroke-linecap: square"/>
   </g>
   <g id="line2d_3">
    <path d="M 136.011042 72 
L 135.021812 69.13878 
L 132.371804 66.592545 
L 128.767384 64.528199 
L 124.875489 62.951061 
L 121.115964 61.780532 
L 117.680404 60.918438 
L 114.620831 60.280433 
L 111.921935 59.802963 
L 109.542673 59.440686 
L 107.436355 59.161884 
L 105.559044 58.944412 
L 103.872382 58.772711 
L 102.343981 58.635726 
L 100.946875 58.525506 
L 99.658696 58.43626 
L 98.460845 58.363718 
L 97.33776 58.304701 
L 96.276299 58.256823 
L 95.265232 58.218282 
L 94.294835 58.187718 
L 93.35655 58.164113 
L 92.442708 58.146713 
L 91.546301 58.134985 
L 90.660777 58.12858 
L 89.779869 58.127308 
L 88.897425 58.131133 
L 88.007257 58.140166 
L 87.102975 58.154675 
L 86.177824 58.175098 
L 85.224491 58.202074 
L 84.234895 58.236479 
L 83.199932 58.279494 
L 82.109171 58.332684 
L 80.950485 58.398121 
L 79.709589 58.478558 
L 78.369488 58.577674 
L 76.909798 58.700435 
L 75.305958 58.853617 
L 73.528387 59.04658 
L 71.541743 59.292419 
L 69.304728 59.609675 
L 66.771427 60.024839 
L 63.896381 60.575875 
L 60.647827 61.316683 
L 57.037128 62.321227 
L 53.175136 63.682738 
L 49.357626 65.49676 
L 46.136142 67.811509 
L 44.241861 70.547458 
L 44.241861 73.452542 
L 46.136142 76.188491 
L 49.357626 78.50324 
L 53.175136 80.317262 
L 57.037128 81.678773 
L 60.647827 82.683317 
L 63.896381 83.424125 
L 66.771427 83.975161 
L 69.304728 84.390325 
L 71.541743 84.707581 
L 73.528387 84.95342 
L 75.305958 85.146383 
L 76.909798 85.299565 
L 78.369488 85.422326 
L 79.709589 85.521442 
L 80.950485 85.601879 
L 82.109171 85.667316 
L 83.199932 85.720506 
L 84.234895 85.763521 
L 85.224491 85.797926 
L 86.177824 85.824902 
L 87.102975 85.845325 
L 88.007257 85.859834 
L 88.897425 85.868867 
L 89.779869 85.872692 
L 90.660777 85.87142 
L 91.546301 85.865015 
L 92.442708 85.853287 
L 93.35655 85.835887 
L 94.294835 85.812282 
L 95.265232 85.781718 
L 96.276299 85.743177 
L 97.33776 85.695299 
L 98.460845 85.636282 
L 99.658696 85.56374 
L 100.946875 85.474494 
L 102.343981 85.364274 
L 103.872382 85.227289 
L 105.559044 85.055588 
L 107.436355 84.838116 
L 109.542673 84.559314 
L 111.921935 84.197037 
L 114.620831 83.719567 
L 117.680404 83.081562 
L 121.115964 82.219468 
L 124.875489 81.048939 
L 128.767384 79.471801 
L 132.371804 77.407455 
L 135.021812 74.86122 
L 136.011042 72 
" clip-path="url(#p23e44c36d0)" style="fill: none; stroke: #fd7300; stroke-width: 3; stroke-linecap: square"/>
   </g>
  </g>
 </g>
 <defs>
  <clipPath id="p23e44c36d0">
   <rect x="0" y="0" width="180" height="252"/>
  </clipPath>
 </defs>
</svg>
